<svg xmlns="http://www.w3.org/2000/svg" xmlns:xlink="http://www.w3.org/1999/xlink" viewBox="0 0 519.82 337.2"><defs><clipPath id="clip-path" transform="translate(0 -9.46)"><polygon points="321.23 257.25 277.79 258.55 204.25 0.14 345.05 0 321.23 257.25" fill="none"/></clipPath></defs><title>e1</title><g id="Layer_2" data-name="Layer 2"><g id="Layer_1-2" data-name="Layer 1"><g clip-path="url(#clip-path)"><g id="Layer_1-2-2" data-name="Layer 1-2-2"><path d="M12.58,232.41c-3.2.22-6.42.5-7.54-3.4-.83-3-2.49-6.92,3.78-5.88,2.11.52,5.1.82,6.14-1.64s-1.2-4.33-3.33-6c-3.11-2.47-3.79-7.25-8.29-8.67-1.13-.28-1.4-2.4-1.06-2.47,5.32-1.24,1.08-13.83,11.94-8.78-7-2.22-5.68-10.45-14.22-11.11,6.52-3.18,9.59,1.1,13.38.34,2-1.72-1.76-5.67,2.06-6.34s3.77,3.77,6.59,5.26c2.33-1.92.18-4.82,1.39-7,2.38-1.21,2.13,6.17,5,2,6.2-8.78,15.85-10.94,25.09-14,4.81-1,10.16-.18,13.76-4.65a22,22,0,0,1,23.74.37c26,14.78,52.56,28.74,79,42.79.77,6.19,5.2,5.73,9.63,5.28,3.36,2,8.38,1.85,9.26,7.08-2.8,6.37-8.67,5.9-14,6.43-1.5-.18-.13.54-.2.81a12.17,12.17,0,0,1,.63,7.28c-1.35,4.33,2.79,10.15-3.26,13.22-2.09,2.83-.84,5.19,1.1,7.4a5.45,5.45,0,0,1,.79,3.1c-1.24,5,3,6.38,5.64,8.83,1.52,3.53,3.72,6.75,1.94,10.76a26.14,26.14,0,0,0-2.36,2.57q-59.82.4-119.63.75a20.34,20.34,0,0,1-10.41-1.63c-.66-.38-1.09-1.21-1.79-1.45-4.31-1.57,1.91-7.73-2.49-7.52s-6.12-2.68-8.68-4.44a55.56,55.56,0,0,1-7.56-7.7c.17-4,1.26-8.43-4.09-10.28-1.45,1-3,2.41-4.72.73-1.16-1.17-2.52-2.55-.73-4.57,2.43-2.55.88-4.57-1.61-6.23C16.36,231.55,14.51,231.88,12.58,232.41Z" transform="translate(0 -9.46)" fill="#acacac"/><path d="M387.06,213.1c2.91-3.1,5-7.41,9.7-1a3.83,3.83,0,0,0,6.83-3c-.9-6.69,2.37-8.69,6.83-12.85,9.09-8.48,19.46-15,29-22.84,2.93-2.43,5.83-7.29,10.77-1.85,1.61,1.78,3.14-1,3.6-2.58,4.19-15.2,16.25-19.61,30.42-21.06l-10.39,5.41c2.51,8.38,11.06,6.3,17.59,10.27-6-.32-10.75-2.08-16.52-.92l12.25,8.63c-2.74,2.29-4.33-.34-6.08-.93a11.13,11.13,0,0,0-5.94-1.46c.18,4.61,5.2,6.51,5.79,11.8l-9.77-7.05,5.3,19.25c-5.06-4.4-4.85-10.47-9.19-13.84-1.82,3-.58,6.17-1.07,9-.23.95-.85,1.18-1.47.36a9.58,9.58,0,0,1-.9-2.11,12.33,12.33,0,0,1-4.29-5.63s-.38-.1-.4.12a4.39,4.39,0,0,1-.82.9c-1.3,1.54-3.23,1.44-4.84,2-.65.19-1.28.34-1.92.5-4.27,2.1-3.81,6-3.39,9.79,1.37.69,3.17-.07,4.25,1.55-2.21,5.48-8.09,8.38-10.4,14.53,7.06.29,12.42-4.44,18.83-4.22a12.52,12.52,0,0,1,6.1,4.16c.17-3.4-.31-6.16-.2-8.91,5-.44,6.16,4.67,9.4,6.64,2,1.31,3.13,4.81,6.07,3.48s1-4.13,1.55-6.27a25.91,25.91,0,0,1,1.76-3.44l2.24,12.53c1.29.67,1.35,2.83,3.27,2.61,1.07-.4.83-1.22.67-2.08.11-3.12,1.14-6-.47-9,3-1.47,5-2.56,2.71-6.87-1.71-3.19,1.1-1.9,2.53-.82,3.14,1.34,4.1-5,7.64-2.22a54.5,54.5,0,0,1,7.43,19.84,16.12,16.12,0,0,0,4.84,6c3.53,3.45,4.77,7.26,1.72,11.68-1.54,1.92-4,1.65-5.91,2.76a6.36,6.36,0,0,1-1.15,1.33c-4.07,2.43-5.12,8-10.06,9.56-6.07-1.84-8.11,1.72-9,6.8-1.84,3.39-5.31,2.47-8.15,2.87-9.24,1.29-18.49,2.5-27.86,2.9a6.35,6.35,0,0,1-5.82-2c-.69-1.68-.62-4.79-3-4.13s-1.3,3.21-.42,5c1.75,2.86-.2,3.1-2.13,2.63-3-.53-6-1.2-8.45,1.25-3-.73-5.87-1.76-8.13,1.15-18.75,2.37-37.3,6.24-56.27,6.58-3-3.9-7.26-1.23-10.85-2-4.5-1.58-10-1-12.86-6.17-.06-4.24,3.44-5.24,6.26-6.84,1.65-.16,3.27-.46,3.75-2.42a6.45,6.45,0,0,0-.4-5.93c.51-3.47-3.41-5.6-2.86-9.09l1.58-1.66c1.3-.31,2.67-.6,2.4-2.56l5.23-3.85c2.28.88,3-1,4.07-2.15,2.28-4,6.82-5.41,10.06-8.33A13.36,13.36,0,0,0,387.06,213.1Z" transform="translate(0 -9.46)" fill="#acacac"/><path d="M260,153c-3.18.12-3.3-2.61-4-4.65-2.43-7.15-4.78-14.36-7.29-21.57,4.49-6.42,4.49-14.24,6.55-21.43.36-3.76,3.42-4.55,6.19-5.66,3.39-2.5,7.3-4,10.7-6.57a59.72,59.72,0,0,1,4.5-4.06,11.54,11.54,0,0,0,1.91-8.61A18.18,18.18,0,0,0,259.84,68,6.13,6.13,0,0,0,254,72.07c-1.72,5-4.79,5.47-8.73,2.26a16.1,16.1,0,0,0-9.07-6.93c-3.14-1.6-7.12-1.57-9.28-4.94l-1.88-5.16c-1.15-4,2-7,2.61-10.55-5.37-7.64-.64-13.53,3-19.73,1.81-3.12,2.55-.61,3.62.54,3,3.89,7.9,4.92,11.3,8.15a4.52,4.52,0,0,0,5.95,2.34l.05,0a4.41,4.41,0,0,0,1.59-1.18A18.27,18.27,0,0,0,259.65,29a23.34,23.34,0,0,1,10.71-13.1,26.53,26.53,0,0,1,3.65-2,16.87,16.87,0,0,1,19.35-1.58c9.09,2.78,10.7,7,6.31,16.32a103.52,103.52,0,0,0-16.46,10c-3.1,2.7-4.57,5.74-2.21,9.7.41,4,2.11,5.63,6.51,5.3a33.36,33.36,0,0,1,12.15.72c5.78,1,11.66.8,17.33,3.27,3.75,1.65,7.32,2.66,7.65,7.31s-3.11,6-6.87,6.76a11.72,11.72,0,0,0-3.56,1.67,5.58,5.58,0,0,1-2.3.51c-5.9-1.65-9.24.87-10.08,7,4.21,6.43,8.94,11.67,17.8,9a5.6,5.6,0,0,1,6.68,2.43c2.42,3.75-.72,6.13-2.69,8.61-1.62,2-3.34,3.71-6.16,3.49A24.46,24.46,0,0,0,305,102.59c-6.59,4-6.81,5.38-1.39,9.72a15,15,0,0,1,2.2.92c5,1.86,10.82,2.67,11.67,9.59.5,4-.16,6.77-5.11,6-3.26,1.34-6.12-.72-9.25-.83-3.85,2.83-8.36.78-12.54,1.35a11.22,11.22,0,0,0-13.41.32c-1.8,2.42-.57,4.46.85,6.51a10.9,10.9,0,0,0,5.66,7.71c.81,1.08,1,2.52,2,3.64,3.69,2.8,7.38,5.6,5,11.14-3.62,6.23-9.2,1.66-13.81,2.58a53.12,53.12,0,0,0-5.58-3C266.92,157.9,263.75,154.63,260,153Z" transform="translate(0 -9.46)" fill="#353535"/><path d="M321.88,167.36c-2,4.78.08,10.9-5,14.55a7.28,7.28,0,0,0-2.45-1.43,8.12,8.12,0,0,1,2.47,1.34c-3.28,3.48,3.17,7.59-.77,11-2.29,1-3.46,2.29-1,4.13l.06,3.6c-1.67,3.31-3.44,6.53-7.78,6.72a3.79,3.79,0,0,0-3,2.1,6.11,6.11,0,0,1,2.76-1.49,6.76,6.76,0,0,1,6.43,4.74l-2,8c-5.73,3-3,6.8-.91,10.47l-1.33,4.83c-4.24,2.11-6-5.7-10.46-2.58-3.13,1.06-4.87-1.2-6.78-2.93-.87-2-1.31-4.14-2.36-6-1.39-2.9-2.81-1.39-4.36-.07a2.39,2.39,0,0,1-2.93,0,48.16,48.16,0,0,0-3.62-9.34c-3.72-6.15-1.79-13,1.33-19.44-2.85-2.12-4.22,1.51-6.59,1.15-1.16-2.72,3.13-3,2.57-5.68-4-1-10.72-1.16-3.52-7.61-5.38-2.72-.88-11.73-8.36-13.13,2.32-4.92,5.61-5.34,10.17-2.88,3.65,1.94,5.54,6,10,7.49a51,51,0,0,0,4-9.39c1.12-2.63,2.39-5.34,6.14-3.56.35.37.86,1.12,1,1,6-2.51,4.64,3.54,6.25,6,3.73-1.42,2.29-5.18,4.13-7.15,4.53,5.41,5.28,5.18,8.47-2.64a1.7,1.7,0,0,1,1.93,0c1.54,1.2.84,3.37,1.78,4.7A26.77,26.77,0,0,1,321.88,167.36Z" transform="translate(0 -9.46)" fill="#acacac"/><path d="M312.54,70.78A5.65,5.65,0,0,1,317,68.41c2.22-.18,5.16-.43,5-3.59s-2.9-3.17-5-4.07c-6-2.49-12.47-2.48-18.74-3.4-1-2.89-.82-6.51-6.05-3.83-6.16,3.09-11.26-1-16.19-4.31-3.19-6.24-.06-10.1,5-13.24a15.3,15.3,0,0,0,15.48-8.79c4.41-6.1,1.4-10.78-2.94-15.16,6.64-5.84,12-.2,17.4,2.3,4.89,2.16,3.35,7.14,2.86,10.89s-2.08,8.45-2.82,12.74c-1.66,8.51,3.53,15.06,11.91,14.57a6.38,6.38,0,0,1,7.25,5.26c1.39,4.57,6.22,9,1,14-3,2.8-6.25,5.27-9.38,7.87C316,79.51,313.83,75.39,312.54,70.78Z" transform="translate(0 -9.46)" fill="#c6c6c6"/><path d="M348.16,261.44c4.27,1.88,10-.33,13.11,4.75,1.78,1.48,1.15,3.13.31,4.78-6.51,3.22-13.8,2.11-20.58,3.9a3.51,3.51,0,0,1-4.45-2.19v0a3.92,3.92,0,0,1-.18-.56c-.65-1.93-1.34-3.87-2-5.77-4.63-13.06-4.57-13.17,8.06-19.23,8.84-2.61,15.33.1,18.4,7.7a3.51,3.51,0,0,1-2.95,4h-.05a3.43,3.43,0,0,1-1,0C354.36,260.66,350,257.18,348.16,261.44Z" transform="translate(0 -9.46)" fill="#383838"/><path d="M317.74,100.82l5.15-2.07a2.27,2.27,0,0,1,3.12.73v.05c-1.87,5.12.82,9.44,2.22,14.11.75,2.7,1.33,5.59-3.3,3.94-1.77-.63-3.93-2.61-5,.59-.76,2.34,1.19,3.61,2.85,4.93,6.32,5.09,7,10.14,2.79,16.05-2.58,3.55-4.73,3.46-6.87-.25l-6.11-10.65c4.84-3.88,4-7.12-1.19-9.75-2.8-1.42-5.42-2.7-8.14-4.06C304.5,106.16,310,102.32,317.74,100.82Z" transform="translate(0 -9.46)" fill="#c6c6c6"/><path d="M216.09,228.69c6.82,3.42,13.62,6.89,20.45,10.28,3.82,1.89,4.66,5.88,6.69,9,5.32,0,5.25,4.29,5.88,7.76A4.3,4.3,0,0,1,246,259c-4.06,1.74-7.18,6.08-12.44,4.65a9.52,9.52,0,0,1-3.24-.8,5.6,5.6,0,0,1-1.52-1.51,5.78,5.78,0,0,0-4.91-4.64c-2.38-1.35-5.3-2.16-5.38-5.68-.1-4-3.49-5.25-6.08-7.18a5.65,5.65,0,0,1-1.24-4.28,16.16,16.16,0,0,1,.92-5.64C213.23,232,213.36,229.33,216.09,228.69Z" transform="translate(0 -9.46)" fill="#aeaeae"/><path d="M294.86,161.83c-2.36,5.73-9,10.87-1.31,18.09-6.94-.76-13.57-.19-18.32-6.88-2.36-3.2-6.05-5.88-10.67-2.89A32,32,0,0,1,260.07,153a14.69,14.69,0,0,1,11.37,1.45c.88,3.84,2.95,3.88,5.71,1.79,4.64.48,9,3.73,13.91,1.6A4.27,4.27,0,0,1,294.86,161.83Z" transform="translate(0 -9.46)" fill="#c6c6c6"/><path d="M208.92,275.76c-1.55-.63-3.32,1.8-4.74-.35-3.58-3.75-7.27.07-10.92-.2l-6.17.59a4.86,4.86,0,0,1-4.55-5.07,68.86,68.86,0,0,0-3-11.1,5.33,5.33,0,0,1,1.17-3.34c3.63-2.82,7.42-.28,11,.06a19.92,19.92,0,0,0,13.83-2.9,7.81,7.81,0,0,1,10.91.9,5.56,5.56,0,0,1,.77,5C213.36,264.35,214.87,272,208.92,275.76Z" transform="translate(0 -9.46)" fill="#373737"/><path d="M326,99.59l-3.15-.78c3.47-3.72,3.72-6.24-2.35-6.45a34.63,34.63,0,0,1-15.16-2.59,12.24,12.24,0,0,1-7.58-9.94,70.37,70.37,0,0,1,13-9.23l1.67.26c5.19.68,7.19,4.71,9.12,8.78-1.64,3.44-5.4,4.53-9.39,8A15.27,15.27,0,0,0,323.88,83c2.6-2.22,5.44-3.48,5.25,1.61s4,2.78,6,4.63A42.24,42.24,0,0,1,326,99.59Z" transform="translate(0 -9.46)" fill="#c6c6c6"/><path d="M246.79,72.1c1.6.39,2.72,3.13,4.79-.14,6.62-10.48,13.08-11.34,22.64-3.46a17.74,17.74,0,0,1,7.6,11.9,7.49,7.49,0,0,1-9.64,3.14,5.08,5.08,0,0,1-1.91-1.33c-2-4-3.56-5.38-6.57-.33-2.05,3.44-4.7,7.8-10.35,5.77-1.53-1.45-.87-3.36-1.25-4.88-.85,1.25,2.09,5.06-2.6,4.25l-10.81-13.8C240.69,67.84,244,72,246.79,72.1Z" transform="translate(0 -9.46)" fill="#c6c6c6"/><path d="M341.05,342.36l-2.89,4.3c-5.15-11.83-14-22.12-14.82-35.75,3.33-.73,6-3.35,9.59-3.34,4.32.78,8.17,2,8.29,7.53.14,2,1.67,3,3,4.08a5.07,5.07,0,0,1,.88,2,25.7,25.7,0,0,0-.54,9.33C343.65,334.4,345.1,339.1,341.05,342.36Z" transform="translate(0 -9.46)" fill="#a8a8a8"/><path d="M249.53,87.1l3.19-10.63,1.57,10.26c4.62,2.74,6.68-1.51,8.64-3.83,2.74-3.17,5.06-5.06,8.65-1.46h0c3.41,2.54,7.77,4.41,7.29,9.84a6.46,6.46,0,0,1-3.79,3.86c-4.15,1.72-11-1.17-11.51,6.62-1.91,1.86-5.25,1.85-6.5,4.51a3.08,3.08,0,0,1-3.9-1C247,100.26,246.7,94,249.53,87.1Z" transform="translate(0 -9.46)" fill="#c6c6c6"/><path d="M338.41,316.27a6.71,6.71,0,0,0-5.38-5.9c-.64-3.82,5.35-8.14-1.13-11.54a5.62,5.62,0,0,1-1.57-4c1.14-.54,2.57-1.86,3.34-1.54,10.06,4.09,17.61,11.94,26.27,18.15.35.09-.57,2.29-.87,3.51l-.31,1.24c-.55,2.26-.32,5.28-4.05,3.64l-1.95-1.73c-1.73-.42-3.54.64-5.22-.34C344.52,316.1,341,319,338.41,316.27Z" transform="translate(0 -9.46)" fill="#a9a9a9"/><path d="M280.41,322.35l-2.78.89c-3.25-1.75-5.13-6.28-9.91-4.9a34.78,34.78,0,0,1-6.69,0c-2.29-.57-5.34-.88-3.7-4.7l12.79-12.54c7.58-1.82,11.11,4.16,15.65,8.15a4.43,4.43,0,0,1,.81,2.19C284.86,315.19,280.91,317.78,280.41,322.35Z" transform="translate(0 -9.46)" fill="#3a3a3a"/><path d="M285.93,146.67l-3-1.82c-1.36-4.56-6-4.93-9.19-7.22-2.24-3.7-2.58-7.54,1-10.84,5.86,2.42,10.89-1.6,16.32-2.28l12.14,2.84,1.22,9c-.48.14-1.11.52-1.31.34C293.67,129.1,289.89,131.25,285.93,146.67Z" transform="translate(0 -9.46)" fill="#c6c6c6"/><path d="M274.13,13.69l-2.45,2.55A12.79,12.79,0,0,1,266,18c-4.3.55-5.9,2.83-6.19,7.18-.67,9.61-7.2,14.49-17.31,13.54a22.7,22.7,0,0,1-8.15-11.48c5.11,1.26,10.12-1.13,15.2-.26,2.63.46,3-1.13,3-3.14a32.66,32.66,0,0,0-.42-6.09c-1.7-7.55,1.78-8.36,7.89-6.41A43.26,43.26,0,0,0,274.13,13.69Z" transform="translate(0 -9.46)" fill="#cacaca"/><path d="M233.78,261.63a33.76,33.76,0,0,1,10.11-5c6.6,2.52,7.16,9.31,9.72,14.41,1.11,2.14-.49,3.76-2.83,4.32H236.6C231.72,271.52,231.25,266.9,233.78,261.63Z" transform="translate(0 -9.46)" fill="#383838"/><path d="M253.1,105.43l3.89,1a5.3,5.3,0,0,0,.08,2.26c5.11,9.68-.68,14.36-8.31,18.19-.69-1.91-1.42-3.82-2.08-5.75C242.67,109.35,242.67,109.35,253.1,105.43Z" transform="translate(0 -9.46)" fill="#c4c4c4"/><path d="M172.56,230.66a14.24,14.24,0,0,1,.5-8,1.71,1.71,0,0,1,.19-2.41,1.66,1.66,0,0,1,.48-.29c4.66-2.92,10.22-3.09,15.23-4.35l2.18,5.08a10.83,10.83,0,0,1,1.08,3.41,7.68,7.68,0,0,1-2.57,5.3,15.33,15.33,0,0,1-5,3.31C180.13,235,175.55,237.45,172.56,230.66Z" transform="translate(0 -9.46)" fill="#363636"/><path d="M231.56,275.23l-14.06.13c-5.55-.11-5.06-4-4.21-7.35a41.85,41.85,0,0,1,3.78-9.19c2.22-2.6,5-1.91,7.83-1.56a7.26,7.26,0,0,1,5.69,3.39l-.24.32C232.67,265.51,235.36,270.1,231.56,275.23Z" transform="translate(0 -9.46)" fill="#424242"/><path d="M253.47,252.26c7.79-2.55,10.27-.61,8.57,7.16l-2.93,11.89c-.61,2.47-1.64,4.45-4.79,3-2.35-6.07-5.59-11.85-5.69-18.59C248.77,252.65,251.47,253,253.47,252.26Z" transform="translate(0 -9.46)" fill="#414141"/><path d="M333,297.34c4,1.31,9.57,2.11,10.16,6.48.51,3.82-5.79,2.89-8.17,5.49a7.33,7.33,0,0,1-2,1.09c-3,4.27-6.25,4-9.57.44a7.48,7.48,0,0,1-.12-1.17c-1.77-6.74,4.19-8.42,7.52-11.7A5.33,5.33,0,0,1,333,297.34Z" transform="translate(0 -9.46)" fill="#393939"/><path d="M216.08,234.62l-2.57,4.5a4.45,4.45,0,0,1-5.07,1.53c-2.77-5.39-6.67-8.49-13.16-6.72a3.24,3.24,0,0,1-3.3-1.32,4.51,4.51,0,0,1-.62-2.23,6.8,6.8,0,0,1,6.61-5.94c5.32-5.59,9.36.39,14.15,1.44A20.87,20.87,0,0,0,216.08,234.62Z" transform="translate(0 -9.46)" fill="#a1a1a1"/><path d="M360.82,254.73A92.22,92.22,0,0,0,342.41,247a12.81,12.81,0,0,1,7.55-6.18c5.41-1.35,8.85,2.47,12.94,4.8Z" transform="translate(0 -9.46)" fill="#454545"/><path d="M466.71,201.19a67.18,67.18,0,0,1,8.47,14.7c-7.38-.22-15.74,1.85-14.4-9.86Z" transform="translate(0 -9.46)" fill="#f6f6f6"/><path d="M452.36,195.66c-2,1.44-3.88,2.92-5.92,4.31-.88.63-1.9,2.18-2.92.73-.53-.79,0-2.33.08-3.54a20.31,20.31,0,0,1,8.76-15.44h0c8,2.68,8.06,3,3.57,11.09Z" transform="translate(0 -9.46)" fill="#fbfbfb"/><path d="M298.41,231.41a35.74,35.74,0,0,1-.82-3.83c-.19-1.4-1.14-3.18.68-4s2.74.67,3.62,2c2.62,3.42,5.17,6.89,7.72,10.36-2.27,5-6.25,2.59-9.77,2.26C296.68,236.5,298.26,233.8,298.41,231.41Z" transform="translate(0 -9.46)" fill="#4c4c4c"/><path d="M446.36,258.29c-5.65-4.3-6-8.77-1-14,2.49-2.54,3.71-1.35,4.1,1,.67,4,2.29,8,.4,12C448.48,256.88,447.12,256.39,446.36,258.29Z" transform="translate(0 -9.46)" fill="#c7c7c7"/><path d="M313.79,212.66a10.72,10.72,0,0,1-6.79-3.15,3.06,3.06,0,0,1-1-4.2,3.75,3.75,0,0,1,.38-.51l9-4.08A27.39,27.39,0,0,1,313.79,212.66Z" transform="translate(0 -9.46)" fill="#5a5a5a"/><path d="M321.88,167.36c-2.69.41-6.14,3.41-7.05-2.11,3.07-1.45,4-3.31,1.07-5.86l-1.16-.28-.39-7.35C324.63,156.32,324.81,156.64,321.88,167.36Z" transform="translate(0 -9.46)" fill="#c7c7c7"/><path d="M218.49,260c-.2,5.16-6.41,9.9-1,15.52-2.82,1.45-5.75-.19-8.58.41l6.31-17.14a2.2,2.2,0,0,1,3,.71A2,2,0,0,1,218.49,260Z" transform="translate(0 -9.46)" fill="#9b9b9b"/><path d="M249.36,255.92a52.17,52.17,0,0,1,4.9,18.49,3.59,3.59,0,0,1-3.38.9c1.33-7.56-4.3-12.6-6.88-18.73l3.83-1.1a1.13,1.13,0,0,1,1.21,0C249.3,255.64,249.41,255.8,249.36,255.92Z" transform="translate(0 -9.46)" fill="#8e8e8e"/><path d="M298.41,231.41a11.41,11.41,0,0,1,1.47,6.83c-3,1.68-6.54.94-9.67,1.62s-2.84-1.27-2.81-3.19a6.34,6.34,0,0,1,2.64-4.2c1.54-1.13,1.63-3.92,4.28-3.8C295.62,229.68,296.11,231.89,298.41,231.41Z" transform="translate(0 -9.46)" fill="#646464"/><path d="M181.52,259.64c5,4.38,1,11.75,5.47,16.17l-7.8.18.71-4c-1-3.06.55-6.32-1.1-9.47C177.87,260.78,179,259,181.52,259.64Z" transform="translate(0 -9.46)" fill="#a5a5a5"/><path d="M179.68,208.48a7.12,7.12,0,0,1-5.32,2.44c-2.53.38-5.61.76-7-1.42s1.27-4.39,2.72-6.3Z" transform="translate(0 -9.46)" fill="#444"/><path d="M286.6,311.33a9.58,9.58,0,0,1-1.28-.32c-2.86-3.6-7-5.85-10.14-9.12-1.16-1.2-3.84-2.33-.84-4.4,3.94,2.33,7.81,4.77,11.81,7S289.92,308.84,286.6,311.33Z" transform="translate(0 -9.46)" fill="#484848"/><path d="M310.94,231.1a5.16,5.16,0,0,1-4-3.19c-1.2-2.41-4.3-4.91-2.78-7.37,1.81-3,5,.2,7.67.1Z" transform="translate(0 -9.46)" fill="#414141"/><path d="M361.55,271c-1.4-1.51-.34-3.24-.31-4.77,5.69-2.86,9.31-1.43,10.1,3.94Z" transform="translate(0 -9.46)" fill="#f8f8f8"/><path d="M227,62.31c3.55,1.07,7.64-.32,10.77,2.47.4,2.21,3.14,4.53-.32,6.54C233.18,69.23,227.41,68.85,227,62.31Z" transform="translate(0 -9.46)" fill="#c1c1c1"/><path d="M231.56,275.23l-1.2-14.34,3.36.82,2.93,13.69Z" transform="translate(0 -9.46)" fill="#9e9e9e"/><path d="M315.36,197a16,16,0,0,1-4.46.57,3.64,3.64,0,0,1-3.59-3.69h0a3.49,3.49,0,0,1,.24-1.27c.87-3.5,3-2.74,5.32-1.62,1.15.57,2.25,1.22,3.4,1.82Z" transform="translate(0 -9.46)" fill="#7e7e7e"/><path d="M427.63,263.56c1.14-3.47.12-7.51,2.75-11.15l5.48,9.9A12.56,12.56,0,0,1,427.63,263.56Z" transform="translate(0 -9.46)" fill="#c7c7c7"/><path d="M249.36,255.92l-1.66-.41-4.46-7.41c1.1-3.2,2.63-4.52,5.05-1a11.6,11.6,0,0,0,5.22,5.3Z" transform="translate(0 -9.46)" fill="#b9b9b9"/><path d="M237.43,71.32c.53-2.14-1.68-4.45.32-6.54a17.54,17.54,0,0,1,9,7.34l-8.14,1.14Z" transform="translate(0 -9.46)" fill="#f5f5f5"/><path d="M362.9,245.66a40.84,40.84,0,0,1-12.94-4.8c.8-2.08,3.16-1.93,4.54-3.17C356.92,240.78,361.74,241.3,362.9,245.66Z" transform="translate(0 -9.46)" fill="#383838"/><path d="M333,297.34l-.3,1.19c-4.12,2.14-6.54,7.85-12.55,6.52,1.59-5.16,6.4-7.12,10-10.13Z" transform="translate(0 -9.46)" fill="#474747"/><path d="M320.2,305.1l12.55-6.52c-2.19,4.53-7.83,6.2-9.54,11.08C320.2,309.47,319.74,307.59,320.2,305.1Z" transform="translate(0 -9.46)" fill="#868686"/><path d="M198,224.42l-4.71,6.31c-1.08.83-1.08,3.23-3.18,2.55-1.43-.35-1.42-1.89-1.32-3.22.18-2,2.26-3.51,1.58-5.76l.91-3.69Z" transform="translate(0 -9.46)" fill="#434343"/><path d="M456,192.8c1.62-4.62,1.07-8.54-3.56-11.1l5.25-1.86a2.17,2.17,0,0,1,.72-3l0,0,.23-.11,1.19.29c2.63,3.8,1.74,7.52.54,11.36Z" transform="translate(0 -9.46)" fill="#cbcbcb"/><path d="M193.26,275.21c2.42-1.26,4.8-2.6,7.23-3.77,1.29-.62,2.84-2,4.09-.85s-.32,3.08-.43,4.82A26,26,0,0,1,193.26,275.21Z" transform="translate(0 -9.46)" fill="#a7a7a7"/><path d="M282.69,224.32l2-.74a4,4,0,0,1,5.66-.12l.05.05a4.48,4.48,0,0,1,.36.4,6.13,6.13,0,0,1,.6,5.19c-2.75,4.09-5.46,4.08-8.12-.08Z" transform="translate(0 -9.46)" fill="#424242"/><path d="M274.36,297.53c-.05,4,3.7,5.07,5.95,7.2s4.61,3.19,5,6.31c-5.77-2.15-8.9-8.5-15.2-10A7.48,7.48,0,0,1,274.36,297.53Z" transform="translate(0 -9.46)" fill="#9b9b9b"/><path d="M367.74,227.46a5.84,5.84,0,0,1,.46,1.47c.07,2.51,5.22,5.17,1.44,6.92-3.07,1.35-5.81-2-5.88-6.06Z" transform="translate(0 -9.46)" fill="#4a4a4a"/><path d="M460.36,188.48l-.58-11.38c5.14,1.43,2.53,6.24,4,9.25Z" transform="translate(0 -9.46)" fill="#ececec"/><path d="M227.67,46.59c2.1,4.27-.84,7.26-2.6,10.55C223.68,53.1,220.15,48.45,227.67,46.59Z" transform="translate(0 -9.46)" fill="#c6c6c6"/><path d="M216.08,234.62c-3.57-1.89-8-3.45-3.93-8.76l3.94,2.83Z" transform="translate(0 -9.46)" fill="#424242"/><path d="M358.44,233.59c3.49.42,4.95,3,6.76,6.46a13.06,13.06,0,0,1-9.13-4Z" transform="translate(0 -9.46)" fill="#474747"/><path d="M283.17,229a5,5,0,0,0,6.06.23c2.48,1.09,3,3.32,3.34,5.65l-5.21,1.86A14.7,14.7,0,0,1,283.17,229Z" transform="translate(0 -9.46)" fill="#a3a3a3"/><path d="M387.06,213.1c-.41,4.47-4.27,5.94-7.3,8-1.55,1-2-.5-2-1.94Z" transform="translate(0 -9.46)" fill="#505050"/><path d="M208.63,239.49l4.91-.36.76,3.34c5.81,6.48,5.78,8.77-.07,13a27.47,27.47,0,0,0-6.07.45c-8.62,2.48-17.07,8-26,1a9.27,9.27,0,0,1-3.82,1c-2.7-.19-5.45-.27-6.67-3.38l-1.07-2.19a7.94,7.94,0,0,1-.82-7.26,6.86,6.86,0,0,1,9-2.47,22.06,22.06,0,0,0,13.35,10.51c-2.51-2.6-4-6.09-1.27-7.62,4.78-2.48,2.9-6.26,3.43-9.66a4.71,4.71,0,0,1,2-1.68A11.32,11.32,0,0,1,208.63,239.49Z" transform="translate(0 -9.46)" fill="#a8a8a8"/><path d="M178.84,244.94,170.36,246c-3.21-1-1.92-2.81-.74-4.53,4.77-2.58.8-7.56,3-10.84a11.12,11.12,0,0,0,11.33-.53c2.31,1.9.91,5.27,2.9,7.31.71,2.48,2.51,4.88.65,7.57a5.38,5.38,0,0,1-7.52,1.13h0A5.45,5.45,0,0,1,178.84,244.94Z" transform="translate(0 -9.46)" fill="#9e9e9e"/><path d="M171.6,254.6l7.29,1.8a8.69,8.69,0,0,1-1.61,7.55C169.36,258.74,169.18,258.55,171.6,254.6Z" transform="translate(0 -9.46)" fill="#3e3e3e"/><path d="M170.78,268.15c-.8,1.85-2.21,3.11-3.7,2.24a9.19,9.19,0,0,1-4.23-8.42c.06-1,1.47-2,2.27-1.27C167.55,262.75,170.41,264.68,170.78,268.15Z" transform="translate(0 -9.46)" fill="#383838"/><path d="M173.73,219.91l-.66,2.7c-2.62.9-3.34,6-7.48,3.49-1.29-.79-1.25-2.11-.58-3.3C167.06,219,170.26,219.1,173.73,219.91Z" transform="translate(0 -9.46)" fill="#464646"/><path d="M169.61,241.5l.74,4.53.22,6.36c-1.56.06-3.81-.12-3.49-1.8.71-4-1.71-6.51-4.12-8.87C165.55,239.1,167.53,241.87,169.61,241.5Z" transform="translate(0 -9.46)" fill="#cecece"/><path d="M102.77,236c-.59-6.45,3.39-8.62,4.74-11.82.51-1.16,1.72-2.09,3-.87a2.2,2.2,0,0,1,.23,3.1h0l-.26.25C107.36,228.51,106.16,231.92,102.77,236Z" transform="translate(0 -9.46)" fill="#dcdcdc"/><path d="M124.53,257.1c-1.75-1.85-4.2-4.19-.53-5.9,4.81-2,4.75,2.62,5.78,5.46C128.36,260.41,126.6,260.65,124.53,257.1Z" transform="translate(0 -9.46)" fill="#f7f7f7"/><path d="M124.53,257.1a4.1,4.1,0,0,0,5.22-.44c1.37,2.48,3.26,5.82-.86,6.56C125.73,263.81,123.56,261,124.53,257.1Z" transform="translate(0 -9.46)" fill="#c3c3c3"/><path d="M177.3,263.86l1.61-7.55,3.19.6-.66,2.7c-2.69,3.85.77,8.49-1.6,12.22C176.36,270.2,179.64,266.1,177.3,263.86Z" transform="translate(0 -9.46)" fill="#5f5f5f"/><path d="M152.15,197.1c1.31.33,2.58.92,1.8,2.53s-1.87,3.26-3.92,3.13c-1.52-.09-1.69-1.58-1.55-2.91a2.78,2.78,0,0,1,2.67-2.89h0A2.82,2.82,0,0,1,152.15,197.1Z" transform="translate(0 -9.46)" fill="#3f3f3f"/><path d="M453.76,229.74c-4.49-5.17-2.45-9.49,2.53-12.17s9.29.71,12.8,3.72c2.32,2,1.36,4.72-1.32,6.26s-4.9,2.58-7.27,3.89a4,4,0,0,1-5.62.16A3.93,3.93,0,0,1,453.76,229.74Z" transform="translate(0 -9.46)" fill="#f7f7f7"/><path d="M395.36,237.75c2.63-1.84,3-8.72,8.62-3.77l2.4-3a5.51,5.51,0,0,1,7.45-1.31c3.9,2.6.45,7.52,3.29,10.46-1.1,4.46-4.2,5.65-8,3.79-2.34-1.14-4-2.17-5.58.61-1.36,3.36-3.94,3.19-6.23,1.62C394.56,244.1,392.46,241.38,395.36,237.75Z" transform="translate(0 -9.46)" fill="#535353"/><path d="M453.76,229.74l6.66,1.65,2,.7a18.49,18.49,0,0,0,7.1,9.57l4.09-5.1c2.23,7.86-6.44,9.1-7,15.61-4.77-6.25-11.74-8.92-14.8-15.67C450.22,233.47,448.92,230.72,453.76,229.74Z" transform="translate(0 -9.46)" fill="#c3c3c3"/><path d="M389,225.3c1.55-4.85,2.47-10,8.42-8.57,4.67,1.15,3.37,5.52,2.61,9a9.2,9.2,0,0,1-9.51,7.12C386,232.32,389.26,227.54,389,225.3Z" transform="translate(0 -9.46)" fill="#393939"/><path d="M395.36,237.75c1.5,3.75,2.41,8.23,8.21,6.85,1.72,1.34,3.23,3.13,1.87,5.19-1.81,2.71-4.76,1.26-7.1.9-3.31-.5-7.56-4.61-8,2.89a2.48,2.48,0,0,1-1.8,1,1.68,1.68,0,0,1-1.31-1.36c.42-1.7.32-4.24,1.43-5C392.47,245.55,388.36,238,395.36,237.75Z" transform="translate(0 -9.46)" fill="#8f8f8f"/><path d="M469.46,241.63c-5.43,3.23-7.27-.44-9.75-4.43s1-3.92,2.66-5.17C470.77,231.61,470.77,231.61,469.46,241.63Z" transform="translate(0 -9.46)" fill="#f7f7f7"/><path d="M417.17,240.17c-8.28.19-5.08-5-4.34-9.12-1.57-2-2.57-3.78,0-5.87l.78-2.11c2.65,2,6,3.72,6,7.78Z" transform="translate(0 -9.46)" fill="#a0a0a0"/><path d="M452.36,181.68c-.56,6.48-6.4,10-8.73,15.44-1.76-5.67,5-10.27,1.16-15.83C448,180.1,450.1,181.45,452.36,181.68Z" transform="translate(0 -9.46)" fill="#cbcbcb"/><path d="M385.77,222.64a5.47,5.47,0,0,1-1.24,5c-1.32,2-1.6,5.06-4.52,5.54-1.08.15-1.65-1-1.6-2.09.11-3.13-.36-6.18,3.39-7.59C383,222.89,384.22,222,385.77,222.64Z" transform="translate(0 -9.46)" fill="#3d3d3d"/><path d="M412.79,225.18V231a4.9,4.9,0,0,1-6.3,0C405.89,226.19,407.13,223.1,412.79,225.18Z" transform="translate(0 -9.46)" fill="#484848"/><path d="M366.29,245c.39,3.79,5,4.4,2.24,7.81-.8.93-2.21,2.19-3.28,1.27C362.45,251.57,364.1,249,366.29,245Z" transform="translate(0 -9.46)" fill="#d9d9d9"/><path d="M348.16,261.44a9.15,9.15,0,0,1-7.23-.87,27.16,27.16,0,0,1,15.94-1.83C354.36,261,350.93,260.1,348.16,261.44Z" transform="translate(0 -9.46)" fill="#8e8e8e"/><path d="M419.55,230.91l-6-7.78c6.27.16,7.23,5.6,9.77,9.76Z" transform="translate(0 -9.46)" fill="#595959"/><path d="M458.61,176.77l-1,3.1c-5.29-3.08-2.07-6-.18-9.51C460.45,172.49,458.47,174.78,458.61,176.77Z" transform="translate(0 -9.46)" fill="#efefef"/><path d="M242.45,38.82a31.79,31.79,0,0,0,7.06-3c3.83-2.71,8.16-5.08,6.5-11.35-2.28-8.54.16-11,8.94-9.81,2.29.31,4.49,1.11,6.77,1.45-4.84,6.82-9.3,13.91-14.5,20.42C253.36,41.34,248.15,42.94,242.45,38.82Z" transform="translate(0 -9.46)" fill="#fcfcfc"/><path d="M276,49.1c3.21.79,6.45,1.59,9.57,2.64s5.06.43,6.23-2.37c1.86-4.49,3.68-8.14,9.26-3.7s1.3,6.87-1.26,9.87l-1.53,1.7c-5.5-.82-11.08-1.35-16.47-2.61A7.32,7.32,0,0,1,276,49.1Z" transform="translate(0 -9.46)" fill="#fafafa"/><path d="M301.85,114.1c-3.92-2.39-8.26-4.85-6.92-10.29C296,99.35,299.53,98,304,99c4.82,2.45,6.35,5.45,1.8,9.68C304.11,110.2,303.74,112.69,301.85,114.1Z" transform="translate(0 -9.46)" fill="#c4c4c4"/><path d="M296.42,27.1c-1.14,13.43-3.67,14.86-15.48,8.79C285.27,31.42,291,29.52,296.42,27.1Z" transform="translate(0 -9.46)" fill="#f7f7f7"/><path d="M301.85,114.1c.32-5.1,6.42-9.39,2.13-15.25a40.54,40.54,0,0,1,13.79,1.86c-4.69,4.71-10.43,8.28-14.5,13.67A2.34,2.34,0,0,1,301.85,114.1Z" transform="translate(0 -9.46)" fill="#f3f3f3"/><path d="M263.55,101.79a7.22,7.22,0,0,1,.12-10.21h0l.13-.13c4.42-3.45,7.3,2.75,11.28,3.64C272.16,98.87,267.62,100,263.55,101.79Z" transform="translate(0 -9.46)" fill="#f7f7f7"/><path d="M291.12,124.62a23.31,23.31,0,0,1-9.47,5.79,4.81,4.81,0,0,1-6.44-2.18,5,5,0,0,1-.45-1.47C279.75,122.28,285.41,123.36,291.12,124.62Z" transform="translate(0 -9.46)" fill="#f5f5f5"/><path d="M310.86,70.56c-2.3,5.89-5.71,10.38-13,9.22C298.9,72,303.61,69.53,310.86,70.56Z" transform="translate(0 -9.46)" fill="#f9f9f9"/><path d="M278.87,91.2a17,17,0,0,1-7.28-9.84l10.26-.94A10.87,10.87,0,0,1,278.87,91.2Z" transform="translate(0 -9.46)" fill="#f9f9f9"/><path d="M277,156.29c1.12,1.85,3.81,3.34,2,5.92a3.06,3.06,0,0,1-4.27.69h0a2.46,2.46,0,0,1-.48-.43c-2.3-2.08-6.13-3.78-3-8Z" transform="translate(0 -9.46)" fill="#fafafa"/><path d="M273.73,137.6c3.51,1.85,12.93-3.84,9.19,7.22A18.29,18.29,0,0,1,273.73,137.6Z" transform="translate(0 -9.46)" fill="#f1f1f1"/><path d="M274.29,322.73c-.83-1.87-1.8-2.77-3.33-.57A2.83,2.83,0,0,1,267.6,320v0a2.46,2.46,0,0,1-.05-.81l.24-2.91,2.75-6.54,7.09,13.54Z" transform="translate(0 -9.46)" fill="#9c9c9c"/><path d="M306.36,204.81l.67,4.7c-.69,2.8-1.66,5.43-5.32,5.47-1.84,0-4,3.28-5.25.69a5.51,5.51,0,0,1,2.71-6.9C302,207.93,303.56,205.31,306.36,204.81Z" transform="translate(0 -9.46)" fill="#ededed"/><path d="M290.36,225l-5.73-1.41c-1.05-2.91-1.68-7.51,1.35-7.55a7,7,0,0,1,6.62,7.36v.1a7.28,7.28,0,0,1-.1.8,1.42,1.42,0,0,1-2.13.7Z" transform="translate(0 -9.46)" fill="#c9c9c9"/><path d="M317,181.92a7.65,7.65,0,0,1-9.22-3.51c-1.76-3,.57-4.49,2.12-6.7.67,4.84,5.83,6.14,6.93,10.26Z" transform="translate(0 -9.46)" fill="#dbdbdb"/><path d="M290.36,225l2.14-.76,1.79,4.38c-.52,2.11.42,4.58-1.72,6.23-2.38-1.12-4-2.7-3.34-5.65Z" transform="translate(0 -9.46)" fill="#373737"/><path d="M315.91,159.33c2.52-2.53,4.19-1.64,4.17,1.51s-.45,6.57-5.23,4.35Z" transform="translate(0 -9.46)" fill="#fafafa"/><path d="M214.17,255.49a24.76,24.76,0,0,0,.07-13c3.39.84,7.1.72,7,6-.06,2.54,2,4.57,4.1,6.25,1.49,1.91,0,3.34-.71,4.93l-6.23.35-3.27-1.34Z" transform="translate(0 -9.46)" fill="#bebebe"/><path d="M224.7,259.6c-1.06-1.83-.18-3.38.71-4.93,4.58-.54,6.83.93,5.21,5.86Z" transform="translate(0 -9.46)" fill="#d5d5d5"/><path d="M271.61,81.4a15.27,15.27,0,0,0-8.43,4.76c-2.22,2.23-5.59,6.57-8.86.52,7-2.75,7.44-7.4,3-13.64a26,26,0,0,1,16,2.77C278.73,78.36,272.36,79.46,271.61,81.4Z" transform="translate(0 -9.46)" fill="#fcfcfc"/><path d="M187,243.33c-1.26-1.41-3.46-2.46-1.93-5-3.27-4.63,2.39-6.89,2.82-10.53l2.47-3.48a8.09,8.09,0,0,1,.32,5.25c-.35,3.07,1.4,1.73,2.85,1.21l-.17,2.32c1.13.79,2.23,1.56,2.13,3.14l-.3,1.19C193.13,240.59,192.72,245.56,187,243.33Z" transform="translate(0 -9.46)" fill="#939393"/><path d="M187.92,227.86c1.2,4.07-2.75,6.79-2.82,10.52-9.07-1.57-1.84-5.31-1.13-8.22Z" transform="translate(0 -9.46)" fill="#454545"/><path d="M195.29,236.3a3.87,3.87,0,0,1-2.12-3.14c3.47-1.29,4.47-7.54,9-5.38a10.53,10.53,0,0,1,6.56,11.74Z" transform="translate(0 -9.46)" fill="#393939"/><path d="M187,243.33c1.68-3.24,2.54-7.63,7.92-5.9,3.31,1.67,7.49,1.7,10,5.28-3.45,3.59-8.94,2.58-12.45,6,2.91,2.9,7.25.37,10,3-6.56,6.64-19.41,6.06-24.58-1.09-1.63-2.23.68-3.77,1-5.68Z" transform="translate(0 -9.46)" fill="#373737"/></g></g></g></g></svg>