<svg id="Layer_1" data-name="Layer 1" xmlns="http://www.w3.org/2000/svg" xmlns:xlink="http://www.w3.org/1999/xlink" viewBox="0 0 360 360"><defs><style>.cls-1{fill:none;}.cls-2{clip-path:url(#clip-path);}.cls-3{fill:#fff;}.cls-4{clip-path:url(#clip-path-2);}.cls-5{clip-path:url(#clip-path-3);}</style><clipPath id="clip-path"><polygon class="cls-1" points="-165.03 291.87 -212.48 293.9 -229.81 68.48 -172.91 65.98 -165.03 291.87"/></clipPath><clipPath id="clip-path-2"><polygon class="cls-1" points="211.23 270.56 171.68 307.86 151.48 68.25 217.55 68.25 211.23 270.56"/></clipPath><clipPath id="clip-path-3"><polygon class="cls-1" points="572.02 285.97 558.73 281.35 545.3 74.03 574.7 74.03 572.02 285.97"/></clipPath></defs><title>asterisk edge</title><g class="cls-2"><g id="Layer_1-2" data-name="Layer 1-2"><path d="M-165,291.87c3.24-3.15,6.4-6.49,9.75-9.47,5.69-5.45,11.49-10.8,17.17-16.28,2.14-2.08,3.91-4.51,6.06-6.59,6.41-6.29,13.1-12.28,19.32-18.77,8.89-9.35,17.45-19,26.11-28.64,6.83-7.56,13.78-15,20.27-22.88,3.92-4.73,6.87-10.35,10.64-15.2,4.2-5.52,8.89-10.67,13.13-16.17s8.34-11.33,12.43-17.09a14.75,14.75,0,0,0,1.66-3.58c1.29-3.68,3.53-4.38,6.82-2.23,4.49,2.94,8.94,5.89,13.51,8.62,1.84,1.11,4.28,1.42,5.94,2.76,4.7,4.09,8.15,9.5,14,12.41,1.07.51,1,4.11.79,6.22a31.15,31.15,0,0,1-2.09,6.74,5.13,5.13,0,0,1-1.27,2.06C2.41,180.09-4.39,186.4-11.3,192.57c-2.93,2.61-6.26,4.82-9.24,7.39-2.39,2-5.44,3.21-6.89,6.7-.92,2.05-3.92,3-5.54,4.87-4.29,4.9-8.27,10.1-12.56,15-3.12,3.58-6.68,6.84-10,10.48-1.7,1.93-2.84,4.37-4.46,6.4-4.92,6.2-9.85,12.37-15,18.4-4.52,5.29-9.34,10.32-13.92,15.56-5.26,6-10.06,12.46-15.54,18.22-7.72,8.1-16.07,15.64-23.85,23.7a121,121,0,0,0-8.85,11.23c-.72.94-1.29,2-1.92,2.93,1.23.22,2.45.49,3.66.68,13.85,2.07,27.65-.33,41.45-.76s27.26-1.69,40.9-2.3c12.75-.58,25.53-.92,38.29-1.14,8.31,0,16.5.16,24.71,0a63,63,0,0,0,7.76-1,22.37,22.37,0,0,0,6.72.67,51.19,51.19,0,0,1,12.84-.7,7.13,7.13,0,0,0,1.46,0c2.77-.58,5.51-1.32,8.32-1.73,6.1-.91,12.22-1.44,18.26-2.55,10.81-2,21.56-4.34,32.38-6.37a58.71,58.71,0,0,1,12.45-1.58A55.46,55.46,0,0,1,124.58,319a11,11,0,0,1,4.72,5.21c2.39,4.31,4.07,9.15,6.51,13.25,3.26,5.38,7.16,10.38,10.76,15.53,2.75,4,2,6.44-2.45,8.39a18.4,18.4,0,0,1-5.49,1.53c-2.94.13-3.24,1.44-2.86,3.93a24.09,24.09,0,0,1-.19,6.73c-.15,1.06-1.05,2-1.63,3a17.14,17.14,0,0,1-3.31-3.17c-.4-.91-.19-2.25-.29-4.29a65.83,65.83,0,0,1-6.87,3c-2,.61-4.51,1.6-6.09.84a25.2,25.2,0,0,0-13.78-1.18c-9.76.89-19.53,1.58-29.28,2.51-5.57.53-11.15,1.29-16.68,2-4.58.54-9.21.81-13.88,1.64-8.83,1.5-17.56,3.3-26.37,4.94-2.42.46-4.92,1.09-6.6-1.78a3.35,3.35,0,0,0-2.57-1.2Q-16.86,382.7-42,385.69c-11,1.24-22.08,2.27-33,4.25a405.37,405.37,0,0,1-46.68,4.36c-4.12.26-8.31,0-12.57.21.13,1,0,1.53.24,1.87C-130,401.94-126.4,407.63-122,413c9.16,11.09,18.07,22.44,28.15,32.64,10.59,10.71,18.53,23.41,28.48,34.55,8.58,9.63,17.34,19.15,25.88,28.69,4.63,5.25,9,10.61,13.57,15.67a12.73,12.73,0,0,1,2.68,9.77,3.32,3.32,0,0,1-1.28,1.88,116.1,116.1,0,0,0-12.31,9.7,172.58,172.58,0,0,0-12,15.08,3.86,3.86,0,0,1-5.35,1.15A3.77,3.77,0,0,1-55.36,561c-3.93-5.23-8-10.32-11.78-15.66-3.36-4.79-6.61-9.71-9.52-14.8-3.92-6.85-7.46-13.93-11.18-20.9-.23-.52-.79-1.29-1.09-1.23-4,.62-3.62-2.49-4.71-4.85A190.73,190.73,0,0,0-105.29,481c-10.38-16.22-21.3-32.11-32.26-48-3.81-5.62-7.95-11.09-11.88-16.65-3.22-4.55-6.37-9.18-9.72-13.68-.78-1.09-1.72-2.06-2.58-3.1l-1.25.56a21,21,0,0,0,1.35,3.78,9.75,9.75,0,0,1-.17,12.46,12,12,0,0,0-1.77,8.45c.69,9.78.55,19.66,1.07,29.48a11.15,11.15,0,0,0,2.37,6.25,15.65,15.65,0,0,1,4,10.05,13.9,13.9,0,0,0,2.79,6.28,44.39,44.39,0,0,1,8.66,19.5,8.67,8.67,0,0,1-5.72,8c-3.68,1.09-3.46,3-2.41,5.93a86.54,86.54,0,0,1,4.92,27.55A21.58,21.58,0,0,0-146,544.4,33.14,33.14,0,0,1-147,567a10.62,10.62,0,0,1-8.87,7.08c-2.7.42-3.33,1.47-2.54,4.15,1.86,6.49,3.59,13,4.95,19.39a17.09,17.09,0,0,1-.34,7.46q-2.35,9.18-5.41,18.18a4.91,4.91,0,0,1-3.43,2.47,25,25,0,0,1-8.19,0,7.42,7.42,0,0,0-7.22,2.91,21.15,21.15,0,0,1-4,2.46c-.39-2-.6-3.06-.84-4.19a5.17,5.17,0,0,0-4.19-4.75,3.55,3.55,0,0,1-3.48-3.61,4.53,4.53,0,0,1,.07-.62,3.09,3.09,0,0,0-.57-2c-5.55-7.58-4.6-16.22-3.63-24.65a38.69,38.69,0,0,1,3.12-11,12.2,12.2,0,0,0,0-8.86,25.69,25.69,0,0,1-.58-16.87,15.45,15.45,0,0,1,2.85-5.35c5.78-6.22,6-13.89,6.78-21.5a99.49,99.49,0,0,0,.32-14.75c-.31-6.54-.95-13.09-1.68-19.59A141.32,141.32,0,0,0-186.39,477c-1.25-5.95-3-11.78-4.48-17.66a9.48,9.48,0,0,1-.68-3.83c1.68-8.49-.65-16.36-3.19-24.15-1.21-3.62-2.09-7.33-3.07-11a3.07,3.07,0,0,1,.08-1.38c1.62-6.89,1.62-7.63-.32-16.37a69.72,69.72,0,0,0-7.62,9.26,63.77,63.77,0,0,1-16.23,20.28c-5.43,4.24-10.67,8.39-16,12.55-4.18,3.17-8.37,6.31-12.71,9.3-3.73,2.45-7.83,4.31-11.53,6.94-5,3.52-9.41,7.83-14.57,11-4.24,2.46-6.42,6.5-9.9,9.54-5.31,4.48-10.81,9-15.76,13.86-3.53,3.4-6.31,7.51-9.68,11.1-6.9,7.26-13.78,14.55-21,21.45-6.7,6.44-13.91,12.42-20.93,18.67-2.59,2.39-4.11,2.34-5.93-1A69.29,69.29,0,0,0-386.09,518a4.51,4.51,0,0,1-1.27-6.24,4.52,4.52,0,0,1,1.52-1.43,24.42,24.42,0,0,0,9-10.64,37.81,37.81,0,0,1,8.14-10c6-6.3,12-12.64,18-18.94,2.9-3.16,5.57-6.53,8.47-9.72a15,15,0,0,1,3.18-2l.62,3.2.87.56,4.51-6.28c1.29-.39,2.4-.37,3-.94,4.19-4.12,8.29-8.32,12.38-12.51l23.85-24.35c7.86-8.05,15.77-16.06,23.55-24.22,2.49-2.6,4.38-5.6,7-8.94l-15.36-1.29-16.45-1.51c-11.66-1.1-23.33-2.2-35-3.4-12.45-1.3-24.31,1.59-36.15,4.62-.77.34-1.72,1-2.36.79a36.11,36.11,0,0,1-4.62-2.19,15.88,15.88,0,0,1,3.39-2.89,62.05,62.05,0,0,0,8.94-4,25.8,25.8,0,0,0-3.11-.92c-4.42-.74-8.88-1.32-13.26-2.22a3.34,3.34,0,0,1-2.07-2.3c-.46-2-1.3-2.42-3.34-2.17-9.91,1.88-19.91,3.54-29.83,5.39-2.45.47-4.83,1.37-7.25,1.83-1,.18-2.75,0-2.95-.55a8.05,8.05,0,0,1-.36-4,5.48,5.48,0,0,1,1-2.94,12.8,12.8,0,0,1,4.34-3.46,64.39,64.39,0,0,1,8.44-2.14l-.05-1.33a10,10,0,0,0-2.58-.65l-34.27,1.22a9.85,9.85,0,0,1-3.53-.47c-2.37-.81-2.67-2.47-.89-4.06a16,16,0,0,1,12.09-4.45,63.32,63.32,0,0,0,16.76-1.24,85.78,85.78,0,0,1,21.53-.86c4.28.11,8.58-.41,12.87-.71,1.63-.1,3.26-.39,4.63-.52.73-1.56,1-3.55,2.17-4.4a13.5,13.5,0,0,1,5-1.17l.14-1a44.66,44.66,0,0,0-5.19-1.64c-2.35-.45-4.83-.27-7.1-.94a32,32,0,0,1-5.83-3l.32-1.82c3.3-.37,6.59-1,9.88-1.1a64.85,64.85,0,0,1,12.14.6c9.77,1.69,19.45,3.83,29.16,5.8a92.55,92.55,0,0,0,17.24,3c4.17.09,8.62,1.88,13.13,2.18a252.1,252.1,0,0,0,55.12-1c8.94-1.41,18-1.83,27-2.72,1.55-.14,3.06-.44,4.67-.68l1.79,2.05c2-1.44,3.76-2.62,5.54-4a39.38,39.38,0,0,0,3.89-3.18c1.78-1.74,2.6-3.42.43-5.78-4.27-4.68-8.34-9.56-12.22-14.52-6.35-8.14-12.64-16.3-18.66-24.59s-11.75-16.69-17.34-25.17-11-17.45-16.46-26.15c-6.06-9.62-12.32-19.11-18.17-28.83-5.05-8.42-9.44-17.24-14.4-25.71-2.15-3.68-5-6.94-7.55-10.42a104.5,104.5,0,0,1-6.78-9.69,61.39,61.39,0,0,0-10.17-14.67c-2.89-2.81-1.81-4.67,2.79-6.31,3.93,3.18,8,6.16,11.52,9.5,2.7,2.45,4.9,5.53,7.34,8.31,9.61,10.79,19.36,21.47,29,32.33q12,13.8,23.43,28.1c2.39,2.92,4,6.47,6.3,9.51s5.62,6.16,7.91,9.6c5.28,7.37,10.29,14.94,15.38,22.39s10.55,14.46,15.85,21.64a12.29,12.29,0,0,0,2.43,1.69c-.26-3-.49-5.22-.59-7.51-.28-5.57-.6-11.13-.76-16.69a45.65,45.65,0,0,1,.44-6.07c.8-7.33-1.91-14.53-1.59-21.54.27-5.81-2-12.17,1.48-17.82a8.52,8.52,0,0,0,1-4.11,159.22,159.22,0,0,0-2.13-31.37c-.92-5.29-.73-10.63-1.26-16.1-.81-8.66-1.63-17.32-2.68-25.94-.87-7.32-2.41-14.57-3.1-21.89a20.47,20.47,0,0,1,3.69-14.31,17.47,17.47,0,0,1,3.68-3.9c5.07-3.64,3.7-9,3.68-13.83a46.89,46.89,0,0,1,0-5A3.33,3.33,0,0,1-208,77.85a3.28,3.28,0,0,1,2.08.6,5.24,5.24,0,0,0,6.27-3.66c.31-.86.93-2.16,1.58-2.27s1.7.78,2.45,1.4a15.92,15.92,0,0,1,5,4.4,183.21,183.21,0,0,1,7,17.92,32.76,32.76,0,0,1,1.65,14.43c-.38,3.82,1.72,7.74,2.24,11.71.88,6.92,1.13,13.74,1.85,20.62,1.08,9.27,2.72,18.48,3.51,27.66.49,5.55-.33,11.11-.17,16.81.12,7.61.59,15.25.9,22.86.09,2.26,0,4.48.18,6.75.47,6.8,1,13.6,1.56,20.38,1,11.79,2.09,23.54,3.08,35.16,0,.1.08.2.13.3,1.56,6.07,5.23,11.78,1.94,18.68Zm3.18,68a11.3,11.3,0,0,1,.9,3.26c-.23,2.69,1.35,3.05,3.4,3.05a107.51,107.51,0,0,0,14.8-.47c10.46-1.61,20.88-3.56,31.26-5.69,4.39-.89,8.62-2.54,12.9-3.86l-.24-.95c-7,.72-14.13,1.67-21.29,2.14q-18.3,1.51-20.9-2c6.61-.67,12.89-1.49,19.22-1.88,7.75-.48,15.47-.7,23.23-.89q24.42-.61,48.8-1.06c4.79-.08,9.57.32,14.35.06,18.54-.93,37-2.11,55.52-3.2,5.9-.36,11.81-.79,17.74-1.16l.07-1.16a20.33,20.33,0,0,0-3.28-.88c-9.75-1-19.5-1.9-29.28-2.86-3.09-.31-6.17-.91-9.28-.92-8.37.06-16.8.15-25.24.24q-10.92.08-22.09.35c-6.22.13-12.46.23-18.67.55-11.19.54-21.89,1.13-33,1.81-6.52.37-13.06.87-19.59.95-8.46.11-16.88-.17-25.31-.08a13.33,13.33,0,0,0-12.27,8.47l12.23-2.72,5,5.76c-5.69,2.74-13-.88-19,3.16Zm220.78-4.52a16.18,16.18,0,0,0-3.66-.6c-8.93.53-17.88,1.36-26.86,1.69-9.69.39-19.4.58-29,.4s-19.66-1.43-29.47-1.13c-15.14.44-30.27,1.57-45.37,2.86-11.29,1-22.48,2.67-33.75,4s-21.06,5.7-32.14,5.36c-.47,0-1,.74-1.53,1.15a6.44,6.44,0,0,0,1.87,1.07c1.66.29,3.35.16,5,.52a70.58,70.58,0,0,0,23.56,2.14c9.71-1.24,19.51-1.79,29.18-3.2a177.67,177.67,0,0,1,35.68-2.32,66.14,66.14,0,0,0,7,0c5.14-.27,10.2-.88,15.4-.92,7.66-.19,15.33.06,23-.23,9.84-.38,19.64-1.67,29.44-1.56,11.41.12,21.44-4,31.55-9.15Zm-90,24.45-.09-1.42-57.27-2.16c-19.32-.48-38.19,3.91-57.84,5.15,2.35,3.48,3.72,7.47,8.19,8.16a50.26,50.26,0,0,0,10.4.46q15.57-.89,31.12-2.2c9.3-.77,18.61-1.61,28-2.78,8.41-1,16.78-2.51,25.13-3.85,4-.4,8.06-.76,12.26-1.27ZM-49.11,515.37l.92-.89a63,63,0,0,0-5.52-10.22c-8.06-9.93-16.11-19.84-24.57-29.27-5-5.62-10.94-10.41-16.36-15.71-13-12.85-22.1-28.72-32.24-43.76-3.48-5.14-7.57-9.83-11.4-14.74l-1,.61c3.16,5.07,6.11,10.22,9.49,15.12,9.22,13.47,18.45,26.94,28,40.2,7.5,10.48,15.2,20.83,23.27,30.87,7.44,9.26,14.85,18.65,25.52,24.58.58.32.93,1.12,1.48,1.53S-49.94,514.82-49.11,515.37ZM-260.78,254.46l-1,1c17.21,24.94,31.73,51.66,52.44,74.38a15.63,15.63,0,0,0,.4-6.35,44,44,0,0,0-3-13.81A106.33,106.33,0,0,0-224.46,293c-4.44-5.33-9.31-10-13.95-15-6.69-7.33-13.3-14.73-20-22A10.4,10.4,0,0,0-260.78,254.46Zm383.83,81.65,0-1.44a11.53,11.53,0,0,0-8.47-2.63c-6.63.71-13.2,1.94-19.78,3-5.77.92-11.51,2-17.3,2.75a142.6,142.6,0,0,1-18.88,2.13c-10.93.07-21.69-.81-32.56-1.1a61.92,61.92,0,0,0-8.59.89l.1,1.12a6.94,6.94,0,0,0,1.27.24,26.29,26.29,0,0,1,7.67.25,11,11,0,0,0,7.59.65,7.53,7.53,0,0,1,3.17,0c5.17.63,10.32,1.45,15.44,1.88,7.09.5,14.18,1,21.35,1.19,11.59,0,23.24.27,34.42-3.59,4.91-1.85,9.67-3.71,14.46-5.51ZM-341.77,522.43c-3.28-1.46-6.39-2.06-8.22-3.87a46.72,46.72,0,0,1-12.53-20,4.07,4.07,0,0,0-2.85-2.39c-2.45.32-4,3.78-3.45,6.21a7.44,7.44,0,0,1-.29,3.38c-.65,2.26-1.42,4.46-2.24,6.65a7.33,7.33,0,0,1-1.35,1.73,9.69,9.69,0,0,1-1.51-1.92c-.19-.43.11-1.07.36-3l-5.25,3.14a11.19,11.19,0,0,0,2.27,3.22c6.55,4.4,13.25,8.55,19.84,12.86.77.5,1.87,1.58,1.76,2.24a71.2,71.2,0,0,1-2,7.62,9.45,9.45,0,0,0,3.29-1.46c1.6-1.58,2.77-3.56,4.27-5.29C-347.28,528.53-344.67,525.69-341.77,522.43ZM-98.51,480.5l1-1.22a15.43,15.43,0,0,0-.82-1.86c-3.11-5.12-6.12-10.33-9.41-15.36-7-10.71-13.87-21.46-21.21-31.9s-14.66-19.79-22.09-29.61a38.36,38.36,0,0,0-5.26-5.84c-.71-.63-2.33-.24-3.54-.33.16,1.1-.07,2.48.59,3.39,5.59,7.57,11.4,15,17,22.56q7.58,10.21,14.86,20.65c4,5.77,7.77,11.74,11.72,17.59,4.33,6.47,8.65,12.92,13.19,19.27A14.57,14.57,0,0,0-98.51,480.5ZM-283.1,202.28a22.39,22.39,0,0,0,1.54,8.08,203.65,203.65,0,0,0,13.73,18.41c8,9.79,16.56,19.21,24.95,28.74,2.2,2.49,4.73,4.65,7.15,7l1-.91C-248.72,241.55-265.77,221.9-283.1,202.28Zm91.45,48.12a20.36,20.36,0,0,1-1.35-4.84,18.28,18.28,0,0,0-6.73-16.33c-2.76-2.43-4.48-3-6.75-.15A11.88,11.88,0,0,0-209,234.8a48.66,48.66,0,0,0-.08,11,69.09,69.09,0,0,0,2.76,10C-202.23,250.75-198.26,247.6-191.65,250.4ZM79.91,354.53a29.27,29.27,0,0,1,7.57,2.34c9.8,6.6,20,.74,30,1.7.69-4.36-7.11-6.05-2-10.61C109.07,346,84.7,350.36,79.91,354.53ZM-210.35,102l-1.57-.4c-1.34,2.16-2.56,4.42-4.1,6.46-4.2,5.52-1.71,11.71-.7,17.36a169,169,0,0,1,2.1,25.81,14.31,14.31,0,0,0,1.61,4.28c.72-1.26,2-2.48,2-3.76.43-5.2.52-10.42.64-15.66.22-8.72.4-17.46.47-26.18A61,61,0,0,0-210.35,102ZM-49.11,536.51l9.26-9.33c.8,1.8,3.24,4.26,2.67,5.36a43.48,43.48,0,0,1-6.8,9.37c-1.54,1.7-4,2.63-5.62,4.28-2.08,2.06-3.54,1.57-4.77-.62-1.6-2.94-4.71-3.28-7.59-3.94,2.51,3.35,5.27,6.28,7.8,9.36s4.59,3.26,7.57-.07c4.87-5.49,10.3-10.78,15.23-16.37a5.6,5.6,0,0,0,1.16-4.64,11.36,11.36,0,0,0-9.52-8.19c-1.9-.25-2.55.18-3.46,1.9a16,16,0,0,1-5.42,6.64C-52,532.08-51.34,533.63-49.11,536.51Zm69.6-166.24-.16-2c-29.85,4.49-59.92,2.24-90.07,3.93a4.37,4.37,0,0,0,2.8,1.46c.92.1,1.87-.32,2.81-.26,23.24,1.34,46.48,3.11,69.69-.4C10.59,372.22,15.52,371.16,20.49,370.27ZM-178.63,268l2.13-.29L-177.8,219c-.35-.79-1.74-2.59-1.36-3,3.26-5.09.66-10,.11-15.06a24.33,24.33,0,0,0-1.3,7.12c-.09,1,.34,2.4-.18,3-2.7,3.21-1.1,6.4-.65,9.82a56.42,56.42,0,0,1-.27,11.4,38.85,38.85,0,0,0-.83,6.36A84.46,84.46,0,0,1-181,257.86,30.34,30.34,0,0,0-178.63,268ZM-261.86,382l-.13-1.7c-2.66-.31-5.36-.54-8-.93-8.48-1.25-17.08-2.18-25.45-3.94a70,70,0,0,0-25.28-1,8.28,8.28,0,0,0-2.53,1.45l.48,1.07c3.9.57,8,.85,12,1.61a124,124,0,0,0,14.92,1.2c4.75.33,9.43,1.18,14.16,1.71,5.56.6,11.11,1.09,16.7,1.5A9.36,9.36,0,0,0-261.86,382ZM-11.62,182.78l-.3-.68-19.17,5.12,2.56,4a21.44,21.44,0,0,0-4.83,3,21.36,21.36,0,0,0-4.64,7c-.44,1.32,1.47,3.32,2.3,5.18Zm-30.13-.15c10.94,0,20.3-6.19,27.15-17.09-1.7-.37-3.33-1.26-4.56-.89a22.55,22.55,0,0,0-8.42,3.73c-4.93,4.45-9.42,9.55-14.13,14.34Zm-17.47,345a12.67,12.67,0,0,0-.58-15c-3-3.22-6.17-6.32-9.33-9.41a33.48,33.48,0,0,0-3.45-2.6C-70.67,511-68.88,521.18-59.22,527.64ZM-213.14,297.85c0-6.57-33.71-44.1-41.66-46.23C-240.68,267.41-228.77,283.79-213.14,297.85Zm122.86-53.73a34.27,34.27,0,0,0,9-4c5.92-5.66,11.42-11.79,16.9-17.87.34-.38-.48-2.72-.91-2.78a5.59,5.59,0,0,0-4,.71q-10.11,9.31-19.87,19C-90,240-89.82,241.77-90.28,244.12ZM47.63,332.66c.6.87.58,1.31,1,1.42a2.52,2.52,0,0,0,1.34.39c10.17-.86,20.46-1.3,30.57-2.61A84.33,84.33,0,0,0,94,328.32a11.63,11.63,0,0,0,2.63-1.56c-.93-.29-1.9-.91-2.77-.82-8.2.86-16.43,1.74-24.57,2.91-6.94,1-14,2.36-21.6,3.67ZM-151.31,486.37c-1.26-2-2.49-4.2-3.93-6.22a3.33,3.33,0,0,0-2.33-1.3c-2.9.3-5.58,6.78-4.16,9.4a79.44,79.44,0,0,1,4.18,8.67c1,2.19,1.48,4.49,4.56,3.78a4.68,4.68,0,0,0,4.4-4.94,4.85,4.85,0,0,0-.27-1.31C-149.57,491.69-150.47,489.1-151.31,486.37ZM-284.93,371.46l-.08,1.05c2.32.62,4.62,1.28,7,1.8q9.6,2.1,19.2,4.09a2.58,2.58,0,0,0,1.94-.24,88.27,88.27,0,0,0,6.15-6.39,2.88,2.88,0,0,0-1.19-2.1c-5.14-.71-10.2,1.13-15.59,0a49.45,49.45,0,0,0-14.15,1A22.83,22.83,0,0,0-284.93,371.46Zm122.48,191.62,2,.43c1.47-2.55,3-5,4.35-7.66a18.28,18.28,0,0,0,1.78-5,18,18,0,0,0,.37-6.74c-.61-2.86-4.77-6.06-6.18-5.69s-3.44,5.4-3.08,8.27c.21,1.62,0,3.29.1,4.92A114.37,114.37,0,0,0-162.45,563.08Zm-34-416.61a24.47,24.47,0,0,0,2,7.5,15.4,15.4,0,0,1,2.5,11.89,43.31,43.31,0,0,0-.19,10.61c.12,1.08,2.18,1.95,3.38,2.92.62-1.08,1.79-2.15,1.75-3.23-.18-7.22-.45-14.41-1.09-21.79C-188.55,148.44-189.24,148-196.44,146.47Zm135,43.51.93,1.12c1.4-1.06,2.77-2,4.12-3.15,4.61-4.09,8.93-8.6,13.85-12.32a49.26,49.26,0,0,0,12.24-13.57c.6-1,.09-2.6.12-3.93-1.48.37-3,.63-4.4,1.11-.46.21-.67,1-1,1.42-4.09,4.85-8.14,9.71-12.34,14.5S-56.94,185.18-61.42,190ZM-197,283.87c-2.23-4.45-4.46-9-6.84-13.36a2.67,2.67,0,0,0-2.56-.73,6.93,6.93,0,0,0-2.95,3.39,22.79,22.79,0,0,0,3,16.16c.86,1.44,2.1,1.77,3.47.25S-199.17,286-197,283.87ZM53.56,363c5.39,2,31.23.75,33.39-1.45-10.1-6-25.05-5.43-33.39,1.38ZM-64.09,198.46c-8.62,8.8-19.18,15.6-25.94,26.13a5.18,5.18,0,0,0,2.28-1A103.46,103.46,0,0,0-68.37,208.4,13.78,13.78,0,0,0-64.09,198.46ZM-168.18,584l-2.38-2.16a14.64,14.64,0,0,0-1.84,4.07c-.57,4.89-1,9.82-1.1,14.73,0,1.21,1.38,2.46,2.15,3.69a13.09,13.09,0,0,0,2.95-2.23C-164.17,596.56-165.44,590.81-168.18,584Zm-5-109.15c1.44,1.11,2.79,2.92,4.29,3.1.93.1,2.68-2.21,3-3.69.54-3,0-6.13.41-9.13a5.62,5.62,0,0,0-3.74-6.12c-1.78-1-3-.63-3.15,1.62s-.7,5.42-.92,8.15c-.1,1.83.07,3.77.11,6.09Zm42.58-97.93.26-1.65c-7.12-1.81-14.22-3.73-21.38-5.38a17.32,17.32,0,0,0-5.38,1c3.19,3.07,5.48,7.17,8.09,7.36A103.22,103.22,0,0,0-130.65,376.91Zm-41.85,48.3c-6.11,2.71-8.08,5.26-7.69,9.11a50.12,50.12,0,0,0,.93,8.1,5.14,5.14,0,0,0,3.32,2.87,3.76,3.76,0,0,0,3-2C-172.71,437.43-172.74,431.6-172.5,425.21Zm-17.63-9.6c-4.24,2.21-2.23,18.27,3.2,22,1.17-4,3.56-7.87,3.05-11.33s-4.09-6.91-6.4-10.56Zm-128.23,44.61c-4.34,2.73-6.85,7.53-9.89,11.69a7,7,0,0,0,2.73,3.53c4.07-1.44,8-3.31,11.8-5ZM64.33,369.63c-5.76-4.75-35.85-1.7-38.74,3.24Zm-257.85-70.11c3.59-.14,3.37-3.36,3.44-6.24a4.47,4.47,0,0,0-3.84-4.54,13.3,13.3,0,0,0-9.23,5.77,2.74,2.74,0,0,0,.28,1.38C-201.13,300.3-198.44,301.52-193.52,299.52Zm19.45-23.25c-.47.76-.84,1.07-.79,1.34A35.24,35.24,0,0,1-178.4,296c-.61,1.33,0,3.21.12,5.79,4.05-2.56,7.63-4.55,7.56-8.39-.07-5.6,2.44-12-3.32-17Zm-27.51-8.09c1.05,6.25,8.12,15.17,11.53,14.71a54.24,54.24,0,0,1-.38-7.43c.63-7.47-3.27-9.43-11.13-7.22Zm112.7,226.13A142.65,142.65,0,0,0-70.8,528.72c-1.62-13.78-11.55-23.14-18.07-34.38ZM-199,195.76a5.94,5.94,0,0,0-6.63,5.16,5.34,5.34,0,0,0,0,.69,27.6,27.6,0,0,0,2.23,8.65c.49,1.1,2.84,1.7,4.41,1.7.58,0,1.75-2.31,1.67-3.48-.21-4.26-1-8.45-1.6-12.66Zm69.82,229.64,1.13-.5c-1.23-2.2-2.38-4.46-3.77-6.59-4.59-7-9.31-13.91-13.89-20.93-1.87-2.82-3.12-3.33-6.21-1.41,3.8,4.85,7.67,9.71,11.43,14.58S-133,420.3-129.14,425.4Zm-183.72,51.08c-2.67,2.2-5.3,4-7.47,6.2a7.89,7.89,0,0,0-2,4.24,66,66,0,0,0-.24,7.7C-317.71,495.1-312.6,486-312.86,476.48Zm6.11-25.32,1.13,1.06a58.45,58.45,0,0,0,8.47-3.39,4.69,4.69,0,0,0,1.42-4c-.78-3.89-7.09-6.75-11.33-5.05a8.63,8.63,0,0,1,.34,11.39Zm11.26-91.41-.13-1.77-8.77-.35c-10.47-.54-20.95-1.11-31.41-1.54-.77,0-1.62.94-2.42,1.44.68.64,1.34,1.88,2.05,1.9,5.52.18,11,.12,16.5,0l12.65,0Zm102.71-103.66s-.57-1.28-1.25-1.42c-1.84-.35-4.12-1-5.55-.16a21.11,21.11,0,0,0-4.32,5.57c1.78.89,3.56,1.85,5.39,2.68a4.47,4.47,0,0,0,1.41.22C-191.78,263.53-190.46,261.82-192.78,256.09Zm20.3,158.48c.2-4.65.51-8.22.38-11.82,0-.64-2.27-2-2.83-1.7a20.6,20.6,0,0,0-6,4.21,4.09,4.09,0,0,0,.25,4A71.08,71.08,0,0,0-172.48,414.57ZM-3.72,165.21-23,180.64C-16.68,183.08-3.89,172.88-3.72,165.21Zm-260,187.61-.1-1.53-36.29,1.5,0,.93c12.13.61,24.17,3,36.27-1ZM-26.25,155.08l6.54-12-4.11-2c-1.88,2.08-3.43,3.86-5.07,5.61-4.94,5.16-4.74,5.94,2.61,8.34Zm-150.2,385.76c-1.13,1.56-2.23,2.45-2.4,3.47-.82,5.3-1.53,10.62-2,16a5.14,5.14,0,0,0,4.48,5.32Zm-9-76.16,1.19-.2a35.56,35.56,0,0,0,1.92-16.23c-.1-1.05-2.37-1.9-3.64-2.87a29.6,29.6,0,0,0-1.29,3.27,6.28,6.28,0,0,0-.14,2.48c.75,4.48,1.41,8.94,2.05,13.44Zm36.75,87.74-.75,0-.64,1.53c-2.24,4.9-3.41,10.42-8.24,13.85-.58.25-.27,1.87-.34,2.85a9.39,9.39,0,0,0,2.54,0c5.59-1.46,7.41-8.55,8.22-14.38a12,12,0,0,0-.73-4Zm-107.45-197,.08,1.76a20.79,20.79,0,0,0,2.21.37,63,63,0,0,1,11.64.64,6.7,6.7,0,0,0,8.56-4,6.46,6.46,0,0,0,.24-.86ZM-274,367l-.05-1.51c-6-.49-12-1-18-1.4a5.17,5.17,0,0,0-3,1,8.94,8.94,0,0,0-1.72,2.37c.77.43,1.57,1.24,2.32,1.2,6.85-.7,13.7-1.22,20.53-1.8Zm98.52,128.26c-.18.41-.47.75-.45,1a31.84,31.84,0,0,0,5.42,15.67,2.49,2.49,0,0,0,2.35.67,2.57,2.57,0,0,0,.88-2.29,62.14,62.14,0,0,0-2.9-8.5c-1.07-2.74-1.47-6.1-5.26-6.76ZM-259,432.34c-6-.17-16.07,10.78-16.25,17.36Zm69.65-289.16a73.48,73.48,0,0,0-1.36-9.81c-.35-.79-2.55-1.64-3.84-1.58a4,4,0,0,0-2.89,2.38C-198.35,139-195,142.68-189.35,143.18Zm-89.83,268.46-1.08-.95-22.91,22.95.4.89c1-.21,2.06-.37,3.09-.61,3.29-.8,3.7-4.09,5.54-6.11,4.19-4.56,8.57-8.92,12.83-13.4A31.81,31.81,0,0,0-279.18,411.64Zm25.69-47.53,0-1.8c-9.44.54-18.63-3.13-28.17-1.27a76.42,76.42,0,0,0,28.09,3Zm91.35,152.26c0,4.55-.11,8.82-.11,13.09a28.7,28.7,0,0,0,.44,3.46c1.28-.57,3-1,3.68-2a11.75,11.75,0,0,0-3.75-14.55c-.26-.25-.72,0-.3-.09Zm-22.33-399.72c-.75-5.22-1.41-10.33-2.36-15.61-.18-.39-2-1.11-2.33-.79a5.89,5.89,0,0,0-1.94,3.2C-191.61,109.12-188,112.93-184.47,116.65Zm29.18,403.15,1.43-.82c-1.29-3.88-2.52-7.83-4-11.64a5,5,0,0,0-2.28-2.17c-.73-.41-2.22-.73-2.54-.37s-1.07,2.19-.68,2.82c2.47,4.16,5.26,8.15,8,12.2Zm-16.85,91.48c-.48.21-1.58.7-1.8,1.53a11.19,11.19,0,0,0-1.1,5.75c.34.76,3,1.36,4.74,1.54a46.35,46.35,0,0,0,7-.78Zm-8.11-428.1c-.13-2.42-.13-3.59-.23-4.72-.5-5.73-1-11.47-1.65-17.2-.11-.9-1.21-1.65-1.84-2.5a155,155,0,0,0,.23,21.33c0,1.08,1.85,1.78,3.47,3.29Zm-22.31-28,.89,7.53,3.45-2c-3,5.76-3,5.76-1.05,7.76.87-2,4.77-1,4-4.73s-1.74-7.63-7.31-8.33Zm-98.81,320.47a31.86,31.86,0,0,0-5.86,0,3.74,3.74,0,0,0-2.66,2.24,81,81,0,0,0-1.16,8.33c2.69-.2,8.14-6.09,9.56-10.3ZM122.25,357l1.14.18a12.79,12.79,0,0,0,1.47-2.69c.88-3.06,1.59-6.15,2.3-9.24a5.28,5.28,0,0,0,.29-2.87c-.32-.81-1.82-.91-2.42-.6a4.31,4.31,0,0,0-2,2.5,55.88,55.88,0,0,0-1.13,7.81A32.38,32.38,0,0,0,122.25,357Zm-292,27.65a94.68,94.68,0,0,1-9.66-.86c-2.24-.43-3.56-.21-3.71,2.27s1.71,2.6,3.5,3C-175.78,389.85-173.11,388-169.74,384.61Zm18.42,3.15c-1.2-1.7-1.74-3.25-2.78-3.7a22.77,22.77,0,0,0-6.32-1.39c-.38-.05-1.47,1.53-1.31,1.71a15.44,15.44,0,0,0,3.77,4.47,8.51,8.51,0,0,0,4.82.74C-152.48,389.52-151.89,388.3-151.32,387.76Zm284.73-42.62c.22,3.55.51,7.08.89,10.23a14.91,14.91,0,0,0,1,3.19,18,18,0,0,0,4.22-1.58c.55-.25.63-2,.27-2.79a82.6,82.6,0,0,0-4.23-7.87c-.43-.73-1.4-.84-2.19-1.22ZM-181,400.67l6.49-2.88c2.08-.92,2.57-2.93.51-3.88a27.63,27.63,0,0,0-7.73-1c0,2.16-.09,4.31-.08,6.46.09.29.42.55.76,1.16Zm78.34-113.22-1.23-1.28-20.77,22.55,1.24,1.16Zm53.6-85-1-.69c-2.61,2.36-5.63,4.69-8.14,7.26-.8.83-.57,2.66-.81,4,1.36-.23,3.2.05,4-.75A54.07,54.07,0,0,0-49.17,205c.52-.71.22-1.81.24-2.66Zm-125.28,255c-4.46,2.71-6.57,11.35-4.15,14,.41.43,3-.2,3-.51C-174.94,466.8-174.7,462.56-174.32,457.5Zm-160.19,16.78a13.36,13.36,0,0,0-11.83,6.83c2.52.34,5.56,1.66,6.85.61A26.16,26.16,0,0,0-334.51,474.28ZM80.29,349.8c-3.57-2.69-17.64-1.56-19.91,2,6.89-.76,13.51.83,19.92-2Zm-188.45,85.6-1,.8a82.43,82.43,0,0,0,15.89,19.5l1-.87Zm-86-238.31-1.53.67c.46,4.66.81,9.32,1.42,14,.09.69,1.23,1.28,2,1.78,0,0,1.16-.84,1.15-1.27a78.42,78.42,0,0,0-.55-10.28A16.93,16.93,0,0,0-194.13,197.09Zm5.95,56.19c2.06-6.72.48-15.37-3.11-16.3C-190.28,242.64-191.84,248.41-188.18,253.28Zm22.86,191.82a35.38,35.38,0,0,0-5.21,3.82c-.69.74-1.14,2.95-.69,3.37a22.18,22.18,0,0,0,5,3,2.8,2.8,0,0,0,.83-1.35C-165.24,451.13-165.29,448.38-165.32,445.1Zm-164.21,16.78a12,12,0,0,0,11.87-11.69ZM-311.28,496l-1.65-1.42c-3.54,3.54-7.05,7.07-10.53,10.66-.34.15,0,1.06,0,1.6.61,0,1.43.17,1.8-.14a87.22,87.22,0,0,0,6.7-5.9,45,45,0,0,0,3.72-4.86ZM-12.15,149.59a6.67,6.67,0,0,0-8.44,4.22,6.68,6.68,0,0,0-.35,2.31c6-.31,7.35-1.14,9-6.64ZM-192.3,396.23l-1-.28c-.55,1.3-1.8,2.77-1.52,3.89a25.38,25.38,0,0,0,3,6.71c.28.64,1.69.68,2.55,1,.27-1,1-2.08.69-2.83C-189.68,401.83-191.06,399-192.3,396.23Zm-181.54-37.9-8.63,1.05.15,1.58,11.36-.59-1.59-3.57,5-.67-.13-1.54-8.62.17-.15,1.23Zm40.14,134.88c-3,3.51-8.64,3.83-9.27,10.14,3.63-1.94,6.61-3.37,9.43-5.09C-331.59,497-331.93,495.39-333.7,493.21Zm147.13-206.68.91-.4c.49-5.08,1-10.18,1.36-15.21,0-.38-.68-.8-1-1.22-.41.48-1.15.88-1.18,1.37-.43,4.39-.8,8.82-1,13.24A12,12,0,0,0-186.57,286.53Zm-25-126.39A12.23,12.23,0,0,0-210,174.06c2.47-4.89.45-9.37-1.4-13.87Zm13.91,145.46-1.11,1c1.55,2.09,3,4.3,4.73,6.23.65.7,2,.75,3.05,1.1.14-1.49.92-3.77.24-4.31A42,42,0,0,0-197.61,305.6Zm26.8,138.07c4.18-5.14,4-11.88-.15-14.91Zm-15-41.29,1.52-.46a48.07,48.07,0,0,0-.75-7.37c-.27-.61-2.13-1.17-3.25-1.15-.54,0-1.73,1.71-1.51,2.13a66.56,66.56,0,0,0,4,6.86Zm108,102.49,1-.43-5.64-12.69c-.62,2.28-1.8,4.16-1.38,5.1A78.59,78.59,0,0,0-77.8,504.87Zm-125-373.93c3.83-5.35,2.62-12.59-1.74-13.29ZM-127,339.26l-.12,1.55c5.78-1.14,11.66,3.3,17.41-1.92Zm66.56-131.8c3.78-3.25,6.65-5.66,9.39-8.22.59-.56.55-1.71.82-2.59-1.07.07-2.51-.31-3.11.24a76.65,76.65,0,0,0-6.45,7c-.53.53-.38,1.59-.72,3.46Zm-125.19-17.67a6.68,6.68,0,0,0-6-7.15c.14,1.65.31,2.86.38,4.07C-190.95,190.6-189.59,191.35-185.68,189.79Zm-1.87,24.76c3.47-5.2,3-9.82-1.84-12.37a31.32,31.32,0,0,0,1.94,12.35ZM-291.44,437a28.65,28.65,0,0,0-3.44,3.35c-.18.08,1.23,2.2,1.83,2.15a6.7,6.7,0,0,0,3.78-1.68,18.7,18.7,0,0,0,2.62-4Zm-51.44,48.69c-1.53-.42-2.69-1.14-3.56-.87a4.32,4.32,0,0,0-2.85,2.22,13.59,13.59,0,0,0,.62,4.61,10.8,10.8,0,0,0,3.57-1.58A18.24,18.24,0,0,0-342.88,485.71Zm178.49,126.66,1.44-.64.17-7.85-1.3-.38-4.89,4.8Zm2.3-241.71-1.1.49.79,9.11,1.26.54c1.06-1.09,3.25-2.58,3-3.17a42.53,42.53,0,0,0-4.11-6.94Zm-10.39-111.31-1.24.26c1,4.47-2.53,9.52,1.34,13.65l1.67-.19ZM-52.75,524.87c3.25,0,6.2-2.49,5.53-4.83-.3-1.18-2-2-3-3a11,11,0,0,0-1.64,2.63A46.52,46.52,0,0,0-52.75,524.87ZM-193.37,119.32c-2.31,2.27-5.64,3.09-4.45,6.43.53,1.19,3.28,1.47,5.94,2.51Zm-6.9,67.38c-2-8.59-2.4-9-6.58-6.58C-205,182.36-204.62,186-200.27,186.7ZM-311.19,458.93l-1.43.64a63.31,63.31,0,0,0,2.87,6.47,2.72,2.72,0,0,0,2.5.61c.73-.91,1.68-2.8,1.28-3.28A39.51,39.51,0,0,0-311.19,458.93Zm142.93,28.35c-2.11,4-1.53,8,1.15,9.75,2.46-4.74,2-7.57-1.12-9.77Zm-32.83-296.16-5.3-4.37-1,.75-.06,7.33ZM-306.93,456.35l-.26,1.14c1.61.67,3.64,2.29,4.7,1.78a19.48,19.48,0,0,0,4.76-4.74l-.86-.71Zm140.35-54.08-4.64-1,.58,9.05,1.64.23Zm-22.09-283.65c-.72,6.6,1.61,11.12,5,11.32Zm-13.3-8.48.94-.2c-.1-3.35,0-6.7-.4-10-.09-.87-1.81-1.53-2.81-2.4l-.85.81ZM2.36,159.55l-2.3,10c5-2.59,5.78-5.48,2.2-10Zm-167.3,234.66-1.58-1.68-5.55,3.05c1.43.9,3,2.65,4.21,2.41S-165.91,395.55-164.94,394.21ZM-184.65,408c-4.12,4.13-3.73,6.33,1.62,10ZM-354.1,488.72l-1.46-.41a29.39,29.39,0,0,0-2.36,5.13c-.18.67,1,1.69,1.49,2.55.93-.7,2.42-1.29,2.69-2.18A19.76,19.76,0,0,0-354.1,488.72Zm165.21,73.71,1.32.07,1.92-10.56-1.18-.18c-2,3.42-3.7,6.8-2,10.75ZM-363.91,347a8.84,8.84,0,0,0-10.23.89C-370.5,349.39-367.27,348-363.91,347Zm24,179.89c2.39-2.35,6.64-3.14,7.26-8.34A14.09,14.09,0,0,0-339.91,526.87Zm134.36-372a8.74,8.74,0,0,0,1.9,11.68Zm-61,98.13.81-.72c-1.84-3.49-3-7.52-6.6-9.67l-.91.66Zm69.27-72.78-1,.46c-.34,6.4.38,8.2,4,8Zm-120.82-12.92-1.56,1,6.79,9.37,1.45-1.08ZM-283,223.92l-1.25.56,7.24,12,1.06-.48Zm102.85,197.34,1.51.35c.92-1.39,2.43-2.76,2.48-4.2s-2.09-1.92-3.26-2.9l-1.07.47Zm-154.15,65c3,3.07,4.43-.29,6.31-.76.61-.27,1-1.85,1.43-2.86l-1-.79ZM-38.42,188.9l-.51-1.16-6.47,2.87c-.37.16-.31,1.19-.43,1.83.62.09,1.41.47,1.81.22C-42.13,191.57-40.29,190.2-38.42,188.9Zm-299.51,187,.09-2.09-9.8-.61-.08,1.38Zm331.22-223-3.36,3.47c2.22,3.25,4.09,1.39,6.36,0Zm-193.9-12.18-1.13.24,1.81,9.1,1.2-.25A11.31,11.31,0,0,0-200.61,140.69ZM-208.16,224c4.38-1,4.73-2.5,1.47-6.71C-209.48,219.13-207.61,221.77-208.16,224Zm123.94,39.63,1.17,1.08,8-9.1-.87-.82Zm-95.19,185.7a18.7,18.7,0,0,0,.53,4.08,4.5,4.5,0,0,0,5.21-2.9,3.84,3.84,0,0,0-1.1-.6C-176,449.65-177.34,449.53-179.41,449.31Zm-18.24-345.15c-1.63,6.28-.65,9.06,2.79,8.59ZM-180,381.23l1.17.9c1.28-.57,2.89-1.06,3.6-2.1s-.74-2.24-1.18-3.39l-1.28,0ZM-274.4,228.55l-.81.54,6.7,9,1.17-.89Zm91.59,206.35c-3.82,4.73-3.59,6.89.66,7.74Zm-142.08,53.23c-5.71,2.28-6.07,3.28-2.69,6.93Zm73.48-80.74-5.86,5.81.74.77C-255,411.63-250.34,412.53-251.41,407.39Zm-25.44,20.53a7.13,7.13,0,0,0-6.91,7.3Zm97.47-152.1-2.23.08.3,7.35,2,0ZM46.25,350.29v1.06l9.26,0-.1-1.89ZM-182.63,195l-6.64-1.29-.5,1.25a19.67,19.67,0,0,0,4.14,2.58C-185.15,197.74-184.08,196.28-182.63,195ZM-371.15,366.78c1.93,2.79,5.46,2.76,7.77-.42ZM-151.3,536.36l-.87-6.59c-3.57,3.74-3.52,4.92.9,6.58ZM-362.86,359l-.34-1.42-6.25.4a4.18,4.18,0,0,0,5.65,1.71A4.21,4.21,0,0,0-362.86,359Zm174.28-129.87-1.41-6.38C-193.23,225-192.81,226.89-188.58,229.17Zm137.21-42.63,1.24,1.24,5.1-5-1.21-1.25Zm-3.88,351.53.56-1.86-6.91-2-.37,1.4ZM-93.07,243.76l-2.39,0a31.25,31.25,0,0,0,0,4,14.87,14.87,0,0,0,2.4.14Zm-155.7,133.05.47.56a16,16,0,0,0,2.94,0,6.13,6.13,0,0,0,2.29-1c.22-.1,0-1.23-.07-1.25a4.55,4.55,0,0,0-2.26-.06A28.58,28.58,0,0,0-248.77,376.81Zm32,40.58-4.74,6.93a5.56,5.56,0,0,0,4.76-6.23c0-.2-.07-.39-.11-.58ZM-333.52,501.2l-3.72,5,1.3.95,3.1-4.37a10.39,10.39,0,0,0-.77-1.48ZM-164.67,420l-.46-1c-1,.47-3,1-3.05,1.36a14.1,14.1,0,0,0,1.62,3.66l1.15-.22Z"/><path class="cls-3" d="M-161.79,359.9c6-4.06,13.32-.43,19-3.12l-5-5.76-12.23,2.73a13.35,13.35,0,0,1,12.27-8.48c8.43-.09,16.89.21,25.31.09,6.54-.09,13.08-.58,19.59-.95C-92,343.77-81,343-70,342.48c6.21-.31,12.45-.41,18.67-.55q11-.23,22.09-.34c8.43-.09,16.9-.19,25.24-.24,3.08,0,6.19.61,9.28.92,9.78,1,19.52,1.85,29.28,2.85a21.73,21.73,0,0,1,3.28.88l-.07,1.17c-5.92.4-11.83.83-17.75,1.15-18.5,1.1-37,2.22-55.51,3.2-4.78.26-9.56-.14-14.35-.06q-24.41.46-48.8,1.06c-7.73.18-15.48.41-23.23.89-6.33.4-12.64,1.23-19.16,1.86q2.63,3.51,20.89,2c7-.57,14.17-1.5,21.29-2.14l.25.95c-4.31,1.33-8.54,3-12.9,3.86-10.38,2.12-20.8,4.08-31.26,5.69a107.71,107.71,0,0,1-14.7.61c-1.86,0-3.78-.29-3.4-3A11.53,11.53,0,0,0-161.79,359.9Z"/><path class="cls-3" d="M58.82,355.41c-10.12,5.08-20.14,9.27-31.59,9.13-9.8-.1-19.63,1.19-29.44,1.56-7.65.29-15.32,0-23,.23-5.13.12-10.27.65-15.41.92a63.58,63.58,0,0,1-7,0,177.86,177.86,0,0,0-35.77,2.44c-9.67,1.41-19.47,2-29.18,3.2a70.61,70.61,0,0,1-23.56-2.14c-1.61-.35-3.35-.23-5-.52a6.44,6.44,0,0,1-1.87-1.07c.58-.26,1-1.18,1.54-1.16,11.11.37,21.35-4,32.13-5.35s22.46-3.06,33.76-4c15.09-1.29,30.21-2.45,45.36-2.86,9.81-.3,19.64,1,29.47,1.13s19.4-.07,29-.4c9-.32,17.76-1.13,26.86-1.69A16.41,16.41,0,0,1,58.82,355.41Z"/><path class="cls-3" d="M123,336c-4.8,1.77-9.55,3.66-14.4,5.33-11.17,3.87-22.85,3.65-34.41,3.59-7.13,0-14.26-.61-21.35-1.19-5.18-.4-10.34-1.25-15.44-1.87a7.37,7.37,0,0,0-3.17-.06,10.93,10.93,0,0,1-7.59-.65,26.29,26.29,0,0,0-7.67-.25,7.68,7.68,0,0,1-1.27-.23l-.1-1.13a63.48,63.48,0,0,1,8.59-.89c10.86.29,21.79,1.29,32.56,1.11a144.31,144.31,0,0,0,18.88-2.14c5.78-.81,11.53-1.83,17.3-2.74,6.58-1.06,13.19-2.21,19.77-3a11.59,11.59,0,0,1,8.48,2.63Z"/><path class="cls-3" d="M79.91,354.53c4.75-4.34,29-8.65,35.48-6.54-5.07,4.55,2.71,6.1,2,10.61-10-1-20.11,4.87-30-1.71A29.55,29.55,0,0,0,79.91,354.53Z"/><path class="cls-3" d="M47.71,332.52c7.64-1.31,14.66-2.68,21.75-3.67,8.18-1.14,16.38-2,24.57-2.9.87-.1,1.84.53,2.77.81a11.67,11.67,0,0,1-2.63,1.57,84.61,84.61,0,0,1-13.48,3.54c-10.18,1.16-20.4,1.75-30.57,2.61a2.58,2.58,0,0,1-1.35-.39A15.23,15.23,0,0,1,47.71,332.52Z"/><path class="cls-3" d="M53.56,362.9c8.34-6.81,23.29-7.34,33.4-1.45C84.83,363.74,58.94,365,53.56,362.9Z"/><path class="cls-3" d="M122.25,357a34.5,34.5,0,0,1-.32-4.76,57.06,57.06,0,0,1,1.14-7.8,4.3,4.3,0,0,1,2-2.51,2.64,2.64,0,0,1,2.42.6,6.93,6.93,0,0,1-.3,2.87c-.71,3.09-1.45,6.2-2.29,9.24a13.33,13.33,0,0,1-1.47,2.7Z"/><path class="cls-3" d="M133.42,345.1c.79.38,1.77.53,2.08,1a80.32,80.32,0,0,1,4.22,7.87c.34.77.25,2.45-.26,2.79a18.1,18.1,0,0,1-4.23,1.58,15.49,15.49,0,0,1-1-3.19C133.88,352.05,133.76,348.89,133.42,345.1Z"/><path class="cls-3" d="M80.3,349.83c-6.41,2.84-13,1.25-19.91,2C62.66,348.27,76.73,347.14,80.3,349.83Z"/><path class="cls-3" d="M2.26,159.59c3.61,4.5,2.88,7.38-2.3,10Z"/><path class="cls-3" d="M46.25,350.29l9.16-.85.1,1.89-9.26-.12Z"/></g></g><g class="cls-4"><g id="Layer_1-2-2" data-name="Layer 1-2"><path d="M143.86,323.87c-3.2.91-4.33-1.65-5.88-3.12s-3.38-3.46-5.15-5.06a12.81,12.81,0,0,1-3.85-4.33c-.74-1.73-2.38-3.11-3.12-4.88a6.76,6.76,0,0,1,0-4c.3-1.21,1.39-.95,2.47.61a10.36,10.36,0,0,1,1.69-.78c.39,0,1.12-.22,1.29,0,1.13,1.38,2.77,2.72,3.12,4.32a7.75,7.75,0,0,0,5.49,6.41,4.76,4.76,0,0,1,3.64,3.72s.26.35.6.74c0-3.08,1.69-4.33,3.86-5.5l5.62-2.9c-.35-.78-1.3-2.08-1-2.47a6.65,6.65,0,0,1,2.85-1.73,4.35,4.35,0,0,1,4-.39c1.13.57,2.17,1,2.3,2.6s.78,2,2.2,1.13a1.69,1.69,0,0,1,1.39,0,8.22,8.22,0,0,0,6.27-.35c1.43-.43,3-.48,4.33-.87a6.13,6.13,0,0,0,5-4.32c0-.69,1.17-1.17,1.6-1.6a9.83,9.83,0,0,1-1.64-2.21c-.35-.87-1.3-1.73-.31-2.94.31-.35-.3-1.39-.47-2.12-.44-1.86-.87-3.77-1.26-5.63v-1.51c1-1.21.43-2.38,0-3.64a17.26,17.26,0,0,1-.34-3.93c0-5.63,0-11.25.3-16.88V257a16.61,16.61,0,0,0-.95-5.5,19.86,19.86,0,0,1,0-6.06c0-.26.26-.56.3-.82,0-3,.3-5.93.39-8.91a111.74,111.74,0,0,1,.43-12,19.07,19.07,0,0,1,.74-3.07,10.31,10.31,0,0,1,.39-2.08c-1-.65-2-1-2.47-1.64a22.56,22.56,0,0,1-4.33-7.49c-.69-3-2.2-5.75-3.11-8.65a23.27,23.27,0,0,1-1.3-6.71,54.3,54.3,0,0,0-1.9-11,32.76,32.76,0,0,1-1.43-10.73c.22-2-.61-4.07.34-6.06a.83.83,0,0,0,0-.69c-1.47-2.34-.47-4.93-.64-7.4,0-.47.3-1,.34-1.51a18.23,18.23,0,0,0,0-2.56,39.15,39.15,0,0,0-.3-5.92c0-.52.3-1.3,0-1.52-1.34-1.21-.22-2.12,0-3.29a73.24,73.24,0,0,0,.69-9.13v-1.73c.3-3.29.61-6.62,1-9.91.21-1.77.69-3.54,1-5.36s.52-4.33.82-6.45a25.91,25.91,0,0,1,.69-3.42c.35-2.29.61-4.58.87-6.88a16.8,16.8,0,0,1,.47-4.84c.52-2.51,1.26-5,1.86-7.49v-.69c1.91-.69,1.52-2.86,2.56-4.33a8.2,8.2,0,0,0,1.25-3.37c.35-2,1.08-2.29,2.81-1.43a22.26,22.26,0,0,0,2.6.91,7.17,7.17,0,0,1-.65-1.6,1.77,1.77,0,0,1,0-1.39c.39-.43,1.34-.95,1.56-.77A8.17,8.17,0,0,1,185.44,78,30.45,30.45,0,0,1,187,82.78a8.2,8.2,0,0,1,0,7.14,2.19,2.19,0,0,0,0,3c1.47,1.52,1,3.2.95,4.94s0,3.2,0,4.8.87,4.32-.39,6.36a4.32,4.32,0,0,0,1.91,5.75,30.34,30.34,0,0,1,4.32,3.42c.31.26.31.87.39,1.3a5.94,5.94,0,0,0,.26,1.73,42.84,42.84,0,0,1,2.12,10,18.37,18.37,0,0,1,.39,5.63c0,.6-.73,1.21-1.12,1.77a23.16,23.16,0,0,1,.73,5.11c0,1.08-.82,2.12-.65,3.37s.48,3.72.65,5.58a10.75,10.75,0,0,1,0,1.39v3.2a62.36,62.36,0,0,1-.69,6.92c-.26,2.3-.61,3.33-.78,5s.26,2.68-.91,3.85c-.34.35,0,1.43,0,2.17a3.12,3.12,0,0,1,0,1.29c-.47,1.43-1.12,2.77-1.51,4.33a8.62,8.62,0,0,0,0,2.38c0,.48.26,1.13,0,1.38-1.78,2,0,4.72-1.34,6.8a1.66,1.66,0,0,0,0,1.56c1.25,1.68.21,2.29-1.39,2.85v6.49c-2.12,1.95-.34,4.33-.6,6.41V210c-2.12,2-1,4.72-1.65,7.05-.26,1-1.08,2.17,0,3.38a2.56,2.56,0,0,1-.47,1.64,6.66,6.66,0,0,0-.65,6,1.79,1.79,0,0,1-.35,1.6c-1.51,1.47-.95,3-.56,4.71a12.34,12.34,0,0,1,0,3.64,15.91,15.91,0,0,0,.39,8.65c1.12,2.25.3,4,.21,6,0,1.44.11,2.89.26,4.32,0,2.12.26,4.33.39,6.41a1,1,0,0,1,0,.69c-2.68,2.85-1.38,6.14-1,9.34a2.33,2.33,0,0,1,0,1.52,1.81,1.81,0,0,0,.19,2.56l.15.12a3.45,3.45,0,0,1,.78,3.72l-1.77,6.23a8.28,8.28,0,0,0,1.29-1.42c.91-2,1.93-4,3-6a14.89,14.89,0,0,1,3.2-2.72l5.46-4.33c.21,0,.47-.47.73-.52h4.8a11.69,11.69,0,0,0,6-1.64,3.2,3.2,0,0,1,1.47-.48,2.83,2.83,0,0,0,3-1.38,1.79,1.79,0,0,1,1-.69c3.9-1.3,7.75-2.69,11.68-3.73a7.48,7.48,0,0,0,4.33-2.38,2.75,2.75,0,0,1,1.51-.82c1.78-.34,2.43-1.73,3-3.07a7.42,7.42,0,0,1,5.79-4.93,7.72,7.72,0,0,0,2.86-1.95c1.6-1.43,3.12-2.94,4.67-4.33a5.18,5.18,0,0,1,1.47-1.25,20.44,20.44,0,0,0,10.48-9.3c1.64-2.69,2.94-5.54,4.58-8.22a6.36,6.36,0,0,1,2.55-2.25c3.34-1.65,6.8-3.08,10.17-4.63.35,0,.57-.57.83-.87s.73-1.17,1.16-1.21a5.53,5.53,0,0,0,4.59-3.94,1.23,1.23,0,0,1,.78-.91c1.73,0,2.08-1.73,2.9-2.77a16,16,0,0,1,6.18-5.36,20.36,20.36,0,0,0,5.41-3.29,71.84,71.84,0,0,0,5.11-5.5c1.9-2,3.94-4,5.84-6.05s3-3.42,4.33-5.11a20.2,20.2,0,0,1,7.05-5.62,36.8,36.8,0,0,1,7.1-3.12,25,25,0,0,1,8.3-1.51c6,.95,11.77-1.52,17.66-.87.65,0,1.25.26,1.9.3a10.53,10.53,0,0,0,4.11,0,9.88,9.88,0,0,1,7.36.44,4.29,4.29,0,0,0,2.51,0c2.12-.61,4.32-1.39,6.31-2.12,0,0,.48,0,.52-.35.7-2.25,2.73-3,4.33-4.33s3.55-3.24,5.32-4.84c2.47-2.17,5-1.26,5.58,2A3.92,3.92,0,0,1,392,171a53.83,53.83,0,0,0-4.32,4,14.36,14.36,0,0,1-1.91,1.17c-1.25.78-2.59,1.26-2.55,3.25s-1.95,2.25-3.16,2.51a26.66,26.66,0,0,0-12.76,6.66,96.88,96.88,0,0,1-12.08,8,9,9,0,0,0-4.28,4.37c-.26.95-1.64,1.6-2.47,2.38s-1.94,2.08-3,3-2.9,2.42-4.33,3.63c0,0-.56,0-.6.35-.65,4.33-4.72,4.72-7.32,6.84a26.82,26.82,0,0,1-4.32,3.07,37,37,0,0,1-5.11,1.82,4.62,4.62,0,0,0-1.43.51l-8.65,7.06c-.56.43-1.13.82-1.69,1.25s-1,.56-1,.87c0,2.33-2.16,3.2-3.2,4.8a48.5,48.5,0,0,1-3.59,3.72c-1.51,1.86-2.77,3.94-4.33,5.84a26.55,26.55,0,0,1-4.93,5.06c-3.24,2.56-7.18,3.81-10.34,6.37a36.79,36.79,0,0,1-5,2.5,49.11,49.11,0,0,0-5.14,3.34c-2.34,1.64-4.59,3.37-6.84,5.1s-3.33,2.43-4.85,3.77a28.1,28.1,0,0,0-7,7.61,36.42,36.42,0,0,1-4.85,5.67c-1.42,1.69-2.68,3.55-4.32,5.24s-2.86,2.89-4.11,4.32-3.38,4.59-5.07,6.84a42.45,42.45,0,0,1-4.06,5.1c-2.6,2.51-5.41,4.85-8.18,7.19-2,1.6-4,3.11-6.06,4.63a34.46,34.46,0,0,1-3.33,2.29,73.14,73.14,0,0,1-6.71,3.59A72.89,72.89,0,0,1,202,327.2c-1.82.61-3.68,1.08-5.36,1.56a9.18,9.18,0,0,1,.26,1.82s-1,.56-1.13.43a9.44,9.44,0,0,1-1.08-1.73l-3.38.91c1.13,2.07,3.29,2.12,5.07,2.85a6.86,6.86,0,0,1,2.85,1.86c1.13,1.47,1.86,3.25,2.86,4.81a5.18,5.18,0,0,0,1.56,1.6,66,66,0,0,0,6,3.5c1.39.69,3,.87,4.33,1.43,2.12.86,4.33,1.95,6.19,2.85a14.61,14.61,0,0,1,2.12.7c1.51,1,2.94,2.25,4.32,3.33a8.07,8.07,0,0,0,2,.95c1.25.43,2.51.74,2.72,2.38a1.28,1.28,0,0,0,.78.78,11.31,11.31,0,0,1,5.28,4.33c.35.39.26,1.08.52,1.51a5.34,5.34,0,0,0,1.25,1.47c1.26.95,2.6,1.78,3.86,2.68.21,0,.6.44.56.65-.22,2.82,2.51,4.33,3.07,6.75a47.81,47.81,0,0,0,3.42,7,5.08,5.08,0,0,1,.21,1.86v3.68a7,7,0,0,1-.21,1.43,8.55,8.55,0,0,1-.65,2.16c-.69,1.13-1.51,2.21-2.42,3.46.91,2.34,3.54,2.6,5.88,2.95a26.34,26.34,0,0,1,9.13,2.68c1.26.69,2.94,1.77,4.33,0,0,0,1.25.65,2.07,1.12.83-1,1.91-.78,3,.52s1.9,2.12,2.9,3.16a4.51,4.51,0,0,0,1,.69,13.09,13.09,0,0,1,3.29,2.08,26.2,26.2,0,0,0,6.1,5.5,27.52,27.52,0,0,1,4.72,5.1c2,2.12,4.07,4.33,5.93,6.36a7.59,7.59,0,0,1,1.43,3.07,5.56,5.56,0,0,0,2.81,3.94,8.71,8.71,0,0,1,2.59,2.68c1,1.56,1.69,3.38,2.82,4.81a5.9,5.9,0,0,0,2.94,1.64c2.12.65,4.33.91,6.45,1.56a14.66,14.66,0,0,1,5.06,2.29,16.39,16.39,0,0,0,4.54,2.51c1.08.43,2.25.56,3.33,1s1.91,1.16,2.9,1.6a11.87,11.87,0,0,0,2.42.52,3.24,3.24,0,0,1,1.48.21,10.88,10.88,0,0,0,6.83,1.65,9.36,9.36,0,0,1,2.86.95c.3,0,.65.43.91.39,1.86-.35,2.12,1.38,3.07,2.25v.3c-.87,1.17-1.56,3-2.73,3.38a14,14,0,0,1-9-1.26,17.37,17.37,0,0,0-9.09-1.86,2.92,2.92,0,0,1-2-.3,13.16,13.16,0,0,0-5.67-1.34l-8-1.69a5.23,5.23,0,0,0-1.25,0,8.65,8.65,0,0,1-8.48-5.15,16.51,16.51,0,0,0-2.94-3.25,3.51,3.51,0,0,1-3.81,1.56c-1.65,0-3.25-.65-4.85-.65a19.32,19.32,0,0,1-8.35-2.16,86.22,86.22,0,0,1-8.65-5.11,32.46,32.46,0,0,1-3-1.64c-1.73-1.21-3.33-2.6-5-3.89-3.33-2.64-6.79-5.11-9.87-8-4-3.68-7.65-7.7-11.46-11.59-.35-2.69-.74-5.33-.95-8a2.06,2.06,0,0,1,1.42-1.3,7.46,7.46,0,0,1,3.21,1c2.94,1.86,3,5.54,4.89,8.09a19.48,19.48,0,0,0,1.86,2.3c2.12,2.07,4.32,4.32,6.44,6.14a12.12,12.12,0,0,0,2.86,1.25,8.8,8.8,0,0,1,2.34,1.3c1.47,1.39,2.63,3.07,4.32,4.33a28.26,28.26,0,0,0,4.33,3c1.64,1,3.81,1.38,5,2.72s3.77,1.69,5.41,2.73a57.76,57.76,0,0,0,9.52,3c.65.25,1.3.43,2.47.77-.78-1.16-1.39-2-2-2.94-.95-1.69-1.73-3.5-2.81-5.15s-2.86-3.72-4.33-5.62c-.52-.69-.78-1.52-1.25-2.25s-.69-1.17-.95-1.17c-1.78,0-2-1.25-2.77-2.29a14,14,0,0,0-2.56-2.86c-3.11-2.64-6.23-5.32-9.56-7.7a36.1,36.1,0,0,0-6.06-3,28.49,28.49,0,0,0-4.06-1.64c-1.13-.35-2.38,0-3.51-.52-3.63-1-7.27-2.17-10.86-3.29a54.86,54.86,0,0,1-9.95-6.1,64.67,64.67,0,0,0-6-2.51,36.47,36.47,0,0,1-4.33-2.17,29,29,0,0,1-10.56-13.62,11.51,11.51,0,0,0-6.23-6.49,77.61,77.61,0,0,1-11.85-5.67,39.75,39.75,0,0,1-3.55-2.77c-1.69-1.17-3.55-2.08-5.15-3.33a41.46,41.46,0,0,1-3.33-3.42,69.92,69.92,0,0,1-5.37-4.8c-2.48-2.94-4.82-6-7-9.18a16.58,16.58,0,0,1-1.42-4c-2,.87-4,1.69-6,2.64a19.73,19.73,0,0,0-7.06,6,26.07,26.07,0,0,1-6.18,5.14c-1.3,1-2.25,2.34-3.51,3.34a20,20,0,0,1-4.33,2.81,41.72,41.72,0,0,1-5.84,1.51h-.52c-1.68.78-3.28,1.65-5,2.34-3.25,1.38-6.58,2.64-9.82,4.11a44.55,44.55,0,0,0-3.85,2.42,6.94,6.94,0,0,1-2,.52h-1.16c-1.56,1-3.9.26-5,2.38,0,.3-1.52,0-2.34,0a20.42,20.42,0,0,1-3.81-.52,3.26,3.26,0,0,0-3.33.69,23.26,23.26,0,0,1-4.71,2.21c-.39,0-.78.52-1.17.65s-1.34.52-1.65.3a3.68,3.68,0,0,0-2.38,0,4.33,4.33,0,0,0-3.21,5.21,4.46,4.46,0,0,0,.31.89,2.58,2.58,0,0,1,.26,1.52c-.52,1.69-1.16,3.37-1.86,5.28A13.44,13.44,0,0,1,87.7,396a64.55,64.55,0,0,0-1,7.83c0,.61.65,1.21.82,1.86s.74,2,.39,2.6,0,1.73,0,2.55c0,2.47,1,5.06-.69,7.36a1,1,0,0,0,0,.95c1.17,1.38,0,1.77-.87,2.38a3.72,3.72,0,0,0-1.38,1.51A2.47,2.47,0,0,1,82.68,425c-.78,0-1.47.86-2.25.91-3.16.21-6.32.21-9.48.47a23.65,23.65,0,0,0-4.32,1l-3.85,1.08a10.69,10.69,0,0,0-1.56.65l-6.71,3.33h-.3c-2.73,1.47-2.73,1.47-5.11-.78A15.83,15.83,0,0,0,46.64,438c0,2-.74,3.93-1,5.93a10.44,10.44,0,0,0,.48,6.75,2.16,2.16,0,0,1,0,1.42,26.87,26.87,0,0,1-1.48,4.55c-.77,1.6.52,2.81.48,4.32a2.54,2.54,0,0,1-.91,1.69c-1.69,1.3-3.68,2.16-4.54,4.33,0,.47-1.26,1.08-1.39,1-1.42-1.12-2.42,0-3.41.65s-1.43.74-1.95,0a7.06,7.06,0,0,1-.52-1.9l.47-.22a16.38,16.38,0,0,1-3-2.08,7.23,7.23,0,0,1-2-4.54,26.75,26.75,0,0,0-.52-8.65c0-.48.26-1.26.26-1.86v-8.87c.3-4.07.82-8.09,1.16-12.12V424a70.77,70.77,0,0,1,.78-7.92c.44-3.55.91-7.1,1.34-10.65.35-2.68.7-5.41.91-8.09s0-4.33,0-6.66.39-5.71.65-9c-2.25,1.43-4.32,2.59-6.31,3.94a14.78,14.78,0,0,0-4.33,5A16.68,16.68,0,0,1,17,395a43.15,43.15,0,0,1-4.85,2.9,7.54,7.54,0,0,0-3.07,4.71c-1.08,2.9-2.21,5.8-3.33,8.66,1.3,1.77,1.21,2.68-.39,4.32a6.05,6.05,0,0,0-.87,2.08c-.77,2.51-1.42,5-2.38,7.49a45.64,45.64,0,0,0-2.94,9.43,41,41,0,0,1-1.6,5.23,4.27,4.27,0,0,0,0,1.13,7.34,7.34,0,0,1,2.55.82c.26.22,0,1.34-.26,2L-3,443.2l-2.16,10.13.43.26c.69-.57,1.34-1.13,2-1.65a5.54,5.54,0,0,1,1.86-.78,13.26,13.26,0,0,0,6-3.07,6.11,6.11,0,0,1,3.16-1.21,51.36,51.36,0,0,1,6-.6c.34,0,.73.34,1.12.34h1.73c1.52-1.21,1.47-1.25,3.07-.34a3.51,3.51,0,0,1,4.89-2.56,2.47,2.47,0,0,1,1.65,3,20.85,20.85,0,0,1-.82,4.71,3,3,0,0,1-2.08,1.43,40.68,40.68,0,0,1-5.63.43c-1.51,0-3.07,0-3.8,1.74a1.54,1.54,0,0,1-1.39.25c-1-.9-1.73-.34-2.59,0-2.64,1.17-5.28,2.21-7.84,3.51-.82.43-1.21,1.6-2,2.21-2.07,1.64-4.32,3.28-6.44,4.71a7.26,7.26,0,0,1-2.6.52c-.87,2-2.38,2.34-4.07.78a12.6,12.6,0,0,0-1.34-.91,4.72,4.72,0,0,1-1.88-6.4,4.75,4.75,0,0,1,1.1-1.34,15.28,15.28,0,0,0,3.68-9.82c.39-3.68.26-7.45.52-11.12a16.7,16.7,0,0,1,.91-2.86c.52-1.95,1-3.94,1.47-5.89a2.8,2.8,0,0,1,.82-1.34c2.9-2.38,3.16-6.14,4.72-9.21.56-1.17,0-2.9,0-4.33a42.4,42.4,0,0,1,4.32-11.94,10.07,10.07,0,0,0,1.78-6.66,2,2,0,0,1,.91-1.3,10.41,10.41,0,0,0,4.58-3.38,4.41,4.41,0,0,1,2.12-1.43c2.56-.9,3.42-3.41,5.07-5.14s4.32-4.33,6.27-6.11A19.19,19.19,0,0,1,26,375.57a7.26,7.26,0,0,1,1.91-.43c.6-2.16,1.73-2.38,4-1.38a5.52,5.52,0,0,0,4.33,0,3.59,3.59,0,0,1,4.32.6c.35.26.35,1.39,0,1.95a8.93,8.93,0,0,1-1.51,1.95l1.17.86a1.73,1.73,0,0,1,.56,2.81c-.35.48-.3,1.22-.48,1.82s-.6,1.6-.86,2.38a4.87,4.87,0,0,0-.48,1.95c0,1.6.82,3.16.91,4.76a26.74,26.74,0,0,1-.56,4.63,24.82,24.82,0,0,0-.56,4.63c0,1.56.56,2.94-.87,4.32a2.33,2.33,0,0,0-.3,2.25c.82,1.13,0,1.91,0,2.9-.52,2.64-.82,5.28-1.17,7.92s-.56,5-.78,7.53-.48,5.54-.61,8.31,0,4.32,0,6.66c-.3,3-.21,6.1-.34,9.13,0,1.65-.48,3.29-.39,4.89a11,11,0,0,0,1.21,3.12h.87l2.42-17.31c-1.64,1.08-2.47.39-3-.95-1-2.34-.73-4.33.57-4.76a1.6,1.6,0,0,1,2.29,1.42,7.1,7.1,0,0,0,.35,2.34L39.8,434l-1.25-2.21,2.07-.95.52.43c.35-1.64.65-3.28,1-4.89a62.85,62.85,0,0,0,2-15.14,18.8,18.8,0,0,1,0-2.6c.21-1.73.82-3.41.91-5.19a58.46,58.46,0,0,0,0-6.75c0-4-.39-7.83,3.67-10.42a34,34,0,0,0,5.11-4.63,75.94,75.94,0,0,0,5.93-6.75,31.61,31.61,0,0,0,3.85-6.41,17.23,17.23,0,0,0,.86-4.33c.22-1.34.52-2.5,2.34-1.9a1.11,1.11,0,0,0,.82-.26c1.82-1.25,3.55-2.59,5.41-3.72a9,9,0,0,1,3-.69,14.44,14.44,0,0,0,2.08,0c1.81-.61,3.5-1.56,5.36-2s2.64.3,3.85,0c2.69-.48,5.24-1.34,7.92-1.91a6.88,6.88,0,0,1,5.76.48,2.16,2.16,0,0,0,2.89-.26A19.88,19.88,0,0,1,106,352.6a2.78,2.78,0,0,1,3.64.6c.73.74,1.29,1,2.07,0a1.73,1.73,0,0,1,.91-.51,8.66,8.66,0,0,0,6-5.59,21.74,21.74,0,0,1,3.68-5.14,18.94,18.94,0,0,1,3.76-2.38,2,2,0,0,0,.78-.87c1-2.25,1.52-2.47,4.07-2.12a2.87,2.87,0,0,0,1.86-.35c1.6-1,3-2.33,4.63-3.33a11.26,11.26,0,0,1,4.11-1.9c1.82-.26,2-1.47,2.25-2.68A30.18,30.18,0,0,0,143.86,323.87Zm40.76.52A38.56,38.56,0,0,0,197,319.63c-2.73-.65-4.33-1.86-4.33-3.33a42,42,0,0,1,.86-6.8c.65-2.72,1.73-5.32,2.64-8h-.39c-2.12,1.17-4.84,1.34-6,4a2.42,2.42,0,0,1-1,1c-.56.34-1.29.38-1.68.82-1.39,1.55-2.64,3.2-4,4.84,2.94.61,3.5,3,1.34,5.89a3.44,3.44,0,0,1,1,.3,7.71,7.71,0,0,1,2.38,1.86,6.59,6.59,0,0,1-1.17,2.08,26.37,26.37,0,0,1-2.16,2.2c-2.08.31-4.33-.56-6.14,1.26-.48.48-1.65,0-2.34.52a7,7,0,0,0-1.86,1.73s0,.65.43.86a.48.48,0,0,0,.74-.21c1.56-2.29,3.81-1.39,5.36-1.34,1.17-.74,2-1.3,2.82-1.86A9.2,9.2,0,0,0,184.62,324.39ZM288.07,247.8a35.35,35.35,0,0,1,2.51-2.68c2.08-1.73,4.33-3.37,6.36-5.15a5.47,5.47,0,0,0,.91-1.47,11,11,0,0,1,2-3.07,50.17,50.17,0,0,0,7.32-9.35c.78-1,1.68-2.64,2.55-2.68,3,0,4.59-2.38,6.79-3.68a19.49,19.49,0,0,1,4.81-2.81,15.78,15.78,0,0,0,9.64-5.63,77.45,77.45,0,0,1,6.06-6.36c1.43-1.47,3-3,4.33-4.32s2.64-2.51,3.85-3.9,1.82-3.8,4.33-3.8a.82.82,0,0,1,.26-.61c.9-.95,1.68-2.38,2.76-2.73a25.57,25.57,0,0,0,8.92-5.53,7.77,7.77,0,0,1,2.29-1l1.47-.57v-.51h-1.34c-3,0-6.06.43-9.09.47-2.16,0-4.32-.39-6.53,0-4.84.52-9.6,1.6-14.45,1.86a22.33,22.33,0,0,0-8.65,3.38c-2,1-3.38,3.29-5.07,5s-2.55,2.59-3.76,3.93-2.47,2.9-3.81,4.33-2.33,4.59-5,5.67a15.16,15.16,0,0,0-4.32,2.46,76.83,76.83,0,0,0-6.75,4.85c-1.22,1.3-2.64,2.38-3.73,3.77-1.6,2-2.5,4.58-5,6A36.92,36.92,0,0,1,280,228a34.49,34.49,0,0,0-5.41,2.77c-3.2,1.69-4.33,5.1-6.88,7.48-.48.48-1.17,1.13-1.21,1.69,0,2.47-2.17,3.55-3.46,5.15a37.49,37.49,0,0,1-8.66,7.27c-1.56,1-2.81,2.51-4.32,3.63a81.09,81.09,0,0,1-7.49,5,3.85,3.85,0,0,0-2,3.25c0,.69-.35,1.81-.78,2a9.43,9.43,0,0,0-3.85,2.81,1.1,1.1,0,0,0-.65.21l-5,1.95c-1.25.52-2.5,1.56-3.76,1.52a16.73,16.73,0,0,0-7.92,2.46,11,11,0,0,1-3.24,1.17c-1.34,0-2.73,0-3.68,1.17,0,.26-.87,0-1.34.26l-4.11.78v.86a14.84,14.84,0,0,1,3,0c.7,0,1.73.56,1.86,1.08.44,1.65,1.43,3.47-.47,5.24a6,6,0,0,0,1.34,0l2.81-.82a15.37,15.37,0,0,0,6.62-3.38c.78-.65,2.51-.3,3.81,0,.35,0,.91.91.86,1.34s-.73.83-1.16,1.13a6.91,6.91,0,0,1-1.22.6c2.51,1.3,2.64,1.43.87,3.34a21,21,0,0,1-4.33,3.15c-2.77,1.74-6,2.34-8.65,4.33a43.78,43.78,0,0,1-8.18,3.59,2.25,2.25,0,0,1,.74,3c-1.17,3-2.25,6-3.29,9a17.3,17.3,0,0,0-1.3,4.33,5.31,5.31,0,0,1-1.86,4.58,25.32,25.32,0,0,0,9.13-2.55c.61-.34,1.3-1,1.82-.86,2.16.52,3.46-1,4.84-2s2.56-2.86,4-4.07a43.5,43.5,0,0,0,4.89-3.55c2.42-2.55,5.23-4.72,7.74-7.18s4.33-4.54,6.49-6.92a12.69,12.69,0,0,0,2-3.08c.78-1.73.26-4.32,3.51-4.32,0,0,.39-.44.56-.61l5.24-5.67c1.34-1.47,2.76-2.85,4-4.32a36.93,36.93,0,0,0,2.55-4.33v-.78a5.53,5.53,0,0,1,1.25-1.77c1-.74,2.64-1,3-1.91,1.17-2.55,3.9-2.59,5.71-4.32a62.32,62.32,0,0,1,5.59-3.51c1.08-.73,1.9-2.29,3-2.55a43.66,43.66,0,0,0,9.13-4.85c2-.78,2.82-4.71,5.84-3.07ZM64.07,383l.31.44c.78.65,1.21,1.38.39,2.25s-1.52,0-2.08-.57-.91-.3-.95,0a6.82,6.82,0,0,1-3.2,2.56A39.35,39.35,0,0,0,53.26,391c-2.3,1.47-1.95,2.9-.44,4l.65.56c1.48,1.47-.26,2.25-.52,2.81l1,2.51-2.42.78c0,2.51.39,5.36.47,8.26a8.29,8.29,0,0,1-.39,4.33,7.8,7.8,0,0,0-1,4.33,17,17,0,0,1-.25,2.46c-.35,2.17-.7,4.33-1.13,7,1.43-1,2.38-1.69,3.29-2.42,2.59-2.08,5-4.63,8.65-4.33a1.26,1.26,0,0,0,.65-.22,9.16,9.16,0,0,1,7.75-1.81,5,5,0,0,0,1.6-.83c.52-.3,1.12-1.21,1.6-1.21,1.82.52,3.55-.65,5.36,0,.74,0,1.3,0,1-1.21a12.7,12.7,0,0,1,0-3.59c0-2.64.56-5.28.56-7.92,0-3.89-.26-7.79-.3-11.68a55.91,55.91,0,0,1,.43-5.63c.26-2.55-.6-5.19.61-7.7V379a40.74,40.74,0,0,1,.95-5,6.8,6.8,0,0,1,2-2.55A34.64,34.64,0,0,1,88,368.05a26,26,0,0,1,3.9-1.61h.73c1.26-.9,2.47-1.9,3.81-2.72a3,3,0,0,1,1.82-.39,2.64,2.64,0,0,0,2.51-.65,1.77,1.77,0,0,1,1.12-.43,47.07,47.07,0,0,1,8-.3,17.85,17.85,0,0,0,8.09-1.52,4.65,4.65,0,0,0,1.08-.78l-.26-.47a7.42,7.42,0,0,1-2.42,1.12c-4.33.22-8.35.3-12.51.43a4.94,4.94,0,0,0-3.5.83,3.58,3.58,0,0,1-3,.47c-3.33-1.34-6.19,1-9.3,1a14,14,0,0,0-3.81.43c-3.33,1-6.62,2.34-10,3.07-2.08.48-3.51,1-3.51,3.33v.31ZM177.74,100.52a67.19,67.19,0,0,0-1.17,9.52,14.36,14.36,0,0,0,0,5.84c.74,2.07-2.38,3.46-.6,5.45a2.26,2.26,0,0,0-.52.87c-.52,2.25-1,4.32-1.47,6.74a.84.84,0,0,0,.21.65c1.43,1.6.57,3.16,0,4.81s-1.64,3.54,0,5.36a1.19,1.19,0,0,1,0,.87,40.32,40.32,0,0,0-.78,8.35,70.5,70.5,0,0,0-.3,8.22c.43,2.12,0,4.33.48,6.19a3.51,3.51,0,0,1-1,3.54c.82,1.43,1.82,2.9.82,4.33s-.3,2.6,0,3.9.48,2.38.65,3.59a6,6,0,0,1,0,1.81c.3,1.52.74,3,1.08,4.55.69,3,1.39,6,2,8.95s1.09,5.15,1.52,7.75a15.15,15.15,0,0,0,.3,2.85c.87,2.12,1.91,4.33,2.94,6.32a4.41,4.41,0,0,0,.65-1.43c.65-6.49,1.3-13,1.82-19.51a61.49,61.49,0,0,1,2.47-13.59,24.14,24.14,0,0,0,1.08-4.76c.56-5.58,1.12-11.16,1.43-16.78s.3-10.91.34-16.36V128.21a6.18,6.18,0,0,0-.39-3.07,29.32,29.32,0,0,0-4.32-5c-2.51-2.33-5.11-4.33-3.81-8.65a2,2,0,0,0,0-.69,26.44,26.44,0,0,1,0-6.41,22.8,22.8,0,0,0-.61-7.22C179.69,99,180.47,101,177.74,100.52Zm65.9,291.58a40.78,40.78,0,0,1-.78-5.15c0-1.77.39-3.59.26-5.32a10.72,10.72,0,0,0-2.6-7.44c-1.47-1.43-3-2.81-4.32-4.33a49.06,49.06,0,0,0-8.66-8.13,94.59,94.59,0,0,0-21.63-11.12,18.92,18.92,0,0,1-9.09-5.84,59.6,59.6,0,0,0-4.32-6.15,16.44,16.44,0,0,1-3.94-7.05l-4.85,2A5.48,5.48,0,0,1,186,339a1.73,1.73,0,0,1-2.9,1.17,10.3,10.3,0,0,0-1.86-.74c.35,1.47.61,2.56.82,3.64.35,1.77,4.07,3.67,4.72,2.85a7.42,7.42,0,0,1-.48-2.38,8.61,8.61,0,0,1,1.22-3.11,23.42,23.42,0,0,1,2.64-2.9c.82.91,2,1.64,2.38,2.68a10,10,0,0,1,.51,4.89c-.3,1.56.74,4-1.68,4.33A16,16,0,0,0,193,353a11.47,11.47,0,0,0,6.93,4.32,3,3,0,0,1,2.84,3,2,2,0,0,1,0,.34c2.47.91,5,1.68,7.44,2.81a31,31,0,0,1,5.8,3.42,15.68,15.68,0,0,1,2.81,3.42c.82,1.12,1.34,2.72,2.43,3.41,2.5,1.61,2.85,4.33,4.32,6.62a8.16,8.16,0,0,0,2.86,2.86,17.31,17.31,0,0,1,4.32,3.07,7.32,7.32,0,0,0,3.6,2.12,27.56,27.56,0,0,1,4.32,2.47C241.69,391.28,242.69,391.63,243.64,392.1Zm-92.42-74.38c0,3.94-.48,7.27-.44,10.65a2.24,2.24,0,0,0,1.3,2.47c1.3.47.95,1.47.31,2.42s-2.08.65-3.34-.43a9.75,9.75,0,0,1,0,2.16,3.36,3.36,0,0,1-1.08,1.82c-2,1.08-4.32,1.81-6.06,3-3.46,2.12-8,2.12-10.77,5.54-2.21,0-2.77,2.12-3.81,3.63,1,.78,1.56,1.69,0,2.51a3.3,3.3,0,0,0-1.73,2.34c0,.52-.91.95-1.43,1.3a3.89,3.89,0,0,1-1.16.3l1.6,2.12a25.75,25.75,0,0,1,2.46-2.55,11.78,11.78,0,0,1,2.56-1.34l7.57-3.42c2.9-1.3,5.8-2.6,8.65-4a2.1,2.1,0,0,0,.91-1.08,3.3,3.3,0,0,1,3.29-2.17,1.9,1.9,0,0,0,1.25-.43,39.18,39.18,0,0,1,2.69-3.24c1-.91,1.16-3.29,3.28-3.73.74,0,1.39-.86,2-1.34a8,8,0,0,1,1.3-.91c1.47-.6,3-1,3.76-2.68,0-.3.78-.47,1.21-.56l5.58-1.17c-2.51-1-2.38-2.64-2.29-4.59a10.67,10.67,0,0,1,4.33-7.74,6,6,0,0,1,2.12-1.13c1.51-.43,3.07-.69,4.58-1v-.52a19.48,19.48,0,0,0-2.38.43,60.11,60.11,0,0,1-14.4,1.47,41.61,41.61,0,0,0-4.33.3C156.06,316.51,153.55,317.16,151.22,317.72Zm59.19-31.88c-2.55-1.65-2.51-1.6-3.81,1.12a3.34,3.34,0,0,1-2,1.56,2.67,2.67,0,0,1-1.73-1.17c-.91-1.77-1.6-3.68-2.55-6a26.19,26.19,0,0,0-3.81,2.73,12.46,12.46,0,0,0-2,3.37c-1.26,2.55-2.47,5.15-3.68,7.7l.43.43,1.69-1.16c.43-.31.73-.87,1.21-1a24.72,24.72,0,0,1,6.14-2.08,23.61,23.61,0,0,0,7-2.51c1.47-.65,3.07-.86,3.12-3ZM181.5,334.43v-.74c-.95,1.6-1.81,3.89-3.41,1.26l-2.34,1,4.33,2.29Zm-57.8,24-3.38-.91-.82.87C121.19,359.61,122.53,359.74,123.7,358.44Z"/><path d="M39,227.64c-.74.65-1.3,1.51-1.86,1.51a1.28,1.28,0,0,1-.91-1.81s-.35-.52-.61-.61A23.68,23.68,0,0,1,25.44,217a108.47,108.47,0,0,1-8.66-12.59,20,20,0,0,0-2.55-3.46,87.81,87.81,0,0,1-6.4-7.1,91,91,0,0,1-5.72-9.6A25.57,25.57,0,0,1,.3,179.27,8.39,8.39,0,0,0-4,173.86c-2.68-1.3-5.45-2.38-8.22-3.59a4.36,4.36,0,0,1-1.3-.87,41.17,41.17,0,0,1-4.33-4.33,11.39,11.39,0,0,1-.26-3.11c0-1.08,1-1.65,0-2.77a5.52,5.52,0,0,1,1.74-2.29c.77-.48,1.55.3,2.29.65s1.51,1.34,2.38,1.47A28.75,28.75,0,0,1,.08,164.73l2.47-.56v2.29H1.81c2.73,3.46,5.24,7,8.22,10.25A71.49,71.49,0,0,0,16.22,181c2.94,2.55,7,2.21,10.12,4.33a6,6,0,0,1,3.29,3.89,9.25,9.25,0,0,1,7.62,4,27.67,27.67,0,0,0,3.33,3.07c2.42,2.46,4.72,5.06,7.18,7.48a8.74,8.74,0,0,0,2.69,1.52,15.15,15.15,0,0,1,2.42.78c2.16,1.51,4.33,3.15,6.45,4.84.86-.47,1.55,0,2.37.91,1.61,2.21,3.42,4.33,5.2,6.4s3.29,2.9,3.5,5.33a2.12,2.12,0,0,0,.65,1,95.74,95.74,0,0,0,7.18,7.75,20.25,20.25,0,0,1,3.55,4.33A43.21,43.21,0,0,0,86.88,242c1.55,1.64,2.94,3.46,4.32,5.14s2.82,2.64,4.07,4.07c2.08,2.38,4.11,4.8,6,7.36a106.64,106.64,0,0,0,6.88,9.86c3.77,4.07,7.75,7.92,11.17,12.38,1.42,1.86,2.94,3.63,4.32,5.45a5.61,5.61,0,0,1-.3,6.23c1.47-.43,2.81-.87,4.33-1.17a1.69,1.69,0,0,1,1.25,0c.69.52,1.26,0,1.9,0a12,12,0,0,1,4.33,1.08,5.94,5.94,0,0,1,2,1.43c1.87,1.86,3.68,3.81,5.5,5.71,0,0,.39.61.61.61,2.59,0,4.06,3.29,7,2.55a2,2,0,0,1,1.21,1,2.18,2.18,0,0,1-.61,1.51c-1.73,2.12-4.33,2.12-6.71,2.51a4.7,4.7,0,0,1-2.85-1,18.68,18.68,0,0,1-6.15-6.44A2.64,2.64,0,0,0,132,298.9a72,72,0,0,1-8.31,0c-1,0-2.08.26-3.16.31-2.21,0-4.33.3-6.58.3-.52,0-1.47-.56-1.51-.87,0-1.16-1-1-1.6-1.42-2.25-1.56-4.33-3.25-6.67-4.81a15.82,15.82,0,0,0-3.59-2.07c-1.42-.52-2.59-1.65-4.32-1.26-.52,0-1.3-.69-1.86-1.21a7.26,7.26,0,0,0-3.38-1.6,11,11,0,0,1-4.63-2.6,50.1,50.1,0,0,1-5-5.58,24,24,0,0,1-2.59-4.72c-1.13-2.55-2.08-5.19-3.08-7.83A16.05,16.05,0,0,0,69,258.27c-2.25-1.47-4.71-2.55-6.79-4.32a42.61,42.61,0,0,1-6.75-6.54,39.14,39.14,0,0,1-3.55-6.79,41.55,41.55,0,0,0-3.8-7.27,21,21,0,0,0-5.63-3.68C41.27,228.89,40,228.2,39,227.64ZM118.64,292c-2.82-3.5-5.41-6.83-8.1-10.08q-2.94-3.58-6-7.05c-.69-.78-1.69-1.34-2.38-2.08a66.39,66.39,0,0,1-7.22-10.38,50.55,50.55,0,0,0-6.15-7.23c-2.08-2.25-4.33-4.32-6.45-6.49C81,247.24,80,245.51,78.66,244c-4.94-5.67-9.87-11.3-14.59-17.14a28.86,28.86,0,0,1-2.63-3.2A21.2,21.2,0,0,0,53.82,216c-3.37-1.82-7-3.24-10.3-5.23a13.31,13.31,0,0,1-6.14-5.54,2.27,2.27,0,0,0-.61-.83c-1.86-1.47-3.2-3.63-5.62-4.32-.35,0-.61-.65-.87-1a6.24,6.24,0,0,0-3.81-3.42,3.46,3.46,0,0,1-1.12-.47,36.64,36.64,0,0,0-4.07-3c-2.16-1.12-4.32-1.86-6.7-2.9a16,16,0,0,1-2.43-1.73v.35l4,3.55c1.13,1,2.95,1.86,3.25,3.07a6.6,6.6,0,0,0,1.82,2.9c.77.91,1.6,1.77,2.33,2.77v1.25a4.44,4.44,0,0,0,.91,2.38c1.26,1.13,2.77,1.91,4.11,3a1.73,1.73,0,0,1,.48,1.56,3.4,3.4,0,0,0,.95,3.89c1.77,1.9,2.81,4.63,5.71,5.37.26,0,.48.34.69.56l3.33,3.46c.65-.61,1.22-1.47,1.69-1.47s1,.86,1.56,1.34,2.42-.39,3.33,0,1.43,1.86,2.21,2.9a2.76,2.76,0,0,1,3.38,2,2.36,2.36,0,0,1,.08.45c.3,1.34.69,2.51,2.42,2.9a1.61,1.61,0,0,1,1.26,2.42c-.31.65-.65,1.86-.35,2.17,2.21,2,1.43,6.18,5.11,7.14a4,4,0,0,1,.52.47c1.42,2,2.85,4,4.32,6,.57.74,1.13,1.69,1.91,1.95a29.79,29.79,0,0,1,9.56,7A8.76,8.76,0,0,0,80,259c1,.3,1.38.91,1.51,2.29a9.43,9.43,0,0,0,2.17,5.67,24.67,24.67,0,0,1,3.37,5.36c1.13,1.86,1.51,4.33,4.33,4.72.3,0,.69.52.82.86,1,3.55,4.33,3.21,6.84,3.94a26.41,26.41,0,0,1,2.55,1,10.65,10.65,0,0,1,4.76,2.25,6,6,0,0,1,0,1c.47,1.47.78,3.07,2.9,2.89a2.62,2.62,0,0,1,1.08.52l3.37,2.64a1.24,1.24,0,0,0,.78.26Z"/><path d="M181.2,396.13h1.34a.81.81,0,0,0,0-.31v-.34c0-2.94.26-5.89.52-8.66s.57-5.62.82-8.39c0-.3-.3-.61-.38-.95s-.44-1.21,0-1.52c1.47-1.9.38-3.85.38-5.79a48.34,48.34,0,0,1,.78-8.66c0-.56,1.52-1.08,2.38-1.3a1.79,1.79,0,0,1,1.52.78,18.41,18.41,0,0,1,1.86,5.24,16.11,16.11,0,0,1-.95,4.71,10.54,10.54,0,0,1-.35,1.65c-.09.56-.3,2.25-.48,3.5a16,16,0,0,0,0,2.86v3.16c0,1.08-.34,1.69-.39,2.55s0,2.16,0,3.25c0,2-.51,4-.64,6s0,3,0,4.33,1.08,3.37-1.35,4.32c-.86.35-.47,3,.52,3.94s1.73,1.95.7,3.64c-.44.73.34,2.25.56,3.37s.43,1.13.3,1.6a7.35,7.35,0,0,0,.3,6.75,1.06,1.06,0,0,1,0,.95,5.62,5.62,0,0,0-.6,4.72,25.62,25.62,0,0,1-.3,4.63,9.48,9.48,0,0,0,.73,4.07c.74,1.42,0,2.64,0,3.89A25.9,25.9,0,0,0,188,443c0,3.07.35,6.19.3,9.26s-.47,5.15-.64,7.74,0,5.33-.44,8a5.48,5.48,0,0,1-1.21,2.25,20.13,20.13,0,0,1-1.6,1.86,3.07,3.07,0,0,1,1.21,3.89c-.82,1.13-1.82.87-2.72,0-.65,1-1.22,2-1.95,2.94s-1.56,1.65-.82,2.9a.43.43,0,0,1,0,.35c-1.6,1.86,0,3.76,0,5.62s-.39,4.33-.57,6.28v3.54c-1.08,1.22-.43,2.08,0,3.25a5.71,5.71,0,0,1,.39,3.29,24.32,24.32,0,0,1-1.29,4,2.56,2.56,0,0,1,1.53,3.27l-.06.15a13.61,13.61,0,0,0,0,4.32,21.69,21.69,0,0,0,0,3.42,9.38,9.38,0,0,1-.35,4.67,8.64,8.64,0,0,0,0,7.14,2.26,2.26,0,0,1,0,3.08s-.39.6-.3.78c.86,1.55,0,2.42-1.13,3.33.87,1.34,1.08,4.32,0,4.63a2.72,2.72,0,0,1-2.33,0c-2.3-1.56-2.69-2.73-1.91-4.33a5.71,5.71,0,0,1-2.72-6.84,62.43,62.43,0,0,0,0-14.84,14.59,14.59,0,0,1,0-2.29c0-.35.3-.82,0-1-1.21-1.34-.65-2.59,0-4a2.5,2.5,0,0,0,0-1.9,12.08,12.08,0,0,1-.22-9,26.49,26.49,0,0,0,0-5.63,25.2,25.2,0,0,0-1.08,2.64,6.79,6.79,0,0,0-.56,3.2,10,10,0,0,1-.7,6.75,6.12,6.12,0,0,0,0,5.76,1.72,1.72,0,0,1,0,1.47c-.95,1.43-.21,2.51.39,3.76a1.93,1.93,0,0,1,0,1.78,1.86,1.86,0,0,0-.39,2.33c.61,1.65,1.13,3.38,1.69,5,.35,1-.65,2.21-1.51,1.78-2-1-4.33-.87-5.84-3,0-.3-.57-.52-.65-.82-.65-2.33-1.08-4.76-1.95-7s.39-3.55.48-5.32,0-4.33.3-6.41a6.17,6.17,0,0,1,0-.86,49.64,49.64,0,0,1,.95-5.15c.74-2.55,1.64-5.06,2.51-7.57s1.77-5.54,2.81-8.22,2.47-5.63,3.64-8.44a5.6,5.6,0,0,0,.6-2V463.5c0-4.33.26-8.66.35-13,0-5.67.22-11.34.35-17,0-4.32,0-8.65.34-13.28,0-1.73.39-3.46.3-5.19,0-5-.47-10.08-.56-15.1a28.51,28.51,0,0,1,1-4.37c0-.31.34-.69.21-.82a5.73,5.73,0,0,1-.43-4.33,80.13,80.13,0,0,0,.3-8.09,36.31,36.31,0,0,1,.22-4.89c0-2.94.22-5.93,0-8.66s-.39-6.62-.56-9.9a10.84,10.84,0,0,1,.21-1.39v-2.85a15.23,15.23,0,0,1,0-2.34c.31-1.56,1-1.86,2.56-1.39a7.71,7.71,0,0,1,4.84,6.37,34,34,0,0,1,.44,5.79c0,2.73.38,5.46.25,8.14s-.64,5.28-1,8a3.73,3.73,0,0,0,0,2,8.24,8.24,0,0,1,0,7.4c0,.34.52.95.61,1.47a4.1,4.1,0,0,1,0,2.25A4.32,4.32,0,0,0,181.2,396.13Zm0,14.67c-.39,2.2-.86,4.32-1.08,6.62,0,1.21.26,2.5.22,3.76,0,3.42-.44,6.84-.57,10.3a32.91,32.91,0,0,0,.31,4.32,25.82,25.82,0,0,1,.39,3.51,56.86,56.86,0,0,1-.65,5.93c-.22,2-.26,3.29-.44,4.93H180a170,170,0,0,0,1-39.37Z"/><path d="M206,264.29a64.56,64.56,0,0,1-4.67,5c-.6.57-3.33-2.07-3.55-3.2a17.61,17.61,0,0,0-3.59-7.61s-.3-.26-.3-.44c-1.3-3-2.64-5.92-3.85-8.95-.39-1-.35-2.21-.78-3.2s-1-2.17.3-3.08a.53.53,0,0,0,0-.52c-.56-2-1.17-4-1.73-6a6.43,6.43,0,0,1,0-1.64,9.94,9.94,0,0,1,.22-3,12.15,12.15,0,0,1,1.73-2.64,10.44,10.44,0,0,1,1.38,1.91,52.1,52.1,0,0,1,2.08,5.14c.91,2.73,1.64,5.54,2.64,8.27.48,1.34,1.38,2.51,2,3.85s.56,2,1,3,.95,1,1.38,1.52a6.55,6.55,0,0,1,.91,1.25,13.92,13.92,0,0,0,1.47,3,17,17,0,0,1,3.12,6.54V264Z"/><path d="M159.7,298.47a9.59,9.59,0,0,1,1.86,1.08s-.35,1.26-.48,1.21a8.61,8.61,0,0,1-2.07-.52,2.05,2.05,0,0,1-.57-.34l-2-1.52c.39-.39.87-1.16,1.17-1.12a7.5,7.5,0,0,1,2,1.12Z"/><path d="M27,185.24c-.74-1-1.69-1.78-1.56-2.21s1.17-1.25,1.78-1.86c.43.52,1.25,1.12,1.21,1.6A11.43,11.43,0,0,1,27,185.24Z"/><path d="M164.5,122.15c-1,.65-1.56,1.34-2.12,1.3s-1.34-1-1.25-1.25a2.19,2.19,0,0,1,1.38-1.39C162.94,120.72,163.59,121.46,164.5,122.15Z"/><path d="M60.09,207.26,58.32,209c-.43-.52-1.17-1-1.17-1.47s.74-1.13,1.17-1.69Z"/><path d="M50.75,205.23c-.52-.74-1.08-1.21-1.08-1.73s.73-.78,1.12-1.13c.39.43,1,.82,1.13,1.34S51.09,204.71,50.75,205.23Z"/><path class="cls-3" d="M123.7,358.44c-1.17,1.3-2.55,1.21-4,0l.83-.87Z"/><path d="M230,282.68c-.74.56-1.3,1.3-1.65,1.21a9.29,9.29,0,0,1-1.6-1.3c.43-.48.95-1.38,1.26-1.34A10.17,10.17,0,0,1,230,282.68Z"/><path d="M231.91,283.89c-.47-.61-1.12-1-1.12-1.47s.69-.82,1-1.21c.43.43,1.08.78,1.16,1.25S232.39,283.11,231.91,283.89Z"/><path d="M184.62,163.78c-.52-1-1.08-1.56-1-2.08s.78-.87,1.21-1.26c.39.52,1,1,1.13,1.56S185.23,162.91,184.62,163.78Z"/><path d="M159.27,324a4.33,4.33,0,0,1-4.33-3.68c-.39-2.9.52-3.76,3.46-3.46a5.9,5.9,0,0,0,2.51,0,3.49,3.49,0,0,1,4.79,1.25,2.93,2.93,0,0,1,.31.7c.7,2-.38,3.72-2.72,4.32A31,31,0,0,1,159.27,324Z"/><path d="M190.63,313a10.63,10.63,0,0,1-.9,2.76c-.31.48-1.3.57-2,.83a22.1,22.1,0,0,1-.65-2.64c0-.39.43-.95.34-1.3-.52-1.56,0-2.08,1.56-2.12S190.68,311.36,190.63,313Z"/><path d="M57.76,232.18a13.74,13.74,0,0,1,1.64,2.73c0,.26-1,1.21-1.21,1.12a3.85,3.85,0,0,1-1.77-1.64C56.29,234,57.07,233.26,57.76,232.18Z"/></g></g><g class="cls-5"><g id="Layer_1-2-3" data-name="Layer 1-2"><path d="M558.73,281.35c0-1.65.34-3.25.26-4.89-.82-23.65-2-47.27-2.38-70.88-.3-16.12.71-32.27.63-48.5,0-14.1-.86-28.24-1.3-42.35,0-4.29-.23-8.61-.49-12.9a30,30,0,0,0-3-14.93,17,17,0,0,1-1.94-8.35c0-1.57,1.49-4.22,2.68-4.48a5.85,5.85,0,0,1,5.15,2,95.51,95.51,0,0,1,6.49,20.26c3.73,27.8,2.09,56,2.43,83.72s.78,55.59,1.23,83.38c0,6,.56,12,.71,17.94,0,3.73,1.49,4.93,5.48,5.52,9.1,1.31,14.21-3.95,19.47-9.69,11.2-12.35,22.8-24.48,33.92-37,8.69-9.73,17-19.73,25.33-29.84q9.51-11.53,18.43-23.5c3.73-5.15,7-10.82,10.74-16,3.36-4.62,7-9.25,13.66-8.65,6,.56,8.09,5.15,4.73,10.18a13.13,13.13,0,0,1-3.39,3.73c-9.25,6.23-15.11,15.45-21.86,24-9,11.46-18.66,22.39-28.09,33.58-11.2,12.72-22.39,25.18-33.58,37.72-2.76,3.05-5.9,5.82-8.58,8.95a17.47,17.47,0,0,0-2.09,4.74,18,18,0,0,0,4.66,1.27q25.59-.35,51.15-.94c23.32-.52,46.67-1,70-1.64,23.95-.67,47.9-1.6,71.85-2.35,23.17-.71,46.37-1.53,69.54-1.83,17.8-.22,35.59.53,53.35.3a54.87,54.87,0,0,0,17.91-2.95c8.2-3,18,1.53,22.79,7.69a41.31,41.31,0,0,1,4.37,6.45c2.53,5,.22,9.4-5.34,9.11a56.41,56.41,0,0,1-18.39-3.06c-14.18-5.9-28.91-6.53-43.8-6.38q-45.63.48-91.21,1.64c-43.43,1-86.85,2.31-130.28,3.39-19.77.49-39.58.64-59.35,1-8.73,0-17.5.64-26.12.64-6.12,0-9.4,4.21-12.57,8.2-.79,1,.6,4.78,2,6.16,6.38,6.19,13.09,12,19.81,17.87s13.88,11.86,21,17.76l32.75,27.45c10.75,9.11,21.38,18.36,32.2,27.31,8.24,6.83,16.82,13.32,25.14,20.07,6.42,5.23,12.84,10.49,19,16a9.26,9.26,0,0,1,1.87,12.5,9.92,9.92,0,0,1-13.94,1.64l0,0a165.5,165.5,0,0,1-12.35-11.42,5.13,5.13,0,0,1-1.57-2.76C706.43,427.37,697.14,423,690.17,417c-11-9.55-22.39-18.66-33.58-27.95-8.62-7.16-17.31-14.21-25.78-21.52-17.53-14.93-35-30.37-52.42-45.55a28,28,0,0,0-3.06-2.8c-1.08-.71-2.61-1.61-3.73-1.31s-1.45,2.17-1.49,3.36c-.22,5.37,0,10.74-.26,16.12Q569,381,568,424.79c-.56,22.87-1.31,45.74-1.76,68.61a19.39,19.39,0,0,0,2.35,7.05c.52,1.23,2.13,2.31,2.13,3.47a23.1,23.1,0,0,1-1.31,9.36,6.43,6.43,0,0,1-6.15,1.79c-2.69-1.49-6-4.21-6.46-6.86a98,98,0,0,1-.78-19.29c.71-25,1.75-50.06,2.42-75.1.56-21.78.71-43.61,1.09-65.4,0-4.58.52-9.21.52-13.8a19.17,19.17,0,0,0-1.16-4.66,17.79,17.79,0,0,0-4.06,2.38c-10,10.3-20,20.75-29.85,31.08C513.55,375.25,502,387,490.72,398.86q-21.86,23-43.5,46.3c-9.4,10.07-18.65,20.26-28.05,30.41-4.33,4.73-8.66,9.47-12.87,14.32a6.72,6.72,0,0,0-1.61,3.73c-.41,6.12-5.07,7.46-9.58,7.69s-6.09-4.33-3.74-8.17a92.91,92.91,0,0,1,9.14-11.49q27.57-30.3,55.33-60.44c13-14.07,26.12-28,39.43-41.9q24.25-25.55,48.5-51c3.73-4,7.76-7.87,11.72-11.71A11.19,11.19,0,0,0,558.58,304a10.72,10.72,0,0,0-10.82-5.59c-10.14,0-20.29,0-30.4.56-28.13,1.45-56.3,2.87-84.39,4.92-22.87,1.38-46.07,3.8-69.35,6.38-18,2-35.89,4.63-53.76,7.46-7.76,1.23-15.37,3.73-23,5.67-1.42.37-2.61,1.61-4.07,2a10.44,10.44,0,0,1-5.71.82,5.59,5.59,0,0,1-3-4.29,9,9,0,0,1,3.43-5.79,39.58,39.58,0,0,1,16.27-5.63c16.12-2.13,32.05-5.33,48.16-7.46,26.94-3.73,53.87-6.9,80.88-9.81,14.18-1.53,28.51-1.94,42.76-2.8,14.92-.9,29.84-1.83,44.58-2.54,8.92-.45,17.83-.45,26.71-.82a18.74,18.74,0,0,0,4.63-1.45,17.7,17.7,0,0,0-2-4.78c-8.8-10.67-17.76-21.19-26.67-31.56-6.09-7.46-12-14.92-18.32-22s-12.69-13.73-19.14-20.49a6.27,6.27,0,0,0-7.91-1.26,7.91,7.91,0,0,1-6.6-.86c-3.55-2.46-4.78-11.46-2.73-15.3a9.56,9.56,0,0,1,13.18-2.95,10,10,0,0,1,1.75,1.42c8.24,8.36,16.37,16.87,24.17,25.67,10.15,11.49,19.81,23.35,29.85,35,8.88,10.26,17.76,20.37,26.78,30.63a31,31,0,0,0,3.73,3Z"/></g></g></svg>