<svg id="Layer_1" data-name="Layer 1" xmlns="http://www.w3.org/2000/svg" viewBox="0 0 40.19 88.99"><title>e3</title><path d="M529.46,455.75c-.32-1-.66-2,.49-2.66.9-.5,2-1.33,2.16.74,0,.71.14,1.68,1,1.82s1.28-.72,1.66-1.53c.54-1.18,2-1.77,2.1-3.31,0-.38.65-.63.7-.53.81,1.59,4.47-.74,3.72,3.1.13-2.34,2.84-2.63,2.37-5.39,1.52,1.82.4,3.13.94,4.27.7.49,1.66-1,2.17.16s-.9,1.49-1.15,2.5c.79.59,1.54-.32,2.34-.11.57.66-1.79,1.16-.25,1.76,3.27,1.28,4.71,4.17,6.41,6.86.68,1.45.85,3.21,2.55,4a7.19,7.19,0,0,1,1.74,7.55c-2.65,9.41-5,18.92-7.39,28.39-1.9.73-1.41,2.1-.92,3.47-.37,1.22.07,2.8-1.52,3.49-2.24-.39-2.55-2.29-3.14-3.95-.06-.49-.18,0-.27,0a4,4,0,0,1-2.26.77c-1.48-.09-3,1.68-4.45,0-1.06-.44-1.71.14-2.26.93a1.79,1.79,0,0,1-.92.49c-1.68,0-1.79,1.45-2.36,2.48-1,.76-1.85,1.71-3.26,1.46a8.44,8.44,0,0,0-1-.55q-4.81-18.94-9.6-37.88a6.64,6.64,0,0,1-.3-3.43c.07-.24.3-.44.32-.68.16-1.49,2.6,0,2.19-1.38s.37-2.15.73-3.1a18,18,0,0,1,1.85-3c1.29-.26,2.77-.26,2.94-2.1-.44-.38-1-.77-.6-1.44.28-.46.61-1,1.39-.59,1,.57,1.52-.08,1.85-1C530,456.88,529.77,456.32,529.46,455.75Z" transform="translate(-518.65 -448)" fill="#acacac"/><path d="M546.56,520c-.55,2.43-1.12,4.86-1.66,7.29-.3,1.36-1.5,1.94-2.34,2.83.4,1.69-.95,2-2,2.47a1.4,1.4,0,0,1-1.31-.72c-.87-1.15-2.49-1.8-2.45-3.58a3.17,3.17,0,0,1,0-1.09,1.89,1.89,0,0,1,.36-.6,1.89,1.89,0,0,0,1.12-1.92c.24-.86.27-1.85,1.38-2.15,1.27-.35,1.39-1.52,1.8-2.49a1.84,1.84,0,0,1,1.26-.73,5.27,5.27,0,0,1,1.86-.15C545.3,519.35,546.14,519.17,546.56,520Z" transform="translate(-518.65 -448)" fill="#aeaeae"/><path d="M531.07,521.41c.08-.54-.83-.91-.26-1.53.91-1.43-.59-2.3-.79-3.48l-.67-1.91a1.59,1.59,0,0,1,1.25-1.84,22.54,22.54,0,0,0,3.29-1.81,1.74,1.74,0,0,1,1.15.11c1.18.93.67,2.33.84,3.48a6.51,6.51,0,0,0,2,4.16,2.55,2.55,0,0,1,.57,3.53,1.81,1.81,0,0,1-1.51.63C535,521.94,532.75,523,531.07,521.41Z" transform="translate(-518.65 -448)" fill="#373737"/><path d="M537.51,528.19A11,11,0,0,1,539.9,531c-.28,2.29-2.39,3-3.81,4.21-.59.52-1.23.14-1.59-.56l-1.1-4.5C534.2,528.31,535.64,527.8,537.51,528.19Z" transform="translate(-518.65 -448)" fill="#383838"/><path d="M542.54,506.35a4.63,4.63,0,0,1,2.58-.47.56.56,0,0,1,.91,0c1.29,1.25,1.78,3,2.57,4.49l-1.44,1.09a3.51,3.51,0,0,1-1,.61,2.51,2.51,0,0,1-1.88-.4,5,5,0,0,1-1.44-1.32C541.74,509.09,540.62,507.83,542.54,506.35Z" transform="translate(-518.65 -448)" fill="#363636"/><path d="M533,528.55l-1.14-4.45c-.4-1.77.88-1.92,2-1.91a13.5,13.5,0,0,1,3.21.48c1,.5,1,1.44,1.11,2.36a2.38,2.38,0,0,1-.63,2.07l-.12-.05C536.19,528.14,534.93,529.34,533,528.55Z" transform="translate(-518.65 -448)" fill="#424242"/><path d="M542,533.7c1.42,2.27,1,3.21-1.6,3.28-1.34,0-2.68,0-4,0-.83,0-1.54-.17-1.34-1.28,1.74-1.22,3.32-2.7,5.45-3.26C541.52,532.24,541.64,533.12,542,533.7Z" transform="translate(-518.65 -448)" fill="#414141"/><path d="M544.69,520.46l-1.63-.45a1.45,1.45,0,0,1-.88-1.49c1.49-1.3,2.17-2.78,1.1-4.7a1.06,1.06,0,0,1,.16-1.15,1.44,1.44,0,0,1,.66-.37,2.22,2.22,0,0,1,2.4,1.63c2.19,1.25.61,3,.65,4.6A6.85,6.85,0,0,0,544.69,520.46Z" transform="translate(-518.65 -448)" fill="#a1a1a1"/><path d="M536.84,523.21c-1.65.34-3.64-1.26-5,.9-.68-.78-.39-1.84-.8-2.69l5.93.66A.72.72,0,0,1,536.84,523.21Z" transform="translate(-518.65 -448)" fill="#9b9b9b"/><path d="M540.54,532.69a17,17,0,0,1-5.48,3,1.17,1.17,0,0,1-.55-1c2.5-.17,3.66-2.35,5.4-3.65l.65,1.13a.37.37,0,0,1,.11.38Q540.59,532.69,540.54,532.69Z" transform="translate(-518.65 -448)" fill="#8e8e8e"/><path d="M526.82,460.43a2.29,2.29,0,0,1-.62,3.3c-1.23.94-1.53-.8-2.33-1.2C524.54,461.38,525.75,461,526.82,460.43Z" transform="translate(-518.65 -448)" fill="#e8e8e8"/><path d="M534,511.46c-1,1.93-3.65,1.23-4.7,3l-.67-2.49,1.33-.09c.89-.57,2.05-.32,2.92-1.09C533.39,510.39,534,510.61,534,511.46Z" transform="translate(-518.65 -448)" fill="#a5a5a5"/><path d="M550.13,506.87a2.31,2.31,0,0,1-1.19-1.5c-.32-.77-.68-1.72-.1-2.34s1.49.06,2.21.37Z" transform="translate(-518.65 -448)" fill="#444"/><path d="M533,528.55l4.46-1.49,0,1.13-4.11,2Z" transform="translate(-518.65 -448)" fill="#9e9e9e"/><path d="M540.54,532.69v-.56l2-2c1.1.1,1.64.48.72,1.52A3.79,3.79,0,0,0,542,533.7Z" transform="translate(-518.65 -448)" fill="#b9b9b9"/><path d="M529.46,455.75a2.46,2.46,0,0,0,.94.14c.67-.18,1.27-.37,1.65.46.18.39.29.81,0,1.14-.47.49-1.06.25-1.61.13l-1-.18Q529.45,456.6,529.46,455.75Z" transform="translate(-518.65 -448)" fill="#f5f5f5"/><path d="M546.5,513.93l-2.37-1c-.35-.28-1.11-.09-1.06-.81,0-.48.49-.6.92-.67.65-.1,1.29.44,1.95.05l1.24,0Z" transform="translate(-518.65 -448)" fill="#434343"/><path d="M530,516.4c.59.67,1.2,1.32,1.76,2,.3.36.87.74.59,1.23s-1,.14-1.56.24A8.45,8.45,0,0,1,530,516.4Z" transform="translate(-518.65 -448)" fill="#a7a7a7"/><path d="M556.71,467.46c-2.5-.29-2.29-2.3-2.55-4Z" transform="translate(-518.65 -448)" fill="#bdbdbd"/><path d="M544.69,520.46c.32-1.28.47-2.79,2.47-1.93l-.59,1.45Z" transform="translate(-518.65 -448)" fill="#424242"/><path d="M542.56,518.48l.5,1.53-1,.5c-1.6,2.35-2.33,2.52-4.14,1a8.93,8.93,0,0,0-.59-1.87c-1.46-2.54-3.87-4.79-2.37-8.18a3,3,0,0,1-.64-1.13c-.15-.87-.34-1.75.55-2.38l.61-.51a2.6,2.6,0,0,1,2.24-.83,2.24,2.24,0,0,1,1.49,2.67,7.21,7.21,0,0,0-2.29,5.06c.63-1,1.62-1.75,2.32-1,1.16,1.32,2.21.43,3.33.33a1.56,1.56,0,0,1,.69.5A3.7,3.7,0,0,1,542.56,518.48Z" transform="translate(-518.65 -448)" fill="#a8a8a8"/><path d="M538.5,509.46l-1-2.61c.08-1.1.74-.83,1.38-.59,1.19,1.31,2.46-.34,3.67.09a3.63,3.63,0,0,0,1.05,3.57c-.42.88-1.6.7-2.09,1.49-.73.42-1.35,1.18-2.35.8A1.76,1.76,0,0,1,538.5,509.46Z" transform="translate(-518.65 -448)" fill="#9e9e9e"/><path d="M550.65,479.08c-1.29.33-2.54.59-3.39,1.86-.55.81-1.36.66-1.57-.42-.28-1.46.78-2.31,1.66-3.18s1.67-1.11,2.63-.22C550.94,477.52,551.25,478.15,550.65,479.08Z" transform="translate(-518.65 -448)" fill="#e6e6e6"/><path d="M528.91,481.6c-.66,1.18-.9,3-3,2,.32-.5-.46-1,0-1.48a8,8,0,0,0,.55-2.38c-.11-1.36.42-1.37,1.41-1,.83.31,1.41-.25,2-.68.9.71.22,1.27-.15,1.89S528.62,480.79,528.91,481.6Z" transform="translate(-518.65 -448)" fill="#bdbdbd"/><path d="M550.65,479.08l-.67-2a3.57,3.57,0,0,1,2.17-1.5c.49.68-.49,1.23-.11,1.87a1.62,1.62,0,0,0,.46,0c.76-.24,1.18-1.26,2.16-.94.12,0,.23.44.18.64a2.83,2.83,0,0,1-2,2A3.49,3.49,0,0,1,550.65,479.08Z" transform="translate(-518.65 -448)" fill="#3f3f3f"/><path d="M550.37,468.2c1.32-.6,2,.45,2.93.69s1.2,1.12,1,2-.88.91-1.55,1.06c-1.41.32-.06-1.57-1.19-1.47C552.83,468.89,550.65,469.18,550.37,468.2Z" transform="translate(-518.65 -448)" fill="#868686"/><path d="M528.91,481.6c-.8-1.48,1.06-2.25.94-3.55.17-.7.17-1.58,1.13-1.68a1.29,1.29,0,0,1,1,.52c.48.81-.18,1.41-.62,2C530.6,479.8,529.73,480.69,528.91,481.6Z" transform="translate(-518.65 -448)" fill="#eaeaea"/><path d="M549.22,472.46c.66.26,1.35.75,1,1.42a2.53,2.53,0,0,1-2.57,1.16c-.51-.5-1.12-.95-.94-1.81A1.57,1.57,0,0,1,549.22,472.46Z" transform="translate(-518.65 -448)" fill="#3e3e3e"/><path d="M534.86,507.92l0,2.45a2.83,2.83,0,0,1-2.52.08C533.38,507.52,533.43,507.46,534.86,507.92Z" transform="translate(-518.65 -448)" fill="#3e3e3e"/><path d="M530.51,508.72c-.65-.11-1.16-.46-1-1a3,3,0,0,1,2.34-2c.32-.06.74.31.58.62C532,507.27,531.58,508.33,530.51,508.72Z" transform="translate(-518.65 -448)" fill="#383838"/><path d="M546,505.88h-.91c-.49-.76-2.16-.59-1.69-2.1.15-.47.57-.56,1-.44C545.8,503.69,546,504.71,546,505.88Z" transform="translate(-518.65 -448)" fill="#464646"/><path d="M538.87,506.26l-1.38.59-2,.57c-.14-.49-.26-1.22.3-1.25,1.34-.09,1.93-1.05,2.49-2C539.31,504.79,538.59,505.63,538.87,506.26Z" transform="translate(-518.65 -448)" fill="#cecece"/><path d="M535.38,484.63c2-.69,3,.4,4.12.58.41.07.8.38.51.87a.72.72,0,0,1-1.07.25C538.11,485.51,536.94,485.39,535.38,484.63Z" transform="translate(-518.65 -448)" fill="#dcdcdc"/><path d="M530.38,493.19c.45-.7,1-1.66,1.83-.63,1,1.37-.46,1.71-1.28,2.26C529.64,494.65,529.42,494.12,530.38,493.19Z" transform="translate(-518.65 -448)" fill="#f7f7f7"/><path d="M547,473.6l.62,1.43a2.42,2.42,0,0,0-1.83.4c-1.1.78-1.17-.12-1.24-.9l0,0,1.61-1.59C546.72,472.84,546.91,473.18,547,473.6Z" transform="translate(-518.65 -448)" fill="#ddd"/><path d="M547,473.6l-.86-.64c1.47-2.7,1.6-2.73,3-.5A4.3,4.3,0,0,0,547,473.6Z" transform="translate(-518.65 -448)" fill="#515151"/><path d="M543.06,471a2.13,2.13,0,0,1,.11-.74c.37-.65-.61-1.81.74-2a.93.93,0,0,1,.77.49c.27,1.06.11,2-1.12,2.36Q543.26,471.39,543.06,471Z" transform="translate(-518.65 -448)" fill="#666"/><path d="M543.06,471l.5.07c1.19.92.51,2.39,1,3.51l0,0C541.81,474.33,543.57,472.16,543.06,471Z" transform="translate(-518.65 -448)" fill="#d1d1d1"/><path d="M530.38,493.19a1.34,1.34,0,0,0,.55,1.62c-.68.63-1.59,1.49-2.15.24C528.36,494.09,529.09,493.18,530.38,493.19Z" transform="translate(-518.65 -448)" fill="#c3c3c3"/><path d="M532.37,510.45l2.52-.08.06,1.06-.91,0c-1.43-.55-2.63.91-4,.45C530.33,510.66,531.85,511.37,532.37,510.45Z" transform="translate(-518.65 -448)" fill="#5f5f5f"/><path d="M537.5,466c.05-.72-1.51-1.9.45-2a9.85,9.85,0,0,1,1.92.75c-.38.88-1.37.58-1.89,1.1A.32.32,0,0,1,537.5,466Z" transform="translate(-518.65 -448)" fill="#c7c7c7"/><path d="M537.5,466a1.34,1.34,0,0,0,.48-.11c.5.14,1.48,0,1.08.87-.62,1.3-1.76.68-3,.45Z" transform="translate(-518.65 -448)" fill="#414141"/><path d="M536.19,478a3,3,0,0,1,1.62,2.66C536.93,480.19,535.94,479.78,536.19,478Z" transform="translate(-518.65 -448)" fill="#ebebeb"/><path d="M525.88,482.1a1.47,1.47,0,0,1,0,1.48c-1-.7-.88,2.21-1.75.67C523.51,483.14,524.86,482.5,525.88,482.1Z" transform="translate(-518.65 -448)" fill="#d7d7d7"/><path d="M551.58,497.25c0,.44-.09.89-.66.77s-1.18-.34-1.3-1c-.09-.49.37-.66.8-.72A.91.91,0,0,1,551.58,497.25Z" transform="translate(-518.65 -448)" fill="#3f3f3f"/><path d="M537.92,521.49a8.09,8.09,0,0,0,4.14-1c0,1.14.33,2.31-1.35,2.69-.81.18-1.29,1-1.66,1.79-.49.62-1.06.27-1.62.16l-.6-1.95.17-1.14Z" transform="translate(-518.65 -448)" fill="#bebebe"/><path d="M537.43,525.15c.5-.48,1.06-.32,1.62-.16.53,1.41.24,2.24-1.45,2.11Z" transform="translate(-518.65 -448)" fill="#d5d5d5"/><path d="M539.64,511.92c.35-.51.51-1.29,1.42-1,1.21-1.4,2.37.22,3.56.07l1.31.5a2.63,2.63,0,0,1-1.64.47c-1,.13-.44.58-.16,1l-.76.13c-.16.42-.32.83-.83.92h-.4C541,513.65,539.39,513.91,539.64,511.92Z" transform="translate(-518.65 -448)" fill="#939393"/><path d="M544.62,511c-1.2.7-2.37-.34-3.56-.07-.21-3,1.54-1,2.52-1Z" transform="translate(-518.65 -448)" fill="#454545"/><path d="M542.53,514a1.26,1.26,0,0,1,.83-.92c.68,1,2.74.83,2.41,2.43a3.44,3.44,0,0,1-3.21,3Z" transform="translate(-518.65 -448)" fill="#393939"/><path d="M539.64,511.92c1.16.28,2.62.21,2.49,2.05-.27,1.18.05,2.51-.89,3.58-1.41-.81-1.52-2.63-2.87-3.48-.69,1.15.45,2.33-.17,3.41-2.62-1.56-3.44-5.68-1.58-7.88.58-.69,1.25-.08,1.88-.13Z" transform="translate(-518.65 -448)" fill="#373737"/></svg>