<svg xmlns="http://www.w3.org/2000/svg" viewBox="0 0 57.29 237.27"><title>Asset 1</title><g id="Layer_2" data-name="Layer 2"><g id="Layer_1-2" data-name="Layer 1"><g id="Layer_1-2-2" data-name="Layer 1-2"><path d="M11.81,237.13c-.26-3-3-27.43-3.08-29.73-.28-5.57-.59-11.13-.75-16.68a42.77,42.77,0,0,1,.44-6.08c.8-7.33-1.92-14.52-1.6-21.53.27-5.82-2-12.17,1.48-17.82a8.55,8.55,0,0,0,1-4.11A160.14,160.14,0,0,0,7.17,109.8c-.92-5.28-.74-10.63-1.26-16.09-.82-8.66-1.63-17.32-2.68-26C2.35,60.39.82,53.15.12,45.82A20.51,20.51,0,0,1,3.9,31.56a17.16,17.16,0,0,1,3.67-3.89c5.07-3.64,3.7-9,3.69-13.84a44.25,44.25,0,0,1,0-5,3.34,3.34,0,0,1,5.17-2.89,5.24,5.24,0,0,0,6.26-3.66C23,1.41,23.63.11,24.28,0S26,.79,26.72,1.4a16.08,16.08,0,0,1,5,4.4,180.82,180.82,0,0,1,7,17.93,32.71,32.71,0,0,1,1.66,14.42C40,42,42.1,45.9,42.62,49.87c.88,6.91,1.13,13.74,1.85,20.62C45.55,79.76,47.19,89,48,98.15c.49,5.55-.34,11.1-.18,16.8.13,7.62.6,15.26.91,22.87.09,2.26,0,4.48.18,6.74.46,6.81,1,13.6,1.56,20.39,1,11.79,2.09,23.54,3.08,35.15a1.69,1.69,0,0,0,.13.31c1.56,6.06,5.23,29.69,1.94,36.59l1.69.27M30.67,177.89A19.47,19.47,0,0,1,29.32,173a18.33,18.33,0,0,0-6.74-16.34c-2.76-2.42-4.48-3-6.75-.14a11.83,11.83,0,0,0-2.5,5.71,49.34,49.34,0,0,0-.09,11,71.16,71.16,0,0,0,2.77,10c4.06-5.05,8-8.2,14.65-5.4ZM12,29.42,10.39,29c-1.34,2.17-2.57,4.43-4.11,6.47C2.08,41,4.58,47.2,5.59,52.85a171.44,171.44,0,0,1,2.1,25.8A14,14,0,0,0,9.3,82.94c.72-1.27,2-2.48,2-3.77.43-5.19.53-10.42.65-15.66.22-8.72.4-17.45.47-26.17A64.8,64.8,0,0,0,12,29.42Zm31.71,166,2.14-.29L44.5,146.44c-.35-.79-1.73-2.59-1.35-3.05,3.25-5.1.66-10,.11-15.06a23.94,23.94,0,0,0-1.3,7.11c-.09,1,.34,2.41-.18,3-2.71,3.21-1.11,6.41-.65,9.82a57.27,57.27,0,0,1-.27,11.41A37.8,37.8,0,0,0,40,166a84.94,84.94,0,0,1,1.24,19.24,30.44,30.44,0,0,0,2.4,10.17ZM25.9,73.94a24.45,24.45,0,0,0,2,7.51,15.43,15.43,0,0,1,2.5,11.89,43.22,43.22,0,0,0-.19,10.6c.11,1.08,2.18,1.95,3.38,2.92.61-1.08,1.78-2.14,1.74-3.22-.17-7.23-.44-14.41-1.09-21.8C33.76,75.94,33.06,75.42,25.9,73.94Zm-.59,137.41c-2.24-4.45-4.46-9-6.85-13.36a2.6,2.6,0,0,0-2.55-.73A6.93,6.93,0,0,0,13,200.65a22.75,22.75,0,0,0,3,16.16c.86,1.44,2.1,1.77,3.47.25s3.7-3.63,5.85-5.71ZM28.82,227c3.59-.13,3.36-3.36,3.44-6.24a4.48,4.48,0,0,0-3.85-4.54A13.39,13.39,0,0,0,19.18,222a2.7,2.7,0,0,0,.28,1.37c1.71,4.42,4.44,5.63,9.33,3.63Zm22.8-6.14c-.07-5.59,2.43-12-3.33-17v-.06c-.47.76-.84,1.07-.8,1.34a35.23,35.23,0,0,1-3.59,18.33m-23.19-27.8c1.06,6.25,8.12,15.16,11.53,14.71a54.31,54.31,0,0,1-.34-7.43c.63-7.48-3.27-9.43-11.13-7.22Zm2.63-72.43a6,6,0,0,0-6.64,5.16v.69a27.66,27.66,0,0,0,2.2,8.66c.49,1.09,2.84,1.69,4.41,1.69.58,0,1.75-2.31,1.67-3.48-.21-4.25-1.05-8.44-1.6-12.65Zm6.18,60.34s-.57-1.29-1.25-1.42c-1.84-.35-4.12-1.06-5.55-.17a21.26,21.26,0,0,0-4.33,5.57c1.79.89,3.57,1.86,5.4,2.69a4.77,4.77,0,0,0,1.41.21c5.33.56,6.7-1.16,4.33-6.88ZM32.94,70.65a73.54,73.54,0,0,0-1.35-9.8c-.35-.8-2.56-1.65-3.85-1.59a4,4,0,0,0-2.84,2.38c-.94,4.79,2.43,8.51,8.05,9Zm4.89-26.53c-.75-5.22-1.41-10.33-2.36-15.6-.18-.4-2-1.11-2.33-.8a5.87,5.87,0,0,0-1.94,3.2c-.5,5.67,3.09,9.48,6.64,13.2Zm4.22,66.54c-.13-2.43-.14-3.59-.24-4.72-.49-5.73-1-11.48-1.64-17.2-.11-.9-1.21-1.66-1.84-2.51a153.53,153.53,0,0,0,.23,21.34c0,1.08,1.84,1.77,3.46,3.28ZM19.74,82.61l.89,7.53,3.44-2c-3,5.77-3,5.77-1,7.77.87-2,4.77-1,4-4.73s-1.75-7.63-7.32-8.33Zm8.42,42-1.52.68c.46,4.65.81,9.32,1.42,14,.09.69,1.23,1.28,2,1.78,0,0,1.16-.85,1.15-1.28a76.81,76.81,0,0,0-.54-10.28,16.71,16.71,0,0,0-2.5-4.95Zm5.95,56.2c2.06-6.72.49-15.37-3.1-16.3,1,5.6-.55,11.37,3.11,16.25Zm1.61,33.25.92-.41c.49-5.07,1-10.17,1.36-15.21,0-.37-.68-.79-1.05-1.21-.41.47-1.15.87-1.19,1.36-.42,4.39-.79,8.83-1,13.24a11.62,11.62,0,0,0,1,2.18ZM10.78,87.66a12.23,12.23,0,0,0,1.54,13.93c2.47-4.9.45-9.37-1.41-13.88Zm8.66-29.19c3.84-5.35,2.63-12.6-1.73-13.29Zm17.18,58.85a6.68,6.68,0,0,0-6-7.15c.15,1.65.32,2.85.38,4.06.36,3.84,1.71,4.59,5.63,3Zm-1.88,24.75c3.47-5.19,3-9.82-1.83-12.37a31.37,31.37,0,0,0,2,12.31Zm15.07,44.81-1.24.26c1,4.47-2.53,9.52,1.35,13.64l1.67-.19ZM28.9,46.79c-2.32,2.27-5.64,3.09-4.45,6.44.53,1.19,3.28,1.46,5.94,2.51ZM22,114.18c-1.95-8.6-2.39-9-6.57-6.58,1.91,2.24,2.26,5.91,6.61,6.58Zm-.81,4.41-5.3-4.37-1,.75-.07,7.34ZM33.6,46.1c-.73,6.6,1.61,11.12,5,11.32ZM20.3,37.61l.93-.19c-.1-3.36,0-6.7-.39-10C20.75,26.55,19,25.89,18,25l-.84.81ZM16.72,82.3A8.73,8.73,0,0,0,18.62,94ZM25,107.65l-1,.46c-.33,6.4.39,8.19,4,8ZM21.66,68.16l-1.14.25,1.81,9.09,1.21-.24a11.38,11.38,0,0,0-1.84-9.1Zm-7.55,83.3c4.37-1,4.73-2.5,1.47-6.72-2.75,1.86-.88,4.5-1.43,6.72ZM24.66,31.64c-1.63,6.27-.65,9,2.79,8.58ZM42.9,203.3l-2.23.07.31,7.36h2Zm-3.25-80.81L33,121.2l-.51,1.25A20.35,20.35,0,0,0,36.65,125c.51.18,1.57-1.28,3-2.54Zm-6,34.16-1.41-6.39c-3.16,2.17-2.75,4.1,1.48,6.39Z"/><path d="M30.66,177.88c-6.59-2.81-10.54.37-14.56,5.55a69.84,69.84,0,0,1-2.77-10,49.34,49.34,0,0,1,.09-11,11.83,11.83,0,0,1,2.5-5.71c2.38-2.88,4-2.16,6.75.14a18.3,18.3,0,0,1,6.64,16.2A19.47,19.47,0,0,0,30.66,177.88Z" fill="#fff"/><path d="M12,29.42c.17,2.63.56,5.23.53,7.88C12.31,46,12.23,54.72,12,63.47c-.14,5.21-.26,10.45-.65,15.66-.1,1.33-1.35,2.54-2,3.77a14,14,0,0,1-1.61-4.29,170.15,170.15,0,0,0-2.1-25.8c-.94-5.5-3.45-11.73.69-17.37,1.5-2,2.73-4.31,4.11-6.46Z" fill="#fff"/><path d="M43.67,195.44a30.44,30.44,0,0,1-2.4-10.11A84.94,84.94,0,0,0,40,166.09a37.8,37.8,0,0,1,.83-6.36,56.5,56.5,0,0,0,.27-11.48c-.47-3.45-2-6.61.65-9.82.52-.64.09-2,.18-3a24.39,24.39,0,0,1,1.3-7.12c.55,5,3.16,10-.11,15.06-.41.63,1.06,2.38,1.36,3.05l1.16,48.87Z" fill="#fff"/><path d="M25.9,73.94c7.19,1.48,7.89,2,8.38,7.93.59,7.27.88,14.51,1.09,21.8,0,1.05-1.13,2.14-1.75,3.22-1.17-1-3.26-1.84-3.38-2.92a43.22,43.22,0,0,1,.19-10.6,15.42,15.42,0,0,0-2.39-12A24.22,24.22,0,0,1,25.9,73.94Z" fill="#fff"/><path d="M25.28,211.35c-2.15,2.16-4.07,3.92-5.82,5.83s-2.62,1.16-3.47-.25a22.79,22.79,0,0,1-3-16.16,6.91,6.91,0,0,1,2.9-3.51,2.63,2.63,0,0,1,2.5.6C20.9,202.36,23,206.84,25.28,211.35Z" fill="#fff"/><path d="M28.79,227c-4.83,2.14-7.59.85-9.36-3.63a2.7,2.7,0,0,1-.28-1.37,13.39,13.39,0,0,1,9.23-5.78,4.48,4.48,0,0,1,3.85,4.54C32.15,223.63,32.47,226.82,28.79,227Z" fill="#fff"/><path d="M43.9,223.53a35.14,35.14,0,0,0,3.54-18.37c0-.28.36-.59.82-1.35,5.88,5,3.23,11.46,3.33,17.12" fill="#fff"/><path d="M20.75,195.72c7.87-2.18,11.76-.26,11.14,7.25a54.32,54.32,0,0,0,.38,7.43C28.9,210.94,21.79,201.94,20.75,195.72Z" fill="#fff"/><path d="M23.38,123.3c.56,4.24,1.31,8.47,1.59,12.73.08,1.17-1.11,3.49-1.67,3.48-1.51,0-3.93-.63-4.4-1.7a27.33,27.33,0,0,1-2.23-8.65,5.93,5.93,0,0,1,5.95-5.91h.05A4.68,4.68,0,0,1,23.38,123.3Z" fill="#fff"/><path d="M29.53,183.57c2.29,5.74,1,7.45-4.26,6.85a4.19,4.19,0,0,1-1.41-.21c-1.82-.88-3.61-1.79-5.4-2.68A20.94,20.94,0,0,1,22.79,182c1.3-.84,3.59-.14,5.55.16C29,182.28,29.49,183.47,29.53,183.57Z" fill="#fff"/><path d="M33,70.65c-5.62-.5-9.14-4.16-8.1-9a4,4,0,0,1,2.89-2.38c1.3-.11,3.64.72,3.84,1.58A71.41,71.41,0,0,1,33,70.65Z" fill="#fff"/><path d="M37.84,44.12c-3.55-3.72-7-7.61-6.6-13.21a5.87,5.87,0,0,1,1.94-3.2c.34-.15,2.25.39,2.33.79C36.39,33.7,37.1,38.94,37.84,44.12Z" fill="#fff"/><path d="M42,110.85c-1.71-1.47-3.4-2.14-3.49-3.09a156.56,156.56,0,0,1-.23-21.33c.64.85,1.74,1.6,1.84,2.5.68,5.73,1.15,11.47,1.65,17.2C41.9,107.29,41.9,108.46,42,110.85Z" fill="#fff"/><path d="M19.72,82.81c5.6.76,6.37,4.47,7.23,8.47S23.86,94,23,96c-1.9-2-1.9-2,1-7.77l-3.44,2Z" fill="#fff"/><path d="M28.17,124.56a16.7,16.7,0,0,1,2.43,4.73,78.42,78.42,0,0,1,.55,10.28c0,.43-1.08,1.35-1.15,1.28-.76-.47-1.91-1.09-2-1.78-.59-4.64-1-9.33-1.42-14Z" fill="#fff"/><path d="M34.12,180.76c-3.66-4.88-2.09-10.65-3.1-16.3C34.58,165.4,36.24,174,34.12,180.76Z" fill="#fff"/><path d="M35.73,214c-.38-.85-1.06-1.65-1.07-2.41.24-4.41.62-8.82,1-13.24,0-.49.76-.92,1.18-1.36.21.45,1.07.84,1.06,1.21-.37,5.09-.85,10.2-1.36,15.21C36.71,213.58,36.37,213.73,35.73,214Z" fill="#fff"/><path d="M10.9,87.66c2,4.46,4,8.94,1.54,13.93A12.23,12.23,0,0,1,10.9,87.66Z" fill="#fff"/><path d="M19.45,58.42,17.72,45.13C22.08,45.82,23.34,53.19,19.45,58.42Z" fill="#fff"/><path d="M36.63,117.27c-4,1.58-5.36.84-5.65-3.09-.06-1.21-.24-2.44-.38-4.06A6.68,6.68,0,0,1,36.63,117.27Z" fill="#fff"/><path d="M34.9,142a31.37,31.37,0,0,1-1.84-12.37C37.68,132.25,38.38,136.94,34.9,142Z" fill="#fff"/><path d="M49.82,186.83l1.82,13.8-1.67.2c-3.88-4.13-.4-9.14-1.35-13.65Z" fill="#fff"/><path d="M28.9,46.79l1.61,8.82c-2.65-1-5.41-1.25-5.93-2.51C23.3,49.88,26.66,49,28.9,46.79Z" fill="#fff"/><path d="M22,114.18c-4.3-.65-4.67-4.28-6.57-6.58C19.61,105.1,20,105.54,22,114.18Z" fill="#fff"/><path d="M21.22,118.59l-6.38,3.57.06-7.34.95-.75Z" fill="#fff"/><path d="M33.51,46.15l5,11.32C35.11,57.24,32.9,52.71,33.51,46.15Z" fill="#fff"/><path d="M20.21,37.67,17.14,25.94l.84-.82c1,.78,2.68,1.44,2.82,2.4a91.68,91.68,0,0,1,.39,10Z" fill="#fff"/><path d="M16.6,82.36,18.5,94A8.77,8.77,0,0,1,16.6,82.36Z" fill="#fff"/><path d="M25.05,107.65l3,8.43c-3.61.1-4.41-1.7-4-8Z" fill="#fff"/><path d="M21.7,68.16a11.36,11.36,0,0,1,1.92,9.19l-1.25.15-1.85-9.18Z" fill="#fff"/><path d="M14.15,151.46c.53-2.25-1.33-4.89,1.47-6.72C18.9,148.94,18.51,150.51,14.15,151.46Z" fill="#fff"/><path d="M24.66,31.64l2.79,8.58C24,40.69,23,37.94,24.66,31.64Z" fill="#fff"/><path d="M42.9,203.33v7.3h-2l-.31-7.35Z" fill="#fff"/><path d="M39.67,122.49c-1.45,1.26-2.45,2.7-3,2.54a20.35,20.35,0,0,1-4.14-2.58L33,121.2Z" fill="#fff"/><path d="M33.72,156.65c-4.23-2.29-4.61-4.23-1.41-6.39Z" fill="#fff"/></g></g></g></svg>