<svg xmlns="http://www.w3.org/2000/svg" viewBox="0 0 112.11 230.54"><title>s1</title><g id="Layer_2" data-name="Layer 2"><g id="Layer_1-2" data-name="Layer 1"><g id="Layer_1-2-2" data-name="Layer 1-2"><path d="M37,143.52c-3.18.12-3.3-2.61-4-4.65-2.43-7.15-4.78-14.36-7.29-21.57,4.49-6.42,4.49-14.24,6.55-21.43.36-3.76,3.42-4.55,6.19-5.66,3.39-2.5,7.3-4,10.7-6.57a59.72,59.72,0,0,1,4.5-4.06A11.54,11.54,0,0,0,55.54,71,18.18,18.18,0,0,0,36.82,58.53,6.13,6.13,0,0,0,31,62.61c-1.72,5-4.79,5.47-8.73,2.26a16.1,16.1,0,0,0-9.07-6.93c-3.14-1.6-7.12-1.57-9.28-4.94L2,47.84c-1.15-4,2-7,2.61-10.55-5.37-7.64-.64-13.53,3-19.73,1.81-3.12,2.55-.61,3.62.54,3,3.89,7.9,4.92,11.3,8.15a4.52,4.52,0,0,0,5.95,2.34l.05,0a4.41,4.41,0,0,0,1.59-1.18,18.27,18.27,0,0,0,6.48-7.86A23.34,23.34,0,0,1,47.34,6.43a26.53,26.53,0,0,1,3.65-2A16.87,16.87,0,0,1,70.34,2.85c9.09,2.78,10.7,7,6.31,16.32a103.52,103.52,0,0,0-16.46,10c-3.1,2.7-4.57,5.74-2.21,9.7.41,4,2.11,5.63,6.51,5.3a33.36,33.36,0,0,1,12.15.72c5.78,1,11.66.8,17.33,3.27,3.75,1.65,7.32,2.66,7.65,7.31s-3.11,6-6.87,6.76a11.72,11.72,0,0,0-3.56,1.67,5.58,5.58,0,0,1-2.3.51c-5.9-1.65-9.24.87-10.08,7,4.21,6.43,8.94,11.67,17.8,9a5.6,5.6,0,0,1,6.68,2.43c2.42,3.75-.72,6.13-2.69,8.61-1.62,2-3.34,3.71-6.16,3.49A24.46,24.46,0,0,0,82,93.13c-6.59,4-6.81,5.38-1.39,9.72a15,15,0,0,1,2.2.92c5,1.86,10.82,2.67,11.67,9.59.5,4-.16,6.77-5.11,6-3.26,1.34-6.12-.72-9.25-.83-3.85,2.83-8.36.78-12.54,1.35a11.22,11.22,0,0,0-13.41.32c-1.8,2.42-.57,4.46.85,6.51a10.9,10.9,0,0,0,5.66,7.71c.81,1.08,1,2.52,2,3.64,3.69,2.8,7.38,5.6,5,11.14-3.62,6.23-9.2,1.66-13.81,2.58a53.12,53.12,0,0,0-5.58-3C43.9,148.44,40.73,145.17,37,143.52Z" fill="#353535"/><path d="M98.86,157.9c-2,4.78.08,10.9-5,14.55A7.28,7.28,0,0,0,91.41,171a8.12,8.12,0,0,1,2.47,1.34c-3.28,3.48,3.17,7.59-.77,11-2.29,1-3.46,2.29-1,4.13l.06,3.6c-1.67,3.31-3.44,6.53-7.78,6.72a3.79,3.79,0,0,0-3,2.1,6.11,6.11,0,0,1,2.76-1.49,6.76,6.76,0,0,1,6.43,4.74l-2,8c-5.73,3-3,6.8-.91,10.47l-1.33,4.83c-4.24,2.11-6-5.7-10.46-2.58-3.13,1.06-4.87-1.2-6.78-2.93-.87-2-1.31-4.14-2.36-6-1.39-2.9-2.81-1.39-4.36-.07a2.39,2.39,0,0,1-2.93,0,48.16,48.16,0,0,0-3.62-9.34c-3.72-6.15-1.79-13,1.33-19.44-2.85-2.12-4.22,1.51-6.59,1.15-1.16-2.72,3.13-3,2.57-5.68-4-1-10.72-1.16-3.52-7.61-5.38-2.72-.88-11.73-8.36-13.13,2.32-4.92,5.61-5.34,10.17-2.88,3.65,1.94,5.54,6,10,7.49a51,51,0,0,0,4-9.39c1.12-2.63,2.39-5.34,6.14-3.56.35.37.86,1.12,1,1,6-2.51,4.64,3.54,6.25,6,3.73-1.42,2.29-5.18,4.13-7.15,4.53,5.41,5.28,5.18,8.47-2.64a1.7,1.7,0,0,1,1.93,0c1.54,1.2.84,3.37,1.78,4.7A26.77,26.77,0,0,1,98.86,157.9Z" fill="#acacac"/><path d="M89.52,61.32A5.65,5.65,0,0,1,94,58.95c2.22-.18,5.16-.43,5-3.59s-2.9-3.17-5-4.07c-6-2.49-12.47-2.48-18.74-3.4-1-2.89-.82-6.51-6.05-3.83C63,47.15,57.9,43.06,53,39.75c-3.19-6.24-.06-10.1,5-13.24a15.3,15.3,0,0,0,15.48-8.79c4.41-6.1,1.4-10.78-2.94-15.16,6.64-5.84,12-.2,17.4,2.3C92.8,7,91.26,12,90.77,15.75S88.69,24.2,88,28.49C86.29,37,91.48,43.55,99.86,43.06a6.38,6.38,0,0,1,7.25,5.26c1.39,4.57,6.22,9,1,14-3,2.8-6.25,5.27-9.38,7.87C93,70,90.81,65.93,89.52,61.32Z" fill="#c6c6c6"/><path d="M94.72,91.36l5.15-2.07A2.27,2.27,0,0,1,103,90v.05c-1.87,5.12.82,9.44,2.22,14.11.75,2.7,1.33,5.59-3.3,3.94-1.77-.63-3.93-2.61-5,.59-.76,2.34,1.19,3.61,2.85,4.93,6.32,5.09,7,10.14,2.79,16.05-2.58,3.55-4.73,3.46-6.87-.25l-6.11-10.65c4.84-3.88,4-7.12-1.19-9.75-2.8-1.42-5.42-2.7-8.14-4.06C81.48,96.7,87,92.86,94.72,91.36Z" fill="#c6c6c6"/><path d="M71.84,152.37c-2.36,5.73-9,10.87-1.31,18.09-6.94-.76-13.57-.19-18.32-6.88-2.36-3.2-6.05-5.88-10.67-2.89a32,32,0,0,1-4.49-17.19,14.69,14.69,0,0,1,11.37,1.45c.88,3.84,2.95,3.88,5.71,1.79,4.64.48,9,3.73,13.91,1.6A4.27,4.27,0,0,1,71.84,152.37Z" fill="#c6c6c6"/><path d="M103,90.13l-3.15-.78c3.47-3.72,3.72-6.24-2.35-6.45a34.63,34.63,0,0,1-15.16-2.59,12.24,12.24,0,0,1-7.58-9.94,70.37,70.37,0,0,1,13-9.23l1.67.26c5.19.68,7.19,4.71,9.12,8.78-1.64,3.44-5.4,4.53-9.39,8a15.27,15.27,0,0,0,11.7-4.62c2.6-2.22,5.44-3.48,5.25,1.61s4,2.78,6,4.63A42.24,42.24,0,0,1,103,90.13Z" fill="#c6c6c6"/><path d="M23.77,62.64c1.6.39,2.72,3.13,4.79-.14C35.18,52,41.64,51.16,51.2,59a17.74,17.74,0,0,1,7.6,11.9,7.49,7.49,0,0,1-9.64,3.14,5.08,5.08,0,0,1-1.91-1.33c-2-4-3.56-5.38-6.57-.33-2.05,3.44-4.7,7.8-10.35,5.77-1.53-1.45-.87-3.36-1.25-4.88-.85,1.25,2.09,5.06-2.6,4.25L15.67,63.76C17.67,58.38,21,62.51,23.77,62.64Z" fill="#c6c6c6"/><path d="M26.51,77.64,29.7,67l1.57,10.26C35.89,80,38,75.76,39.91,73.44,42.65,70.27,45,68.38,48.56,72h0c3.41,2.54,7.77,4.41,7.29,9.84a6.46,6.46,0,0,1-3.79,3.86c-4.15,1.72-11-1.17-11.51,6.62-1.91,1.86-5.25,1.85-6.5,4.51a3.08,3.08,0,0,1-3.9-1C24,90.8,23.68,84.49,26.51,77.64Z" fill="#c6c6c6"/><path d="M62.91,137.21l-3-1.82c-1.36-4.56-6-4.93-9.19-7.22-2.24-3.7-2.58-7.54,1-10.84,5.86,2.42,10.89-1.6,16.32-2.28l12.14,2.84,1.22,9c-.48.14-1.11.52-1.31.34C70.65,119.64,66.87,121.79,62.91,137.21Z" fill="#c6c6c6"/><path d="M51.11,4.23,48.66,6.78A12.79,12.79,0,0,1,43,8.53c-4.3.55-5.9,2.83-6.19,7.18-.67,9.61-7.2,14.49-17.31,13.54a22.7,22.7,0,0,1-8.15-11.48c5.11,1.26,10.12-1.13,15.2-.26,2.63.46,3-1.13,3-3.14a32.66,32.66,0,0,0-.42-6.09C27.42.73,30.9-.08,37,1.87A43.26,43.26,0,0,0,51.11,4.23Z" fill="#cacaca"/><path d="M30.08,96,34,97a5.3,5.3,0,0,0,.08,2.26c5.11,9.68-.68,14.36-8.31,18.19-.69-1.91-1.42-3.82-2.08-5.75C19.65,99.89,19.65,99.89,30.08,96Z" fill="#c4c4c4"/><path d="M75.39,221.95a35.74,35.74,0,0,1-.82-3.83c-.19-1.4-1.14-3.18.68-4s2.74.67,3.62,2c2.62,3.42,5.17,6.89,7.72,10.36-2.27,5-6.25,2.59-9.77,2.26C73.66,227,75.24,224.34,75.39,221.95Z" fill="#4c4c4c"/><path d="M90.77,203.2A10.72,10.72,0,0,1,84,200a3.06,3.06,0,0,1-1-4.2,3.75,3.75,0,0,1,.38-.51l9-4.08A27.39,27.39,0,0,1,90.77,203.2Z" fill="#5a5a5a"/><path d="M98.86,157.9c-2.69.41-6.14,3.41-7.05-2.11,3.07-1.45,4-3.31,1.07-5.86l-1.16-.28-.39-7.35C101.61,146.86,101.79,147.18,98.86,157.9Z" fill="#c7c7c7"/><path d="M75.39,221.95a11.41,11.41,0,0,1,1.47,6.83c-3,1.68-6.54.94-9.67,1.62s-2.84-1.27-2.81-3.19A6.34,6.34,0,0,1,67,223c1.54-1.13,1.63-3.92,4.28-3.8C72.6,220.22,73.09,222.43,75.39,221.95Z" fill="#646464"/><path d="M87.92,221.64a5.16,5.16,0,0,1-4-3.19c-1.2-2.41-4.3-4.91-2.78-7.37,1.81-3,5,.2,7.67.1Z" fill="#414141"/><path d="M4,52.85c3.55,1.07,7.64-.32,10.77,2.47.4,2.21,3.14,4.53-.32,6.54C10.16,59.77,4.39,59.39,4,52.85Z" fill="#c1c1c1"/><path d="M92.34,187.54a16,16,0,0,1-4.46.57,3.64,3.64,0,0,1-3.59-3.69h0a3.49,3.49,0,0,1,.24-1.27c.87-3.5,3-2.74,5.32-1.62,1.15.57,2.25,1.22,3.4,1.82Z" fill="#7e7e7e"/><path d="M14.41,61.86c.53-2.14-1.68-4.45.32-6.54a17.54,17.54,0,0,1,9,7.34L15.59,63.8Z" fill="#f5f5f5"/><path d="M59.67,214.86l2-.74a4,4,0,0,1,5.66-.12l.05.05a4.48,4.48,0,0,1,.36.4,6.13,6.13,0,0,1,.6,5.19c-2.75,4.09-5.46,4.08-8.12-.08Z" fill="#424242"/><path d="M4.65,37.13c2.1,4.27-.84,7.26-2.6,10.55C.66,43.64-2.87,39,4.65,37.13Z" fill="#c6c6c6"/><path d="M60.15,219.55a5,5,0,0,0,6.06.23c2.48,1.09,3,3.32,3.34,5.65l-5.21,1.86A14.7,14.7,0,0,1,60.15,219.55Z" fill="#a3a3a3"/><path d="M19.43,29.36a31.79,31.79,0,0,0,7.06-3C30.32,23.65,34.65,21.28,33,15c-2.28-8.54.16-11,8.94-9.81,2.29.31,4.49,1.11,6.77,1.45-4.84,6.82-9.3,13.91-14.5,20.42C30.34,31.88,25.13,33.48,19.43,29.36Z" fill="#fcfcfc"/><path d="M53,39.64c3.21.79,6.45,1.59,9.57,2.64s5.06.43,6.23-2.37c1.86-4.49,3.68-8.14,9.26-3.7s1.3,6.87-1.26,9.87l-1.53,1.7c-5.5-.82-11.08-1.35-16.47-2.61A7.32,7.32,0,0,1,53,39.64Z" fill="#fafafa"/><path d="M78.83,104.64c-3.92-2.39-8.26-4.85-6.92-10.29,1.1-4.46,4.6-5.83,9.05-4.83C85.78,92,87.31,95,82.76,99.2,81.09,100.74,80.72,103.23,78.83,104.64Z" fill="#c4c4c4"/><path d="M73.4,17.64c-1.14,13.43-3.67,14.86-15.48,8.79C62.25,22,68,20.06,73.4,17.64Z" fill="#f7f7f7"/><path d="M78.83,104.64c.32-5.1,6.42-9.39,2.13-15.25a40.54,40.54,0,0,1,13.79,1.86c-4.69,4.71-10.43,8.28-14.5,13.67A2.34,2.34,0,0,1,78.83,104.64Z" fill="#f3f3f3"/><path d="M40.53,92.33a7.22,7.22,0,0,1,.12-10.21h0l.13-.13c4.42-3.45,7.3,2.75,11.28,3.64C49.14,89.41,44.6,90.53,40.53,92.33Z" fill="#f7f7f7"/><path d="M68.1,115.16a23.31,23.31,0,0,1-9.47,5.79,4.81,4.81,0,0,1-6.44-2.18,5,5,0,0,1-.45-1.47C56.73,112.82,62.39,113.9,68.1,115.16Z" fill="#f5f5f5"/><path d="M87.84,61.1c-2.3,5.89-5.71,10.38-13,9.22C75.88,62.56,80.59,60.07,87.84,61.1Z" fill="#f9f9f9"/><path d="M55.85,81.74a17,17,0,0,1-7.28-9.84L58.83,71A10.87,10.87,0,0,1,55.85,81.74Z" fill="#f9f9f9"/><path d="M54,146.83c1.12,1.85,3.81,3.34,2,5.92a3.06,3.06,0,0,1-4.27.69h0a2.46,2.46,0,0,1-.48-.43c-2.3-2.08-6.13-3.78-3-8Z" fill="#fafafa"/><path d="M50.71,128.14c3.51,1.85,12.93-3.84,9.19,7.22A18.29,18.29,0,0,1,50.71,128.14Z" fill="#f1f1f1"/><path d="M83.34,195.35,84,200c-.69,2.8-1.66,5.43-5.32,5.47-1.84,0-4,3.28-5.25.69a5.51,5.51,0,0,1,2.71-6.9C79,198.47,80.54,195.85,83.34,195.35Z" fill="#ededed"/><path d="M67.34,215.58l-5.73-1.41c-1.05-2.91-1.68-7.51,1.35-7.55A7,7,0,0,1,69.58,214v.1a7.28,7.28,0,0,1-.1.8,1.42,1.42,0,0,1-2.13.7Z" fill="#c9c9c9"/><path d="M93.94,172.46a7.65,7.65,0,0,1-9.22-3.51c-1.76-3,.57-4.49,2.12-6.7.67,4.84,5.83,6.14,6.93,10.26Z" fill="#dbdbdb"/><path d="M67.34,215.58l2.14-.76,1.79,4.38c-.52,2.11.42,4.58-1.72,6.23-2.38-1.12-4-2.7-3.34-5.65Z" fill="#373737"/><path d="M92.89,149.87c2.52-2.53,4.19-1.64,4.17,1.51s-.45,6.57-5.23,4.35Z" fill="#fafafa"/><path d="M48.59,71.94a15.27,15.27,0,0,0-8.43,4.76c-2.22,2.23-5.59,6.57-8.86.52,7-2.75,7.44-7.4,3-13.64a26,26,0,0,1,16,2.77C55.71,68.9,49.34,70,48.59,71.94Z" fill="#fcfcfc"/></g></g></g></svg>