<svg xmlns="http://www.w3.org/2000/svg" viewBox="0 0 183.93 237.7"><title>s10</title><g id="Layer_2" data-name="Layer 2"><g id="Layer_1-2" data-name="Layer 1"><g id="Layer_1-2-2" data-name="Layer 1-2"><path d="M97.74,237.66c-3-5.59-7.52-12.94-12.52-16.83a101.66,101.66,0,0,0-29-14.77c-8.65-3.24-17.4-6.3-25.82-10.11A48.71,48.71,0,0,1,.12,147.34a35.53,35.53,0,0,1,6.49-18.15c3.25-5,6.73-9.83,10.11-14.77A65.79,65.79,0,0,0,28.62,77.7,77.69,77.69,0,0,1,45.54,33C57.63,16.58,73.19,4.83,93.64,1.54a92.15,92.15,0,0,1,61.12,9.82,54.93,54.93,0,0,1,28.49,43.39,93,93,0,0,1-.33,24.83c-2.12,13.68-11.14,23-22.8,29.48-9.78,5.4-20.18,9.68-30.14,14.76a151.92,151.92,0,0,0-21.63,12.32A36.49,36.49,0,0,0,99.66,187a26,26,0,0,0,1.59,2.08c3.38,4.42,7.38,8.32,11,12.51,8.93,10.39,9.87,18.52,3.29,30.42-1.31,2.4-1.31,4,.8,5.69"/></g></g></g></svg>