<svg xmlns="http://www.w3.org/2000/svg" viewBox="0 0 81.79 243.5"><title>s2</title><g id="Layer_2" data-name="Layer 2"><g id="Layer_1-2" data-name="Layer 1"><g id="Layer_1-2-2" data-name="Layer 1-2"><path d="M24.54,225.61c.47-2.08,1-4.2,1.47-6.36a19.71,19.71,0,0,0-.58-9.25,26.48,26.48,0,0,1-.4-8c0-1.61-.52-3.21-.56-4.81a19.38,19.38,0,0,1,.35-5.15,40.89,40.89,0,0,1,2.29-5.58l.31-.41c.39-1.82.66-3.62,1.12-5.38.84-3.43,1.84-6.85,2.61-10.33.34-1.47.18-3.05.37-4.53a7.18,7.18,0,0,1,.78-1.9L33,163c.14-1.84,2.13-3.27,1.11-5.44-.24-.18.91-1.21,1.4-1.87a21.11,21.11,0,0,1,2.7-2.73,3.25,3.25,0,0,0,1.45-3.08,23.24,23.24,0,0,1,1.06-5.1c.24-.31.06-.94.19-1.33s.39-1.38.74-1.49A3.6,3.6,0,0,0,43.08,140a4.31,4.31,0,0,0-2.21-5.68h0a4.19,4.19,0,0,0-.91-.29,2.51,2.51,0,0,1-1.37-.7c-1-1.43-2-3-3.1-4.65a13.51,13.51,0,0,1-7.42-5,62.63,62.63,0,0,0-5.64-5.53c-.48-.37-1.36-.21-2-.46s-2-.61-2.31-1.25-1.38-1-2-1.53c-2-1.48-4.67-2.21-5.47-5a1,1,0,0,0-.76-.57c-1.81.1-1.42-1.07-1.38-2.12a3.79,3.79,0,0,0-.38-2,2.45,2.45,0,0,1-.18-2.94c.47-.63.19-1.7.63-2.35,1.72-2.65,3.62-5.18,5.3-7.86A23.5,23.5,0,0,0,15.63,88l1.45-3.73a10.24,10.24,0,0,0,.41-1.63l1.36-7.36L19,75c.46-3.06.46-3.06,3.69-3.61a15.66,15.66,0,0,0-3.54-5.74c-1.59-1.2-2.7-3-4.11-4.39a10.48,10.48,0,0,0-5.69-3.67,2.13,2.13,0,0,1-1.14-.86,26.6,26.6,0,0,1-2.75-3.9c-.81-1.59-2.56-1.27-3.75-2.22a2.54,2.54,0,0,1-.8-1.74c0-2.13.48-4.24-.74-6.23C-.18,42.38.09,41,.2,41,2,40.49,1.65,39,1.73,37.83S2,36.25,2.9,36.28A7,7,0,0,1,4.73,37l-.11.51A17.17,17.17,0,0,1,8.1,36.34a7.29,7.29,0,0,1,4.83,1.13,26.42,26.42,0,0,0,7.23,4.78c.38.29.85,1,1.34,1.33l7.09,5.32c3.07,2.68,6,5.51,9,8.21L41,59.7a70.84,70.84,0,0,1,5.87,5.38c2.57,2.47,5.13,5,7.7,7.46,1.94,1.89,3.91,3.8,5.93,5.58s3.46,2.6,5.33,4,4.33,3.74,6.81,5.92c.21-2.65.52-5,.64-7.41a14.8,14.8,0,0,0-1.38-6.45,16.49,16.49,0,0,1-.61-6.4,42.33,42.33,0,0,1,.59-5.62A7.53,7.53,0,0,0,70,56.87c-1.67-2.6-3.32-5.24-4.93-7.86-2.19,0-2.87-.64-3.22-2.9a5.77,5.77,0,0,0-1.15-1.94C59.17,42,57.56,40,56.16,37.77a45.55,45.55,0,0,0-5.78-8,42.5,42.5,0,0,1-3.23-4.43,4.22,4.22,0,0,0-.9-.67,7.51,7.51,0,0,1-2.19,1.55c-.33.07-1.07-.81-1.47-1.43l2.16-2L37.95,15l-.46.19c0,.9.09,1.75.09,2.62a5.06,5.06,0,0,1-.49,2,13.28,13.28,0,0,0-1.15,6.66A6.11,6.11,0,0,1,35,29.7a53.92,53.92,0,0,1-3.1,5.14c-.21.28-.72.38-.95.69l-1,1.39c.06,1.94.12,1.93-1.57,2.66a3.5,3.5,0,0,1-.15,4.95l-.06.05a3.26,3.26,0,0,1-.68.49,2.48,2.48,0,0,1-3.38-.47,21.68,21.68,0,0,1-3.26-3.55A3,3,0,0,1,21,38.53a41.6,41.6,0,0,1,3-4.76c.91-1.21,1.84-2.45.9-4.08a1.54,1.54,0,0,1,.62-1.27c1.3-.21,1.32-1.17,1.56-2.07.65-2.81,1.41-5.55,1.9-8.37.15-.92-.55-1.93-.57-2.92-.07-2.64,0-5.43.1-8a7.32,7.32,0,0,1,1.14-2.39C28.55,2.78,29.18,1.36,31.44,1A12,12,0,0,0,33,.42a4.72,4.72,0,0,1,6.25,2.34,4.66,4.66,0,0,1,.41,1.69,15.35,15.35,0,0,0,5.65,8.83C48,15.8,51.08,18,53.86,20.37a18,18,0,0,1,1.74,2.44c1.25,1.59,2.58,3.13,3.83,4.71A2.7,2.7,0,0,1,60,29c.17,3.74,3,6.21,4.55,9.3.59,1.15,2.31,1.74,3.46,2.6a42.51,42.51,0,0,1,7,10.62,10,10,0,0,0,4.27,5.42,2.06,2.06,0,0,1,.49,1.51,10.48,10.48,0,0,0-.06,5.69,4.3,4.3,0,0,1-.13,2.56c-.8,2.58.69,4.78,1.08,7.14s.87,6.05,1.12,8.68a18.27,18.27,0,0,1-.28,4.11,7,7,0,0,1-.8,1.79c1.37,1.78.87,2.81-1.3,4a5.45,5.45,0,0,0-2.6,3.46A3.58,3.58,0,0,1,73.72,99c-.42.13-1.32-.55-1.56-1.16a8.58,8.58,0,0,1-.65-2.38l-1.39.41c-1.27.46-2.14.18-2.59-1.24-.17-.56-.79-1-1.17-1.47S65.45,91.68,65,91a4.89,4.89,0,0,0-1.27-1.55c-1.28-1-3-1.24-4.35-2.13A27.09,27.09,0,0,1,56,84.09a26.41,26.41,0,0,0-3.37-3.23c-1.24-.93-2.69-1.31-2.94-3.29A2.34,2.34,0,0,0,48.07,76c-1.4,0-1.53-1.14-2.32-1.74-1.8-2-3.73-3.82-5.64-5.68s-3.67-3.47-5.55-5.15-4.14-3.7-6.28-5.47-3.46-2.59-5.33-4c-2.24-2.06-4.75-3.83-7.09-5.75-1.32-1-2.35-2.36-3.68-3.25A11,11,0,0,0,9,44l-.52.69L20.83,57.06c.12-2,1.17-2.21,2.55-1.82,2.44.64,3.9,2,3.47,3.31A1.6,1.6,0,0,1,25,59.81h0a1.84,1.84,0,0,1-.64-.28,7.07,7.07,0,0,0-2.07-1.13l4.23,4.09,2.51.32-.48,2.24-.66.15C29,66.47,30.1,67.7,31.15,69A63.38,63.38,0,0,0,42.09,79.62a19.7,19.7,0,0,1,2.08,1.55c1.25,1.22,2.24,2.71,3.61,3.85a56.3,56.3,0,0,0,5.4,4c3.18,2.39,6.49,4.39,6.13,9.2a33.63,33.63,0,0,0,.64,6.86,73,73,0,0,0,1.84,8.79,30.9,30.9,0,0,0,2.81,6.93,17.32,17.32,0,0,0,2.94,3.29c.94,1,1.7,1.92.12,3a1.14,1.14,0,0,0-.29.81c-.08,2.21-.05,4.4-.27,6.56a9,9,0,0,1-1.26,2.84A12.65,12.65,0,0,0,64.59,139c-.6,1.82-.85,3.74-1.62,5.49s-1.83,1.93-2.32,3.08c-1.23,2.43-2.07,5-3.23,7.47a6.8,6.8,0,0,1-3.83,4.32,2.16,2.16,0,0,0-1.53,2.47,18.53,18.53,0,0,1-.18,2.47,2.76,2.76,0,0,1-2.66,2.54c-1,.15-1.54.47-1.25,1.66a1.68,1.68,0,0,1-.13,1,8.69,8.69,0,0,0,.88,8.13,21.74,21.74,0,0,1,1.91,6,18.89,18.89,0,0,1-.35,4.44,2.05,2.05,0,0,0,.22,1.14c1.23,2.11,1.06,2.69-.74,4.53a2.82,2.82,0,0,0-.84,1.69c-.13,1.91,0,3.83-.12,5.71a11.29,11.29,0,0,1-.94,4.43c-.89,1.61-.05,2.51.79,3.41a30.18,30.18,0,0,0,3.49,2.78c1.19-3.11,3.91-2.48,6-2.84s4.8-.62,7.14-1.08a13,13,0,0,1,5.77-.48c1.83.45,3.92,0,5.78.44A6.73,6.73,0,0,1,80,210.17c.79,1-.07,1.68-2,1.61a12.27,12.27,0,0,1-.39,1.82c-.24.31-.5,1-.78,1-1.78.07-3.84.58-5.33-.11a7.74,7.74,0,0,0-8.42.56,4.77,4.77,0,0,1-5.16.67H57c2.46,1.85,2.45,4,2.08,6.38l-1,6.24c.83.19,2.44.21,2.57.68a6.74,6.74,0,0,1-.33,3.33,4.34,4.34,0,0,1-2.11,3.45c-1.12.56-2.13,1.11-3.45.27s-2.1-.59-2.23,1.09a1.62,1.62,0,0,1-.83,1.11,8.23,8.23,0,0,0-3.49,5.23m4.51-131.16h-.52c-1,.23-1.84.13-2-1s.91-1.21,1.7-1.33.79-.54.57-.76a6.8,6.8,0,0,1-.12-4.09,40.9,40.9,0,0,0,.47-6.25c.2-2.72-1.15-3.3-3-2.76l-.84.18c-2.06.3-1.64-1.56-1.94-2.1l-2.6-.71.83-2.41c-2-1.5-4.52-2.91-6.9-4.58a8.28,8.28,0,0,1-3.22-2.91,7.76,7.76,0,0,0-2.84-3.42,17.1,17.1,0,0,1-1.82-1.69l-4.89-5.08c0,1.76-.08,2.91,0,4.08.1,3.33.72,6.76-1.73,9.52a1.26,1.26,0,0,0-.22.65A9.2,9.2,0,0,1,20.48,95a4.93,4.93,0,0,0-.31,1.77c-.07.6.3,1.63,0,2-1.51,1.14-1.61,3.22-3.22,4.29-.44.59-.78,1,.35,1.56a12.52,12.52,0,0,1,2.87,2.15c2.11,1.59,3.88,3.62,6,5.2,3.12,2.34,6.39,4.47,9.53,6.77a53.59,53.59,0,0,1,4.24,3.73c1.89,1.74,4.52,2.63,5.8,5.1l.41.31a39.63,39.63,0,0,1,3.44,3.78,6.6,6.6,0,0,1,.85,3.12,34.26,34.26,0,0,1-.08,5.73,26,26,0,0,1-1.05,4.08l-.45.59c0,1.54,0,3.11-.1,4.68a3,3,0,0,1-.78,1.68,2.65,2.65,0,0,0-1,2.4,1.79,1.79,0,0,1-.33,1.16,47.07,47.07,0,0,1-4.59,6.62,18,18,0,0,0-3.64,7.38,4.94,4.94,0,0,0,0,1.33l.54.08a7.3,7.3,0,0,1,.55-2.61c2.43-3.59,4.77-6.86,7.16-10.26a5,5,0,0,0,1.45-3.3,3.53,3.53,0,0,1,1.44-2.71c3.07-1.86,2.95-5.52,4.78-8a13.89,13.89,0,0,0,1.94-3.3c1.24-3.24,2.11-6.7,3.55-9.84.86-1.95,1.34-3.37-.57-4.8l-.24-.18ZM47,231.87a39.78,39.78,0,0,0,2.35-3.65c1.33-2.41,2.32-4.81,3.27-7-3.15-2.37-5.53-4.75-8.26-6.74a2.23,2.23,0,0,0-2.75-.44c-1.16.75-1.75-.12-2.12-1.21s.73-2,2.35-2.41a9.91,9.91,0,0,1-1.73-1.3,3.4,3.4,0,0,1-.81-2c.33-2.24,1.15-4.55,1.25-6.64.38-4,3.11-7.67,2-11.94,1.32-1.77,0-3.49-.62-5.23-1.2.3-2.29.24-2-1.5a3.31,3.31,0,0,0-.83-2.79c-.42-.31-.22-1.3-.18-1.92a3.54,3.54,0,0,1,.46-1.12H36.73a25.91,25.91,0,0,1,.56,3.51,11.39,11.39,0,0,1-.46,2.84L35,190.49c-.7,3.1-1.4,6.2-2,9.31a2.1,2.1,0,0,0,.32,1.38,3.29,3.29,0,0,1-.24,3.93,1.91,1.91,0,0,0-.41,1.26,41.18,41.18,0,0,1,1,4.09c.1,1.38,1.93,2.91,1,4.87-.44.58-.14,1.62-.15,2.43a7.58,7.58,0,0,1,0,1.58c-.4,1.54-1,3-.11,4.62.24.18-.09.91-.28,1.31l-2.42,5.16c2.34-1.38,3.54-.31,5,.92m-.16-56.59,2.75-2.16-.2-1.17c-2,.9-2.94,1.89-2.6,3.61Z"/><path d="M18.19,24.15A12.29,12.29,0,0,1,18.37,22a7.92,7.92,0,0,1,3-.11c.21.15.32,1.16.5,1.78Z"/><path d="M68.1,75.5c-1.32.1-2.49.36-2.57.18A12.16,12.16,0,0,1,65.11,73c.65,0,1.53-.31,1.89,0A26.18,26.18,0,0,1,68.1,75.5Z"/><path d="M35.65,143.11c0-.9-.06-1.93.12-2a4,4,0,0,1,2.4,0c.31.23.31,1.25.46,1.91Z"/><path d="M18,120.53c-1.13-.14-1.95-.06-2.37-.37s-.19-1.12-.3-1.69c.58-.05,1.37-.38,1.71-.12A7.21,7.21,0,0,1,18,120.53Z"/><path d="M26.09,137.46c-.94-.11-1.67,0-2-.33s-.09-1-.1-1.59c.61,0,1.32-.25,1.73,0S26,136.55,26.09,137.46Z"/><path d="M41.22,29c-.05-.79-.34-1.56-.1-1.81s1.11-.25,1.71-.39c.07.54.36,1.24.16,1.58S41.94,28.83,41.22,29Z"/><path d="M36.52,175c-.34-1.72.56-2.77,2.41-3.22l.2,1.18Z" fill="#fff"/><path d="M44.86,123.63c0-1.08-.27-2.1.06-2.39a7.54,7.54,0,0,1,2.21-.56c.13.75.58,1.74.28,2.21S46.12,123.39,44.86,123.63Z"/><path d="M42.72,224.16a4.33,4.33,0,0,1,5.54-1.22c2.55,1.43,2.7,2.68.69,4.85a5.86,5.86,0,0,0-1.51,2,3.51,3.51,0,0,1-3.88,3.08,3.18,3.18,0,0,1-.74-.17c-2-.66-2.74-2.54-1.82-4.77A29.45,29.45,0,0,1,42.72,224.16Z"/></g></g></g></svg>