<svg xmlns="http://www.w3.org/2000/svg" viewBox="0 0 36.33 243.13"><title>s3</title><g id="Layer_2" data-name="Layer 2"><g id="Layer_1-2" data-name="Layer 1"><g id="Layer_1-2-2" data-name="Layer 1-2"><path d="M25.63,243.13c-1.34-26-3-70.14-4.87-96.13-1.27-21.16-3.52-42.63-5.9-64.17C13,66.2,10.58,49.63,8,33.1,6.82,25.92,4.51,18.88,2.71,11.84,2.37,10.52,1.23,9.42.85,8.07A9.57,9.57,0,0,1,.09,2.79,5.15,5.15,0,0,1,4.09,0,8.27,8.27,0,0,1,9.44,3.17a36.57,36.57,0,0,1,5.21,15c2,14.91,4.94,29.65,6.9,44.56,3.46,24.92,6.39,49.84,9.08,74.83,1.42,13.12,1.8,26.37,2.59,39.56.83,13.8,1.69,27.61,2.35,41.24.41,8.25.41,16.5.76,24.72"/></g></g></g></svg>