<svg xmlns="http://www.w3.org/2000/svg" viewBox="0 0 207.9 164.91"><title>s4</title><g id="Layer_2" data-name="Layer 2"><g id="Layer_1-2" data-name="Layer 1"><g id="Layer_1-2-2" data-name="Layer 1-2"><path d="M57.34,164.91l-6.49-12c-3.36-5.84-6.7-11.71-10.09-17.56-4.55-7.76-9.21-15.67-13.66-23.59A231.56,231.56,0,0,1,12.93,82.48,202.58,202.58,0,0,1,5.17,61.79C2.59,52.61,0,43.38,0,33.7c0-6.28.54-12.46,5.17-17.4a33.24,33.24,0,0,1,11.2-7.19A90.14,90.14,0,0,1,39,3.49c4.53-.85,9.19-1.39,13.76-1.86S62,.88,66.57.63C73,.31,79.38,0,85.76,0,97.51,0,109.25.44,121,.86q11.67.4,23.28,1.34c8,.65,16.09,1.3,24,2.59,7.32,1.09,14.56,2.77,21.81,4.4a29.65,29.65,0,0,1,14.79,8.38,10.94,10.94,0,0,1,3,8.3,75.84,75.84,0,0,1-5.64,24.83c-1.45,4.08-2.59,8.27-4.11,12.36-3.19,8.77-6.34,17.54-9.81,26.2C185,97.43,181.54,105.5,178,113.5c-2.43,5.32-5.36,10.34-7.76,15.7s-5.15,10.81-7.48,16.34c-2.09,5.18-4,10.35-5.94,15.37-.39,1-.73,2.06-1.35,3.88"/></g></g></g></svg>