<svg xmlns="http://www.w3.org/2000/svg" viewBox="0 0 123.51 312.05"><title>s5</title><g id="Layer_2" data-name="Layer 2"><g id="Layer_1-2" data-name="Layer 1"><g id="Layer_1-2-2" data-name="Layer 1-2"><path d="M95.86,310.45c1-5,2.48-10.08,3.14-15.18A96.76,96.76,0,0,0,99.7,283c.07-3.56,0-7.14-.23-10.66-.11-1.63-1.74-3.67-1.18-4.74,1.61-3,.09-5.76.41-8.51a6.39,6.39,0,0,0-.26-2.34c-2.57-8.84-2.14-18.22-4-27-1.29-6-2.12-12-3-18l-.7-5.25A7.33,7.33,0,0,1,87,196.85h0a7.09,7.09,0,0,1,1.47-2.19,14.15,14.15,0,0,1-2.49-3.32,49.59,49.59,0,0,1-4.07-13.9c-.15-4.84-5.12-8.83-2.22-14.09.31-.3-.09-1.69-.38-1.74-3.75-.94-3.21-3.93-3.45-6.67a5.69,5.69,0,0,0-1.28-2.22,22.66,22.66,0,0,1-3.33-4.9c-1.78-5.27-2.89-10.77-4.84-16-2.33-6.27-5.4-12.29-7.88-18.55-1.83-4.56-3.18-9.31-4.87-13.93a11.25,11.25,0,0,0-1.56-2.55c-.63-.66-1.53-1.38-1.68-2.17C49,87.84,45.61,82,43.06,75.85A158.16,158.16,0,0,0,34,59.54a140.94,140.94,0,0,1-9.84-18.17c-1.51-4-5.6-6.46-5.9-11.33l4.07.43C11.85,26.07,7.65,18,4.75,8.76c2.55.71,4.28,4.88,6.75.65l3,7.78-2.91-2.61-.72,3c1.8,1.07,3.53,2.24,5.38,3.15A23.4,23.4,0,0,1,27.86,32.4a26.19,26.19,0,0,0,3.07,4.39l-2.25,4,.9.51c3-2.55,4.21-2.25,6.37,1.14,1.07,1.66,2.63,3,3.63,4.62a33.56,33.56,0,0,1,2.08,4.57,34.91,34.91,0,0,0,1.94,3.62c.68,1.13,1.57,2.18,2.35,3.25L41.4,59.67c1.91,2,2.38,5.1,6.57,5.45,1.72.14,3.24,3.37,5,5.66,2.54-.94,4.18-.37,4,3.62a8.77,8.77,0,0,0,6.81,8.26l.51,12.44,5.13-1.84,1,1.1-8.18,9.89a54.11,54.11,0,0,0,7.46-1.49c3.16-1.13,3.5.69,4,3a8.9,8.9,0,0,1-4.39,9.94l1.13,1.18A32,32,0,0,1,73.89,115a20.25,20.25,0,0,1,4.87-1.52c.6-.09,1.37,1,2.08,1.57a20.58,20.58,0,0,1-1.61,1.87c-1.77,1.7-3.71,3.28-5.92,5.24,0,2.24,1,3.68,4.26,2.4l.52-4.56c2.14,4,6.19,6,4.15,10.7-.25.57,1.43,2.2,2.47,3.06a15,15,0,0,0,3.15,1.64l-.27,1.19-6,.3-.28,1.36c5,.8,11.25.18,10.84,8.28l-5.38-.75c5.58,3,3.41,7.27,1.69,11.47l1.62.51,4.06-5.32c1,3.12,1.94,6.25,2.87,9.41.43,1.29.91,3.18,1.77,3.57,3.36,1.76,1.83,2.71-1.09,4.14,1.42,2.44,2.82,4.79,4.14,7.21.34.65.79,1.84.51,2.1-2.53,2.43-1.6,7.91-7.14,7.72l.18,1.41a40,40,0,0,0,4.77.16,51.66,51.66,0,0,0,5.25-1l-1,9.39c6.17,1.65,7.59,3.08,6,7.69s.57,8.57,1.68,12.25c1.55,5,1.45,7.21-3.55,9.78a6.15,6.15,0,0,0-1.53,1.48l.74,1,5.94-3.43c2.66,4.91.23,9.31-1.7,14,2.37.31,4.95-4.77,6.7-.16.26.65-2.49,2.39-4.22,4a13.57,13.57,0,0,0,4.31,9.17c3.29,2.84,1.73,5.6-2.87,6.81l4.23-.29c1.89,5.56-4.6,5.6-6.51,8.81,3.13,1.82,6.71-2.39,9.24,1.54l-5.79,7.27,6.44-.43-8.26,11c3.36,1.59,4.85-4.91,7.61-1,2.23,3.12-2.07,3.12-2.95,4.53l2.95,6.5-4.46-1.43a16.24,16.24,0,0,0,1.42,3.42,42.76,42.76,0,0,0,3.13,3.72,51.1,51.1,0,0,1-4.4,3,11,11,0,0,1-2.89.66l.5,3.14a32.66,32.66,0,0,1,5.91,2.43"/><path d="M1,.12A43.36,43.36,0,0,1,4.31,3.58,2.6,2.6,0,0,1,5,5.91,4,4,0,0,1,2.7,7.77C2.24,7.88,1.09,6.77,1,6A56.4,56.4,0,0,1,0,0Z"/></g></g></g></svg>