<svg xmlns="http://www.w3.org/2000/svg" viewBox="0 0 123.25 203.57"><title>s6</title><g id="Layer_2" data-name="Layer 2"><g id="Layer_1-2" data-name="Layer 1"><g id="Layer_1-2-2" data-name="Layer 1-2"><path d="M49,10.34a8,8,0,0,1-3.1-.41c-1-.41-1.77-1.41-.82-2.46a5.6,5.6,0,0,1,1.19-.91,41.84,41.84,0,0,1,33.8-5A15.38,15.38,0,0,1,91.86,17.34c0,5-.5,9.92-.77,14.83s.5,6.19,4.55,8.14c2.68,1.23,5.46,2.23,8.18,3.32,1.1.46,2.23.91,3.28,1.41a9.87,9.87,0,0,1,6.42,12.39h0c-.07.22-.15.44-.23.66-1.09,4.09-3,8-4.55,12-1.05,2.87-2.05,5.78-2.91,8.69a6,6,0,0,0,2.23,6.55c2.59,2.14,5.36,4.14,8.05,6.24a51.07,51.07,0,0,1,4.55,3.64,6.87,6.87,0,0,1,1.1,9.65l-.15.17c-1.14,1.64-2.59,3.05-3.86,4.55-2.69,3.32-5.55,6.51-8,10a32.1,32.1,0,0,0-5.32,27.89,41.19,41.19,0,0,1,1.41,7.14,6,6,0,0,1-3.1,5.82,14.24,14.24,0,0,1-3.55,1.73,35.82,35.82,0,0,0-21.51,19.56c-2.19,4.14-3.78,8.65-5.92,12.83a43.36,43.36,0,0,1-4.82,7.6c-1.77,2.18-3.27,1.77-4.55-.73l-1.27-2.68c-.91,2-2.14,3.09-4.32,2.32v-.37c2.77-.82,3.32-1.41,3.18-4.55a60.14,60.14,0,0,0-1-8.87A9.07,9.07,0,0,0,51.52,180q-6-1.28-12.23-2.14c-10.06-1.46-13.92-5.1-15.06-15.19-.59-5.42-.55-10.88-.77-16.34a34.22,34.22,0,0,0-.41-6.55,12.75,12.75,0,0,0-5.46-8.82,136.72,136.72,0,0,1-10.92-9.1A18.66,18.66,0,0,1,1.57,100a48.06,48.06,0,0,1,4.55-9.1c2.73-4.55,5.6-9.1,8.65-13.65a15,15,0,0,0,1.13-16c-1-2.09-2-4.19-3.18-6.19a6.73,6.73,0,0,1,.36-7.91,31.75,31.75,0,0,1,2.69-3.41,335.39,335.39,0,0,1,27-26.53c2.42-2,4.55-4.55,6.69-6.68Z"/></g></g></g></svg>