<svg xmlns="http://www.w3.org/2000/svg" viewBox="0 0 174.22 249.63"><title>s7</title><g id="Layer_2" data-name="Layer 2"><g id="Layer_1-2" data-name="Layer 1"><g id="Layer_1-2-2" data-name="Layer 1-2"><path d="M100.44,214.9a2.13,2.13,0,0,1,1.45,2.1,6.65,6.65,0,0,0,2.55,1.9c2.89,1.48-.31,3.65.58,5.37.18.34-1.06.82-.2,1.24,3,1.38,2.72,2.27-.24,3.24-1.35.44,2.06,2.54-.8,2.78-3.44-3.06-6.71-6.06-9.88-9.26a5.38,5.38,0,0,0-2.62-1.93c-1.44-2.27-4.13-3.27-5.71-5.4s-3-3.72-.83-6.1c1-1,.21-1.82-.52-2.55a55.72,55.72,0,0,0-8.3-8c-2.13-1.41-5-1.83-6.68-4.13-5.78,2-7.57-3.45-10.33-6.2-1.93-2-2.93-5.24-5-7.55l-.48-.48a7.68,7.68,0,0,1-.69-.82,2.3,2.3,0,0,1-.34-.66v-.34l.24-.28-3.45-5.47c-.34-.9-1.65-1.28-1.34-2.52s-1.1-3.13.93-3.68c1.45-.38,2.34,1.17,3.44,1.93a9.72,9.72,0,0,1,3.76,6.4,50.72,50.72,0,0,0,8.92,8.4h.27c.07,0,0-.2,0-.31.66-1.61,1.24-2,3.45-1.79A62.75,62.75,0,0,1,76.06,182c3.44.73,2.65,1.86,1.68,3.83-.44.89.42,1.27.73,1.89-.49.79-1,.55-1.59,0s-1.13-1.79-2.06-.83.2,1.55.68,2.24,1.11,1.31,1.66,2c.69,1.35,2.27,1.52,3.2,2.55A32,32,0,0,1,91,204.46a1.35,1.35,0,0,0,.34,1.79A86.27,86.27,0,0,0,100.44,214.9Z" fill="#fefefe" stroke="#000" stroke-miterlimit="10" stroke-width="0.5"/><path d="M20.75,113.34c1-.72,2.17-4,2.76.25a1.69,1.69,0,0,0,.52,1.17c5,3,7.26,8.26,10.74,12.57a7.3,7.3,0,0,0,2.51,2.37c3.65,3.45,6.89,7.44,10.71,10.75l-.65,1.48c-.86.76-.24,1.38.24,1.93s1.14,1.06.55,2c-3.79,0-5.13,1.62-4.1,5.41a1.23,1.23,0,0,1-1.74,0h0c-1.93-2.52-4.71-4.24-6.09-7.2l-.73-.59c-.55-1.55-2.2-1.79-3.44-2.68-.41-.76-1.48-1.07-1.34-2.14.76-.45.27-1.27.62-1.82.38-2-1.31-2.83-2.69-5.13.76,4.09-1.24,4.54-3.44,4.33s-2.48-1.48-1.55-3.44c1.2-.28,2.48,3,3.72,0a4.51,4.51,0,0,1-2.55-2.55,1.29,1.29,0,0,1-.72-1.24,1.2,1.2,0,0,1,1.68,0c-1.82-.51-1.82-3.92-4.75-3.75-.76-.24-1.51-.55-2.17,0a5.47,5.47,0,0,1-3.44-2.72c-.73-1.59-2.45-2.34-3.21-3.89a4.21,4.21,0,0,1-2.1-2.1,5.46,5.46,0,0,0-1.89-1.9A2.35,2.35,0,0,1,6.74,113a45.34,45.34,0,0,0-4.4-4.79c-.66-.66-1.66-1.21-1-2.41,2.21.79,1.55-1.52,2.58-2.31a24,24,0,0,1,4.86,5c.76.8,1.1,2.14,2.58,2,2.17,0,1.69-2.86,3.45-3.44s1.72,1,2.72,1.31c.24,1.17,1.72,1.68,1.51,3.1S19.27,113.69,20.75,113.34Z" fill="#fefefe" stroke="#000" stroke-miterlimit="10" stroke-width="0.5"/><path d="M54,161.07c1.07.93,2.2,1.83,3.2,2.86s1.76,1.28,2.86.52a.43.43,0,0,1,.21.45c-.07.24,0,.2-.21.2,0,2,.69,2.86,2.72,1.73a19.42,19.42,0,0,1,2.65-1c.55,2.55-1.45,3.45-3.06,4.34a1.47,1.47,0,0,1-.83,0,3.41,3.41,0,0,1-.65-.48l-.28-.28-.59-.48a2.31,2.31,0,0,1-.65-.41l-1.41-.69a4.29,4.29,0,0,0-.66-.69h0a.36.36,0,0,0-.49-.14h0a.35.35,0,0,0-.14.13l-.76-.72c-1.13-.86-2.17-1.83-3.44-2.62h0c-1-2.07-3.45-2.86-4.07-5.3l.59-1.41C51.16,158,52.13,160,54,161.07Z" fill="#fefefe" stroke="#000" stroke-miterlimit="10" stroke-width="0.5"/><path d="M110.46,207l-.65-.55c-.65-2.28-2.75-3.45-4-5.34-1.65,0-5.2-3.17-4.75-4.82s2.27-2.62,2.89-1.31c2.17,4.51,7.44,7.13,7.82,12.67a.42.42,0,0,1-.58.08l-.08-.08C111,207.36,110.67,207.22,110.46,207Z" fill="#fefefe" stroke="#000" stroke-miterlimit="10" stroke-width="0.5"/><path d="M138.88,174.47c-1-.21-2.83.62-2.66-1.65s.52-4.41,3.65-4.31c2.11,0,2.48,1.21,2.55,3C142.49,174,141.25,174.71,138.88,174.47Z" fill="#fefefe" stroke="#000" stroke-miterlimit="10" stroke-width="0.5"/><path d="M117.87,172.71a62.74,62.74,0,0,1,10.33,9.2c.9.86.24,1.41,0,1.89s-1.34,0-1.52-.24c-2.58-2.37-5-4.92-7.54-7.33C118.18,175.22,118.66,173.82,117.87,172.71Z" stroke="#000" stroke-miterlimit="10" stroke-width="0.5"/><path d="M38.8,117.89c-1.38.76,0,2.65-1.48,3.44-.69.31-.86-.27-1.17-.65-1.48-1.24-3.45-2.14-4-4.1a.37.37,0,0,0,0-.45s0-.2-.17-.2h0l-.76-.76h0a.55.55,0,0,1-.17-.45v-.24a4.49,4.49,0,0,1,4.71,0h.31a1.3,1.3,0,0,1,.52.38l.17.24.86.59v.24l.45.44.21.25.45.48.17.27A.38.38,0,0,1,38.8,117.89Z" fill="#fefefe" stroke="#000" stroke-miterlimit="10" stroke-width="0.5"/><path d="M67.86,129.12l22.05-22.73a201.24,201.24,0,0,1-20.15,22c-.59.58-1.14,1.07-2,.58Z" stroke="#000" stroke-miterlimit="10" stroke-width="0.5"/><path d="M155.65,137c1.89-.76,1.93-3.2,3.68-3.45s2.72,1.49,2.79,3.1a2.72,2.72,0,0,1-2.49,2.93h-.4C157.68,139.69,157.13,138,155.65,137Z" fill="#fefefe" stroke="#000" stroke-miterlimit="10" stroke-width="0.5"/><path d="M48,140.45a2.09,2.09,0,0,1-2.28-.76c-2.48-3.75-6.33-6.17-9-9.71,0-1.31.62-1.14,1.45-.76A54.67,54.67,0,0,1,48,140.45Z" stroke="#000" stroke-miterlimit="10" stroke-width="0.5"/><path d="M65.87,141.14c.89,1.34-.31,2-1,2.68-1.72,1.86-3.44,3.45-5.33,5.37-.69.66-1.49,1.83-2.45.9s.21-1.93.9-2.65a24.3,24.3,0,0,1,2-1.66C62.32,144.61,63.22,141.76,65.87,141.14Z" fill="#fefefe" stroke="#000" stroke-miterlimit="10" stroke-width="0.5"/><path d="M147.8,83.93a4.54,4.54,0,0,1,3.92,1.79,25.48,25.48,0,0,1,6,7.51h0a26.49,26.49,0,0,1-9.95-9.4Z" stroke="#000" stroke-miterlimit="10" stroke-width="0.5"/><path d="M52.33,79.73c2.45,2.1,4.65,4,6.89,5.86.93.75,1.17,2.06.59,2.61s-1.73-.27-2.31-1C55.67,84.93,52.54,83.62,52.33,79.73Z" stroke="#000" stroke-miterlimit="10" stroke-width="0.5"/><path d="M48.1,145.78c0-1.51-2.07-1.89-2.07-3.44s.83-.48,1.31-.38c0,1.17.59,1.62,1.69,2,2.48.8,3.44,3.45,5.82,5C51.37,149.85,50.1,146.92,48.1,145.78Z" stroke="#000" stroke-miterlimit="10" stroke-width="0.5"/><path d="M91.25,220.31c.51,0,.86-1,1.62,0,3.44,4,7.75,7.09,10.91,11.33-3.44-1.31-5.16-4.82-8.19-6.89A24.65,24.65,0,0,1,91.25,220.31Z" stroke="#000" stroke-miterlimit="10" stroke-width="0.5"/><path d="M121.69,53.66a30.66,30.66,0,0,1-8.33-6.88c-.66-.62-1.55-1.45-.28-2.07s.35,1,.9,1.24C117.7,47.33,119.35,50.8,121.69,53.66Z" stroke="#000" stroke-miterlimit="10" stroke-width="0.5"/><path d="M80.5,143.13c.49,0,1.38.18.76.9-1.69,2-3.44,3.82-5.68,6.13-.9-4.2,1.82-5.34,3.72-6.89a.8.8,0,0,1,1.1-.22Z" fill="#fefefe" stroke="#000" stroke-miterlimit="10" stroke-width="0.5"/><path d="M68.59,47.46c0-2-3.45-1.68-2.52-4.37,2.79,1.21,3.69,4.93,7.27,5.34,1,0,0,2,0,3.06-1.55.52-2-1-2.89-1.55A13.73,13.73,0,0,1,68.59,47.46Z" fill="#010101" stroke="#000" stroke-miterlimit="10" stroke-width="0.5"/><path d="M43.41,153.22a1.28,1.28,0,0,0,0,.55,1.23,1.23,0,0,1-.86.93,1.72,1.72,0,0,1-1.82-1.58l-5-5.62,2.17.31C41,148.33,42.24,150.74,43.41,153.22Z" stroke="#000" stroke-miterlimit="10" stroke-width="0.5"/><path d="M43.41,153.22a22.92,22.92,0,0,0-5.4-5.41c0-1.62-3.45-1.62-1.86-3.92a31.69,31.69,0,0,1,5.89,6,2.3,2.3,0,0,0,2,1.35C43.45,151.78,45.76,153.22,43.41,153.22Z" stroke="#000" stroke-miterlimit="10" stroke-width="0.5"/><path d="M76.58,155.12c1.27,1.31.58,2.41-.42,3.44s-2.41,2.2-3.65,3.44c-1,.38-2.41,2.42-2.61-.62l.58-.75a9.77,9.77,0,0,0,4.72-4.58l.69-.73C76.14,154.84,76.37,154.77,76.58,155.12Z" fill="#fefefe" stroke="#000" stroke-miterlimit="10" stroke-width="0.5"/><path d="M42.69,154.53l.76-.72,5.2,4.75c1,2,3.75,2.72,4.06,5.3l-4-3.44C46.1,159,43.41,157.8,42.69,154.53Z" stroke="#000" stroke-miterlimit="10" stroke-width="0.5"/><path d="M100.44,214.9A5.23,5.23,0,0,1,97,212.59a63.57,63.57,0,0,0-6.13-6.37c-.72-.72-2-1.68.38-1.82a39,39,0,0,0,6.89,7.85C98.86,213.11,100,213.66,100.44,214.9Z" stroke="#000" stroke-miterlimit="10" stroke-width="0.5"/><path d="M65.87,141.14c-2.24,1.17-3.07,4.13-5.82,4.64,3.23-3.2,5.27-7.68,10-9.33Z" stroke="#000" stroke-miterlimit="10" stroke-width="0.5"/><path d="M18.76,99.4c2-.21,5.51,2.92,5.27,4.65a1.06,1.06,0,0,1-1,1.13h0a1.2,1.2,0,0,1-1.53-.74l0-.08-.79-2.48C20,101.22,18.62,100.88,18.76,99.4Z" fill="#fefefe" stroke="#000" stroke-miterlimit="10" stroke-width="0.5"/><path d="M21.44,87.22,32.33,98l.68-.65L22.17,86.45Z" stroke="#000" stroke-miterlimit="10" stroke-width="0.5"/><path d="M61.39,28.22c1.52,2,3.1,4,4.55,6,.24.34,1.06,1,0,1.58s-1.24-.28-1.45-.69a24.72,24.72,0,0,0-4.75-6.06c-1.1-1.24.41-.59.72-.86a.58.58,0,0,1,.93,0Z" stroke="#000" stroke-miterlimit="10" stroke-width="0.5"/><path d="M77.34,167.58a9.72,9.72,0,0,1,4-3.82.69.69,0,0,1,.92.31.63.63,0,0,1,0,.52,6.12,6.12,0,0,1-3.92,4C77.65,169,77.4,168.58,77.34,167.58Z" fill="#fefefe" stroke="#000" stroke-miterlimit="10" stroke-width="0.5"/><path d="M65.14,182.43c.18.89,1.66,1.17,1.18,2.65-3.17-2.93-6.2-5.68-9.2-8.47-.62-.55-1.51-1-1.2-2.14A118.83,118.83,0,0,0,65.14,182.43Z" stroke="#000" stroke-miterlimit="10" stroke-width="0.5"/><path d="M20.82,124.47a2.75,2.75,0,0,1,3.55,1.59h0a1.07,1.07,0,0,1,.07.19c.69,1.65,2.51,2.82,3.44,4.51-1.41-.65-2.37-2-4-2.2s-1.07-2.45-2.62-2.69a.9.9,0,0,1-.44-1.41Z" stroke="#000" stroke-miterlimit="10" stroke-width="0.5"/><path d="M53.33,142.62a29.28,29.28,0,0,1-5.44-6.89l.38-.31a1.63,1.63,0,0,1,1.79.31c1.21.79,2.31,1.62,1.83,3.44.34,1,1.72,1,2,2.1v1.24a.38.38,0,0,1-.51.16h0Z" stroke="#000" stroke-miterlimit="10" stroke-width="0.5"/><path d="M44.07,66.68c-.59-2.62-3.45-3.44-4.62-5.85,1.59,0,2.28,1.13,2.9,2,1.82,2.48,5.09,3.44,6.3,6.58a.9.9,0,0,1-1.24,0,1.18,1.18,0,0,0-.59,0A12.53,12.53,0,0,0,44.07,66.68Z" stroke="#000" stroke-miterlimit="10" stroke-width="0.5"/><path d="M42.69,154.53c1.45,2.52,4.31,3.45,6,5.82l-.59,1.41a10.11,10.11,0,0,1-3.44-3.44h0a11,11,0,0,1-3.45-3.44c-.75-.52-2-.86-.65-2.07Z" fill="#fefefe" stroke="#000" stroke-miterlimit="10" stroke-width="0.5"/><path d="M141.8,91.34c-2-2.52-3.44-5.51-6.88-6.89-.66-.69-1.52-1.34-.66-2.44a62.48,62.48,0,0,1,8.71,8.5C142.87,91.22,142.49,91.58,141.8,91.34Z" stroke="#000" stroke-miterlimit="10" stroke-width="0.5"/><path d="M156.13,97.5c1.27-.62,1.82.42,2.44,1.1a51.36,51.36,0,0,1,4,5.27c-2.58-1.68-5.82-2.72-6.37-6.47Z" stroke="#000" stroke-miterlimit="10" stroke-width="0.5"/><path d="M127.44,78.46c-.41-2.1-2.27-3.07-3.44-4.55-.28-.31-1-.48-.48-1.2s1,0,1.44.24c1.24,1.24,2.52,2.44,3.72,3.72.48.51,1.55,1,.86,1.79S128.13,78.8,127.44,78.46Z" stroke="#000" stroke-miterlimit="10" stroke-width="0.5"/><path d="M97.86,198.89c-2-2.9-5.48-4.58-6.47-8.34a88.69,88.69,0,0,0,7.74,7.65,1.52,1.52,0,0,1-.65.86A.56.56,0,0,1,97.86,198.89Z" stroke="#000" stroke-miterlimit="10" stroke-width="0.5"/><path d="M63.9,76.05a21.67,21.67,0,0,1-6.13-4.58c-.37-.31-1.37-.62-.68-1.41,1.17-1.35.65.79,1.37.72s1,.38,1.45.62c1.79-.31,2.38,1.07,3.13,2.24S64.46,75,63.9,76.05Z" stroke="#000" stroke-miterlimit="10" stroke-width="0.5"/><path d="M111.57,45c-3.83-.75-4.79-4.3-7.13-6.26C107.74,39.54,109.26,42.47,111.57,45Z" stroke="#000" stroke-miterlimit="10" stroke-width="0.5"/><path d="M61.22,169.72c2.37-.28,3.44-2,4.13-4l1.9-.76a1,1,0,0,1,.79.76c0,.89-2,.52-1.45,1.89a5.87,5.87,0,0,1-1.86,2.07l-.79.79a2.09,2.09,0,0,1-1.17.45,3,3,0,0,1-.83-.21.69.69,0,0,1-.48-.58h0C61.18,170.22,61.08,170,61.22,169.72Z" fill="#050505" stroke="#000" stroke-miterlimit="10" stroke-width="0.5"/><path d="M48,135.8c-.93-1-2.76-1.38-2.48-3.45.27-.34,0-1,.55-1.2,2.48-1.55,1.55,1.72,2.75,2a2.71,2.71,0,0,1-.62,2.65Z" fill="#fefefe" stroke="#000" stroke-miterlimit="10" stroke-width="0.5"/><path d="M2.88,109.87C2.36,108.35.06,108,.26,106H1.43c1.45,1.76,2.9,3.45,4.38,5.27.48.59,1.2,1,1,1.93Z" stroke="#000" stroke-miterlimit="10" stroke-width="0.5"/><path d="M108.4,214.9l.86.45a3.9,3.9,0,0,1,2.2,3c0,.58-1,.72-1.27.34-.93-1.14-3.44-1.38-2.31-3.75C108.05,214.66,108.23,214.63,108.4,214.9Z" fill="#fefefe" stroke="#000" stroke-miterlimit="10" stroke-width="0.5"/><path d="M122.86,197.41a6.55,6.55,0,0,1-3-3.1c-.24-.55.17-1.31.72-1a5.55,5.55,0,0,1,3,3.21C123.69,196.86,123.69,197.34,122.86,197.41Z" fill="#fefefe" stroke="#000" stroke-miterlimit="10" stroke-width="0.5"/><path d="M88.8,170.13c.38-.55.52-.89.76-1,1.1-.72,1.45-2.58,3.27-2.14.42,0,.86.52.45.93C92.11,169,91.28,171,88.8,170.13Z" fill="#fefefe" stroke="#000" stroke-miterlimit="10" stroke-width="0.5"/><path d="M126.51,68.75l-5-5.27C124.89,65.75,125.58,66.41,126.51,68.75Z" stroke="#000" stroke-miterlimit="10" stroke-width="0.5"/><path d="M87.84,228.13c-.21,2.1,2.65,2.44,2.69,4.92a38.58,38.58,0,0,1-6.31-6.65c1.83.18,2.21,2.24,3.76,1.83Z" stroke="#000" stroke-miterlimit="10" stroke-width="0.5"/><path d="M75.23,155.87c-.44,2.83-2.72,5-4.71,4.59A21.15,21.15,0,0,1,75.23,155.87Z" stroke="#000" stroke-miterlimit="10" stroke-width="0.5"/><path d="M83.91,157.22c1.14-.41,1.48-1.93,2-2L80,161.42h0l3.27-3.68A.92.92,0,0,1,83.91,157.22Z" stroke="#000" stroke-miterlimit="10" stroke-width="0.5"/><path d="M68,165.79l-.79-.75c0-1.8,1.89-2.48,2.65-3.83.2,3,1.89-.31,2.61.62-.44.76-.75,1.83-1.89,1.62C68.59,163.07,68.86,165,68,165.79Z" stroke="#000" stroke-miterlimit="10" stroke-width="0.5"/><path d="M96.38,184.8a6.16,6.16,0,0,1,2.51,2.76c.21.58-.51.93-1.06.69a3.87,3.87,0,0,1-2.41-2.41C95.24,185.22,95.66,184.8,96.38,184.8Z" fill="#fefefe" stroke="#000" stroke-miterlimit="10" stroke-width="0.5"/><path d="M172.52,125a33.72,33.72,0,0,1-6.51-5.65c-.55-.48,0-.72.21-1s.45-.42.69,0C168.08,120.85,170.7,122.06,172.52,125Z" stroke="#000" stroke-miterlimit="10" stroke-width="0.5"/><path d="M138.5,141.07a28.91,28.91,0,0,1,5.85,6.44c-1.86-2.17-5.23-3-5.61-6.51Z" stroke="#000" stroke-miterlimit="10" stroke-width="0.5"/><path d="M59.6,47.43l-6.13-5.61-.41.44,6.13,5.62Z" stroke="#000" stroke-miterlimit="10" stroke-width="0.5"/><path d="M126.48,173.68c.82-1.41,1.31,0,1.82.27a2.19,2.19,0,0,1,.73,1c.34,1.28,3.1,1.11,2.17,2.72s-1.07-2.1-2.45-.79h-.31C128,175.81,126.41,175.22,126.48,173.68Z" stroke="#000" stroke-miterlimit="10" stroke-width="0.5"/><path d="M92.69,239.15c0-.62,0-1,.59-1,1.76,0,2.24,1.28,2.89,2.52.28.55.21.75-.34.75C94,241.52,93.59,239.9,92.69,239.15Z" stroke="#000" stroke-miterlimit="10" stroke-width="0.5"/><path d="M105.85,201c1.41,1.28,2.86,2.55,4.24,3.86.62.59.51,1.1-.28,1.48A13.09,13.09,0,0,1,105.85,201Z" stroke="#000" stroke-miterlimit="10" stroke-width="0.5"/><path d="M71.38,168.41a2.52,2.52,0,0,1,2.27-1.86.58.58,0,0,1,.68.46h0a.54.54,0,0,1-.06.39,3.23,3.23,0,0,1-2.34,2C71.41,169.51,71.38,169,71.38,168.41Z" fill="#fefefe" stroke="#000" stroke-miterlimit="10" stroke-width="0.5"/><path d="M47.65,114.07a15.43,15.43,0,0,1,5.41,5A15.44,15.44,0,0,1,47.65,114.07Z" stroke="#000" stroke-miterlimit="10" stroke-width="0.5"/><path d="M62.66,74.15a6.63,6.63,0,0,0-2.75-2.75c.9-2,2.1-.21,3.13-.24h0l.9,3a.83.83,0,0,1-1.16.14Z" stroke="#000" stroke-miterlimit="10" stroke-width="0.5"/><path d="M45.38,123.22c2.27.17,2,1.89,2,3.44a.87.87,0,0,1,0,1.22h0c-.66-1.69-2.76-2.55-2.72-4.61a.37.37,0,0,1,.46-.25h0A.39.39,0,0,1,45.38,123.22Z" fill="#fefefe" stroke="#000" stroke-miterlimit="10" stroke-width="0.5"/><path d="M113.12,193.72l-5.27-5a10.55,10.55,0,0,1,5.34,4.17.54.54,0,0,1,0,.76h0Z" stroke="#000" stroke-miterlimit="10" stroke-width="0.5"/><path d="M141.8,91.34l1.28-.69c1.79,0,1.86,1.38,2.44,2.69C143.83,93.27,142.49,93,141.8,91.34Z" stroke="#000" stroke-miterlimit="10" stroke-width="0.5"/><path d="M161.57,104.94c1.76,1.48,3.13,3.45,4.89,4.82Z" stroke="#000" stroke-miterlimit="10" stroke-width="0.5"/><path d="M151.82,133.15a5.46,5.46,0,0,1-4.89-4.14,11.75,11.75,0,0,1,4.83,4.14Z" stroke="#000" stroke-miterlimit="10" stroke-width="0.5"/><path d="M70.52,49.46l2.79,2c-.31.55.27,2.55-1.42.93-.93-.89-1.75-1.92-2.61-2.89A.82.82,0,0,1,70.52,49.46Z" fill="#0d0d0d" stroke="#000" stroke-miterlimit="10" stroke-width="0.5"/><path d="M78.51,208.91c1,.62,2.13,1.17,1.89,2.65a.85.85,0,0,1-.72.41A2.71,2.71,0,0,1,78,208.84C78.16,208.6,78.33,208.6,78.51,208.91Z" fill="#fefefe" stroke="#000" stroke-miterlimit="10" stroke-width="0.5"/><path d="M32.39,107.77c-1.58-.52-2.48-1.21-2.68-2.48,0-.52.51-.66,1-.56C32.05,105.15,32.29,106.22,32.39,107.77Z" fill="#fefefe" stroke="#000" stroke-miterlimit="10" stroke-width="0.5"/><path d="M110.26,142.89c.31.48.79,1.07.69,1.17a26,26,0,0,1-2.62,2.83c-.45.41-.93-.45-.9-.52C107.81,145,109.22,144.37,110.26,142.89Z" stroke="#000" stroke-miterlimit="10" stroke-width="0.5"/><path d="M65.42,67.71c1.45.86,2.65,1.35,2.79,2.93-1.17-.31-.48,1.65-1.14,1.21C65.83,71.16,66,69.47,65.42,67.71Z" fill="#090909" stroke="#000" stroke-miterlimit="10" stroke-width="0.5"/><path d="M30.71,87.34l-2.59-3a11.64,11.64,0,0,1,5.34,4.41C31.91,89.51,31.43,88.38,30.71,87.34Z" stroke="#000" stroke-miterlimit="10" stroke-width="0.5"/><path d="M130,132l4.54,4.58.59-.65-4.58-4.52Z" stroke="#000" stroke-miterlimit="10" stroke-width="0.5"/><path d="M147.8,83.83c-3,0-3.45-3-5.34-4.27a14.08,14.08,0,0,1,5.34,4.37Z" stroke="#000" stroke-miterlimit="10" stroke-width="0.5"/><path d="M96.35,59.72C95.62,62,93.62,63.17,92,64.58,92.69,62.31,94.69,61.14,96.35,59.72Z" stroke="#000" stroke-miterlimit="10" stroke-width="0.5"/><path d="M125.24,131c.69-1,1.34-2,2.06-3,.25-.31.56-1,1.24-.31s0,.9-.2,1.24l-2.55,2.41Z" stroke="#000" stroke-miterlimit="10" stroke-width="0.5"/><path d="M30.71,87.34c.93.38,1.37,1.66,2.61,1.42h0c.38,1,1.79,1.48,1.42,2.82a1.12,1.12,0,0,1-1.35,0C33.08,89.72,30.43,89.48,30.71,87.34Z" fill="#fefefe" stroke="#000" stroke-miterlimit="10" stroke-width="0.5"/><path d="M54,161.07c-2.31-.44-3.24-2.51-4.69-4C51.75,157.22,52.54,159.53,54,161.07Z" stroke="#000" stroke-miterlimit="10" stroke-width="0.5"/><path d="M75.2,19.22l-4.61-4.41A9.17,9.17,0,0,1,75.2,19.22Z" fill="#030303" stroke="#000" stroke-miterlimit="10" stroke-width="0.5"/><path d="M138.7,165l-4-4.58A7.08,7.08,0,0,1,138.7,165Z" stroke="#000" stroke-miterlimit="10" stroke-width="0.5"/><path d="M71.62,110a6.91,6.91,0,0,1-3.45,4.2C68.59,112.22,69.38,111.22,71.62,110Z" stroke="#000" stroke-miterlimit="10" stroke-width="0.5"/><path d="M37.59,157.22a2.55,2.55,0,0,1,1.64,3.21,1.17,1.17,0,0,1-.09.24,2.54,2.54,0,0,1-1.63-3.2h0A2.25,2.25,0,0,1,37.59,157.22Z" fill="#fefefe" stroke="#000" stroke-miterlimit="10" stroke-width="0.5"/><path d="M71.83,145.16c0-2.13,2.13-2.51,3.44-4.54C75,143.48,73,143.89,71.83,145.16Z" stroke="#000" stroke-miterlimit="10" stroke-width="0.5"/><path d="M56,90.75,58.76,95c-1.31-1.2-4.37-1.41-2.69-4.27Z" stroke="#000" stroke-miterlimit="10" stroke-width="0.5"/><path d="M33.43,91.41h1.24c1.13-.17,1.58.31,1.44,1.44V95C34.87,93.54,33.74,92.82,33.43,91.41Z" stroke="#000" stroke-miterlimit="10" stroke-width="0.5"/><path d="M20.82,124.47l.66,1.48c-1.41,1.62-1.66-.76-2.62-.76a1.25,1.25,0,0,1,.65-1.62C20.38,123.22,20.38,124,20.82,124.47Z" stroke="#000" stroke-miterlimit="10" stroke-width="0.5"/><path d="M43.21,103.49c-1.1-1.44-2.93-2-2.31-4.2C42,100.5,43.69,101,43.21,103.49Z" stroke="#000" stroke-miterlimit="10" stroke-width="0.5"/><path d="M143.49,97.5c2.58,0,3.17,2.28,4.58,3.62-2-.59-3.1-2.34-4.48-3.72Z" stroke="#000" stroke-miterlimit="10" stroke-width="0.5"/><path d="M80.5,193.62c-1.86,0-3.06-.55-3.2-2.55C78.27,192,80.81,191,80.5,193.62Z" stroke="#000" stroke-miterlimit="10" stroke-width="0.5"/><path d="M127.41,78.42c.76,1.86,2.82,2.69,3.44,4.62-1.1-1.55-4.44-1.41-3.44-4.58Z" stroke="#000" stroke-miterlimit="10" stroke-width="0.5"/><path d="M105.78,118.65c-.62-1.35,0-2.07,1.24-2.52a.76.76,0,0,1,1,.43v.16c0,1.34-1.1,1.72-2.24,1.89Z" fill="#fefefe" stroke="#000" stroke-miterlimit="10" stroke-width="0.5"/><path d="M102.54,31.42a7.66,7.66,0,0,1-3.23,4Z" stroke="#000" stroke-miterlimit="10" stroke-width="0.5"/><path d="M68.28,19l4.1,4c-2.66-.58-3.45-2.37-4.69-3.44Z" stroke="#000" stroke-miterlimit="10" stroke-width="0.5"/><path d="M134.4,82.14l.65,2.45a2.07,2.07,0,0,1-2.51-2.07C132.5,81.66,133.71,82.14,134.4,82.14Z" stroke="#000" stroke-miterlimit="10" stroke-width="0.5"/><path d="M68.28,54.22l3.61,3.45C69.76,57.38,68.86,56.07,68.28,54.22Z" fill="#060606" stroke="#000" stroke-miterlimit="10" stroke-width="0.5"/><path d="M4.67,100.53c1.34.49,2.62.28,2.79,1.86a1.57,1.57,0,0,1-.31.83C5.77,103.08,5.15,102.15,4.67,100.53Z" stroke="#000" stroke-miterlimit="10" stroke-width="0.5"/><path d="M12.21,118.61c1,1.31,3.45,1.42,3.21,3.89C14.07,121.44,12.32,120.71,12.21,118.61Z" stroke="#000" stroke-miterlimit="10" stroke-width="0.5"/><path d="M133.64,128.57c1.14.24,1.17,1.1,1,2,0,.21-.38.55-.59.55-1.2,0-1.58-.93-1.68-2l.17-.24a.83.83,0,0,1,.58,0A.48.48,0,0,0,133.64,128.57Z" fill="#fefefe" stroke="#000" stroke-miterlimit="10" stroke-width="0.5"/><path d="M76,154.46v-1c0-.89.21-2.2,1.14-2s.38,1.48.17,2.3c-.2.25-.48.42-.65.66a.42.42,0,0,1-.58.1Z" fill="#fefefe" stroke="#000" stroke-miterlimit="10" stroke-width="0.5"/><path d="M121.52,183.77c2.62,0,3,1.82,3.93,3.06C123.69,186.49,123,185.08,121.52,183.77Z" stroke="#000" stroke-miterlimit="10" stroke-width="0.5"/><path d="M93.14,198.58c-1.72,0-2.2-1-2.82-1.86C91.9,196.82,91.9,196.82,93.14,198.58Z" fill="#fefefe" stroke="#000" stroke-miterlimit="10" stroke-width="0.5"/><path d="M36.08,92.75a2.37,2.37,0,0,0-1.45-1.45c-.17-1-1.62-1.41-1.31-2.68a34,34,0,0,1,3.45,3.44C37.87,93.13,36.29,92.37,36.08,92.75Z" stroke="#000" stroke-miterlimit="10" stroke-width="0.5"/><path d="M137.15,98.71c.42.34,1,.65,1.14,1.1.34,1,2.27.52,1.89,2.07a.55.55,0,0,1-.51.2,8,8,0,0,1-2.89-2.65s.31-.55.44-.83Z" stroke="#000" stroke-miterlimit="10" stroke-width="0.5"/><path d="M97.38,138.9c1-1.11,1.79-2.45,2.82-2.93Z" stroke="#000" stroke-miterlimit="10" stroke-width="0.5"/><path d="M48.13,135.9a2.69,2.69,0,0,1,.62-2.65c1.38.38,1.24,1.55,1.35,2.58Z" stroke="#000" stroke-miterlimit="10" stroke-width="0.5"/><path d="M17,98.71a6.16,6.16,0,0,1-3.2-3.45c1.17,1.11,3.06,1.59,3.1,3.69Z" stroke="#000" stroke-miterlimit="10" stroke-width="0.5"/><path d="M137.26,98.43c-2.45.55-2.59-2-4-2.89,1.83.31,2.72,1.82,3.89,3Z" stroke="#000" stroke-miterlimit="10" stroke-width="0.5"/><path d="M88.49,243.35A6.34,6.34,0,0,1,91.94,246Z" stroke="#000" stroke-miterlimit="10" stroke-width="0.5"/><path d="M117.32,189a33.65,33.65,0,0,1,2.86,2.48Z" stroke="#000" stroke-miterlimit="10" stroke-width="0.5"/><path d="M126.48,173.68c.72,1.07,2.31,1.62,2,3.44C127.58,176.06,125.24,176,126.48,173.68Z" fill="#fefefe" stroke="#000" stroke-miterlimit="10" stroke-width="0.5"/><path d="M44.65,158.39a12.69,12.69,0,0,1,3.45,3.44C46,161.69,45.17,160.22,44.65,158.39Z" stroke="#000" stroke-miterlimit="10" stroke-width="0.5"/><path d="M32.46,93.89c2.34.27,2.72,2.75,4.72,2.24C35,96.61,35,96.61,32.46,93.89Z" stroke="#000" stroke-miterlimit="10" stroke-width="0.5"/><path d="M30.71,144.48l-2.21-2.69c2.86,1.38,3.1,1.65,3.45,3.44C31.36,145.44,31,145.1,30.71,144.48Z" stroke="#000" stroke-miterlimit="10" stroke-width="0.5"/><path d="M74.58,38.3c2.2-.58.79,1.86,1.79,2.31-1-.21-2.58.28-2.34-1.79A.8.8,0,0,1,74.58,38.3Z" stroke="#000" stroke-miterlimit="10" stroke-width="0.5"/><path d="M32.12,140.58c1.34.59,3.44.25,3.44,2.69C34.15,142.44,32.7,142.1,32.12,140.58Z" stroke="#000" stroke-miterlimit="10" stroke-width="0.5"/><path d="M169,116.58a2.14,2.14,0,0,1-1.38-2.07v-.41a1.86,1.86,0,0,1,.66-.55,1.26,1.26,0,0,1,1.2.28v2.1C169.77,116.51,169.56,116.79,169,116.58Z" fill="#fefefe" stroke="#000" stroke-miterlimit="10" stroke-width="0.5"/><path d="M18.76,99.4l2,2.51c-2.1,0-2.92-1.82-3.89-3.44h0C17.62,98.4,18.14,99.09,18.76,99.4Z" stroke="#000" stroke-miterlimit="10" stroke-width="0.5"/><path d="M169.56,113.86l-1.31.17-.38.18-.38-.21a.6.6,0,0,1,0-.76l-.2-2.17C168.46,111.79,169.63,112.31,169.56,113.86Z" stroke="#000" stroke-miterlimit="10" stroke-width="0.5"/><path d="M142.63,83.52c1.17.48,2.69.38,3,1.93,0,0-.21.52-.31.52C143.77,86,143.49,84.35,142.63,83.52Z" stroke="#000" stroke-miterlimit="10" stroke-width="0.5"/><path d="M90.28,17.81c-.24,1.79-1.72,2.55-2.92,4C87.29,19.5,89.46,19.09,90.28,17.81Z" stroke="#000" stroke-miterlimit="10" stroke-width="0.5"/><path d="M150.83,97.5c.68.17,1.41,1.38,2.44,2.38Z" stroke="#000" stroke-miterlimit="10" stroke-width="0.5"/><path d="M169,116.58l.65-.65a1.38,1.38,0,0,1,1.35.72c.31.59,1,1.07.72,1.89A3,3,0,0,1,169,116.58Z" fill="#fefefe" stroke="#000" stroke-miterlimit="10" stroke-width="0.5"/><path d="M16,89.22l2.65,3.17c-1.28-.66-3.45-.52-2.55-3.1Z" stroke="#000" stroke-miterlimit="10" stroke-width="0.5"/><path d="M131.23,146.92c-1.2-1.31-2.41-1.58-2-2.86a2.72,2.72,0,0,1,.89-.2C132,144.13,130.58,145.41,131.23,146.92Z" stroke="#000" stroke-miterlimit="10" stroke-width="0.5"/><path d="M49.41,57.86a3,3,0,0,1,3,2.83Z" stroke="#000" stroke-miterlimit="10" stroke-width="0.5"/><path d="M30.71,144.48l1.24.79c-.55.41-.38,2.1-1.73,1.1S29.85,144.89,30.71,144.48Z" fill="#fefefe" stroke="#000" stroke-miterlimit="10" stroke-width="0.5"/><path d="M88,228.22c0-1-1.65-1.14-1.17-2.69l3.1,3c-1,.9-1.34-.34-2-.37Z" stroke="#000" stroke-miterlimit="10" stroke-width="0.5"/><path d="M73.34,95.68l3.44-3.45A3.65,3.65,0,0,1,73.34,95.68Z" stroke="#000" stroke-miterlimit="10" stroke-width="0.5"/><path d="M18.89,111.93c.25-1.41-1.75-1.82-1.48-3.24-.23-.16-.29-.3-.2-.44s0-.21.24-.21c.41,1.38,3.13,1.65,1.89,3.89Z" stroke="#000" stroke-miterlimit="10" stroke-width="0.5"/><path d="M104.4,218.86c-1.89.79-2.37-.34-2.54-1.89C103.34,216.76,103.89,217.83,104.4,218.86Z" stroke="#000" stroke-miterlimit="10" stroke-width="0.5"/><path d="M83.91,157.22l-.62.62-1.58-1.07c.52-.37,1-1.06,1.58-1.06S83.71,156.67,83.91,157.22Z" fill="#fefefe" stroke="#000" stroke-miterlimit="10" stroke-width="0.5"/><path d="M41.45,155.15a10.6,10.6,0,0,1,3.44,3.45A3.45,3.45,0,0,1,41.45,155.15Z" stroke="#000" stroke-miterlimit="10" stroke-width="0.5"/><path d="M78.51,208.91a1.28,1.28,0,0,1-.55,0L75.41,206C77,206.36,78.4,207,78.51,208.91Z" stroke="#000" stroke-miterlimit="10" stroke-width="0.5"/><path d="M129.1,159c2.78-.37,2.72,1.66,4.3,2.83C131,161.63,131.06,159.53,129.1,159Z" stroke="#000" stroke-miterlimit="10" stroke-width="0.5"/><path d="M52.61,163.73c1.51.38,2.93.86,3.44,2.61C54.12,166.38,53.5,164.86,52.61,163.73Z" stroke="#000" stroke-miterlimit="10" stroke-width="0.5"/><path d="M167,114c-2.28-.34-2.28-.34-2.65-2.72l2.51,2c.21.11.3.25.27.41S167.05,113.94,167,114Z" stroke="#000" stroke-miterlimit="10" stroke-width="0.5"/><path d="M47.37,69.54h1.24A3.76,3.76,0,0,1,50,71.64a.35.35,0,0,1-.48.07.23.23,0,0,1-.07-.07,1.93,1.93,0,0,1-2.07-1.78h0A1.71,1.71,0,0,1,47.37,69.54Z" fill="#fefefe" stroke="#000" stroke-miterlimit="10" stroke-width="0.5"/><path d="M35.63,105c.24,1.3,2.52.86,2.38,2.82C36.73,107.22,35.15,107.22,35.63,105Z" stroke="#000" stroke-miterlimit="10" stroke-width="0.5"/><path d="M24.85,129.91a6.63,6.63,0,0,1,2.41,2.55Q24.34,133,24.85,129.91Z" stroke="#000" stroke-miterlimit="10" stroke-width="0.5"/><path d="M47.44,127.84V126.6c1.83-.24,2.17,1.48,3.45,2.31C49.1,129.7,48.79,127.36,47.44,127.84Z" stroke="#000" stroke-miterlimit="10" stroke-width="0.5"/><path d="M119.59,84.22c1.83-.65,2,1.1,2.86,1.82-1.52,0-2.62-.27-2.76-1.92Z" stroke="#000" stroke-miterlimit="10" stroke-width="0.5"/><path d="M95.31,54.9l-2.93,3.45c.31-1.86.73-3.65,3-3.24Z" stroke="#000" stroke-miterlimit="10" stroke-width="0.5"/><path d="M127.13,187.14c.86.49,1.66,1,1.59,2.17,0,0-.66.42-.83.31a1.71,1.71,0,0,1-.88-2.25v0Z" fill="#0d0d0d" stroke="#000" stroke-miterlimit="10" stroke-width="0.5"/><path d="M52.09,101.64a1.55,1.55,0,0,1,2.18.22,1.23,1.23,0,0,1,.23.4v.82C53.13,103.56,52.88,102.15,52.09,101.64Z" stroke="#000" stroke-miterlimit="10" stroke-width="0.5"/><path d="M86.43,182.77a1.41,1.41,0,0,1,1.34-1.48h0a.45.45,0,0,1,.49.65C87.91,182.74,87.36,183.22,86.43,182.77Z" fill="#fefefe" stroke="#000" stroke-miterlimit="10" stroke-width="0.5"/><path d="M62.22,78.94c1.55,0,2,1.38,3.44,2.24C63.35,81.49,63.18,79.6,62.22,78.94Z" stroke="#000" stroke-miterlimit="10" stroke-width="0.5"/><path d="M86.36,94.22c0,1.52-1.34,2.1-2.31,3.2C83.78,95.44,85.57,95.22,86.36,94.22Z" stroke="#000" stroke-miterlimit="10" stroke-width="0.5"/><path d="M57.29,98.12c-1.58,0-2.17-1.58-3.85-2.82a3.94,3.94,0,0,1,3.78,2.93Z" stroke="#000" stroke-miterlimit="10" stroke-width="0.5"/><path d="M171.73,120.22c.76.55,2.27,0,2.24,1.59,0,0-.28.44-.42.44C172.28,122.22,171.9,121.33,171.73,120.22Z" stroke="#000" stroke-miterlimit="10" stroke-width="0.5"/><path d="M138.57,141c-2,.66-2.31-1.37-4-2.41,2.27,0,2.93,1.55,3.89,2.52Z" stroke="#000" stroke-miterlimit="10" stroke-width="0.5"/><path d="M31.4,136.59c.34.83,1.17,1.82,1,2.38s-1-.45-1.55-.56C30.12,137.55,30.12,136.87,31.4,136.59Z" stroke="#000" stroke-miterlimit="10" stroke-width="0.5"/><path d="M38.15,129.22a1.47,1.47,0,0,0-1.45.75c-.9-.69-2.07-1.2-1.93-2.65Z" stroke="#000" stroke-miterlimit="10" stroke-width="0.5"/><path d="M18.89,111.93h.45l1.41,1.41c0,.59,1,.87.35,2C20.38,114,18.55,113.86,18.89,111.93Z" stroke="#000" stroke-miterlimit="10" stroke-width="0.5"/><path d="M137,150.81c-.86-.62-2.07-.65-2.48-1.79,0,0,.48-.55.58-.51A2.85,2.85,0,0,1,137,150.81Z" stroke="#000" stroke-miterlimit="10" stroke-width="0.5"/><path d="M96.14,203.85c1.55,0,2.13,1.27,3.24,2.24C97.24,206.46,97.1,204.43,96.14,203.85Z" stroke="#000" stroke-miterlimit="10" stroke-width="0.5"/><path d="M108.6,45.33c1,1.17,2.24,1.76,2.31,3.24C109.91,47.71,108.5,47.36,108.6,45.33Z" stroke="#000" stroke-miterlimit="10" stroke-width="0.5"/><path d="M115.25,52.42a4.09,4.09,0,0,1,2.41,2.76A4.09,4.09,0,0,1,115.25,52.42Z" stroke="#000" stroke-miterlimit="10" stroke-width="0.5"/><path d="M86,237.91c-1.3-1.38-2.58-1.93-2.92-4.1C84.43,235.22,85.81,235.7,86,237.91Z" stroke="#000" stroke-miterlimit="10" stroke-width="0.5"/><path d="M48,169.82c.27.93,1.68,1.24,1.34,2.52C48.61,171.65,46.07,171.92,48,169.82Z" stroke="#000" stroke-miterlimit="10" stroke-width="0.5"/><path d="M11.46,110.69c-2.1,1-2.28-.62-2.59-2Z" stroke="#000" stroke-miterlimit="10" stroke-width="0.5"/><path d="M77,24.22l2.38,2.51c-1.9.28-2.1-1.17-3-1.72Z" stroke="#000" stroke-miterlimit="10" stroke-width="0.5"/><path d="M154.27,116.27c-.93-.41-2-.79-1.89-2,0,0,.37-.31.51-.27C154.1,114.27,153.68,115.51,154.27,116.27Z" stroke="#000" stroke-miterlimit="10" stroke-width="0.5"/><path d="M65.39,146.92l-2.76,2.65C62.84,148.16,63.7,147.51,65.39,146.92Z" stroke="#000" stroke-miterlimit="10" stroke-width="0.5"/><path d="M134.78,87.93c-.73-.66-1.59-1-1.69-2,0-.17,0-.58.59-.27S135.57,86.41,134.78,87.93Z" stroke="#000" stroke-miterlimit="10" stroke-width="0.5"/><path d="M77.54,213.94c-1.65.51-2.37.2-2.79-.69,0,0,.35-.66.59-.69C76.44,212.35,76.44,213.59,77.54,213.94Z" stroke="#000" stroke-miterlimit="10" stroke-width="0.5"/><path d="M148.17,96.64c-.58,0-1.13,0-1.13-.76s0-1.1.38-.89,1.41,0,1.55.93S148.66,96.64,148.17,96.64Z" stroke="#000" stroke-miterlimit="10" stroke-width="0.5"/><path d="M156.23,97.4,153.68,95c1.62,0,2.86.59,2.45,2.48Z" stroke="#000" stroke-miterlimit="10" stroke-width="0.5"/><path d="M113.12,193.72v-.82c1.61,0,1.44,1.41,2.41,2.75A4.11,4.11,0,0,1,113.12,193.72Z" stroke="#000" stroke-miterlimit="10" stroke-width="0.5"/><path d="M17.45,108.08v.61c-1.21.18-1.66-1.06-2.55-1.44.17-.35-.65-1.55.65-.83A11.54,11.54,0,0,1,17.45,108.08Z" stroke="#000" stroke-miterlimit="10" stroke-width="0.5"/><path d="M90.56,173.64c0-.48,0-1.06.76-.89a.86.86,0,0,1,.44.72,1.18,1.18,0,0,1-.65,1C90.8,174.54,90.7,173.92,90.56,173.64Z" fill="#fefefe" stroke="#000" stroke-miterlimit="10" stroke-width="0.5"/><path d="M98.2,103.36l-3,3.06C95.45,104.32,96.14,103.46,98.2,103.36Z" stroke="#000" stroke-miterlimit="10" stroke-width="0.5"/><path d="M44.07,66.68a2.86,2.86,0,0,1,2.72,2.72A5.46,5.46,0,0,1,44.07,66.68Z" fill="#fefefe" stroke="#000" stroke-miterlimit="10" stroke-width="0.5"/><path d="M36.15,120.61l1.17.65,1.51,2C37.08,122.81,36,122.33,36.15,120.61Z" stroke="#000" stroke-miterlimit="10" stroke-width="0.5"/><path d="M62.66,74.15H63.9c.56.66,2.14,1.35,0,2Z" fill="#fefefe" stroke="#000" stroke-miterlimit="10" stroke-width="0.5"/><path d="M45.27,54.22l1.31.62c.24.59,1.14,1.52,0,1.65S45.51,55.08,45.27,54.22Z" stroke="#000" stroke-miterlimit="10" stroke-width="0.5"/><path d="M51.68,121.92c.48.93.93,1.76,1.31,2.62,0,0-.48.34-.76.51C52.06,124.05,50.78,123.3,51.68,121.92Z" stroke="#000" stroke-miterlimit="10" stroke-width="0.5"/><path d="M141.84,126.22A2.65,2.65,0,0,1,145,127s0,.52-.17.56C143.46,128.22,143.35,126.67,141.84,126.22Z" stroke="#000" stroke-miterlimit="10" stroke-width="0.5"/><path d="M146.76,134.49,149,137c-1.73.24-2-1.06-2.72-1.86Z" stroke="#000" stroke-miterlimit="10" stroke-width="0.5"/><path d="M95.38,55c-.48-1.83.83-2.28,2.31-3.14a6.11,6.11,0,0,1-2.41,3Z" stroke="#000" stroke-miterlimit="10" stroke-width="0.5"/><path d="M6.32,118.85a5.89,5.89,0,0,1,1.52-.55.8.8,0,0,1,.73.85h0c0,.58-.51.62-1,.41A3.86,3.86,0,0,1,6.32,118.85Z" fill="#fefefe" stroke="#000" stroke-miterlimit="10" stroke-width="0.5"/><path d="M82.36,128.39c-.34-1.41.8-1.72,1.42-2.48C84.43,127.53,82.36,127.53,82.36,128.39Z" stroke="#000" stroke-miterlimit="10" stroke-width="0.5"/><path d="M102,153.81c-.27-1.72.93-2,1.59-2.86C104.09,152.64,102.78,153,102,153.81Z" stroke="#000" stroke-miterlimit="10" stroke-width="0.5"/><path d="M53.33,142.62a1.18,1.18,0,0,1,.59,0c.48.24,1.1.44.86,1.06a1.19,1.19,0,0,1-1.07.49C53.16,143.79,53.4,143.1,53.33,142.62Z" fill="#fefefe" stroke="#000" stroke-miterlimit="10" stroke-width="0.5"/><path d="M78.54,187.59l-1.65-1.27c-.42-.31-.31-.73,0-1.1l1.07.51C78.09,186.32,79,186.77,78.54,187.59Z" stroke="#000" stroke-miterlimit="10" stroke-width="0.5"/><path d="M53.57,100.71a3.45,3.45,0,0,1-2.86-1.9C52.2,98.5,52.54,99.67,53.57,100.71Z" stroke="#000" stroke-miterlimit="10" stroke-width="0.5"/><path d="M44.48,70c-1.89,0-2.1-1.07-3.06-1.55C43,67.71,43.17,69.22,44.48,70Z" stroke="#000" stroke-miterlimit="10" stroke-width="0.5"/><path d="M140.39,145.58c.9,1.07,2,1.34,1.93,3.17C141.42,147.68,140.36,147.37,140.39,145.58Z" stroke="#000" stroke-miterlimit="10" stroke-width="0.5"/><path d="M114,61.62c.69,0,1.59-.69,1.79.55a4.66,4.66,0,0,1-.27,1.07A2.82,2.82,0,0,1,114,61.62Z" stroke="#000" stroke-miterlimit="10" stroke-width="0.5"/><path d="M70.52,49.46H69.31c0-.76-1.51-1.07-.62-2.1A3.89,3.89,0,0,1,70.52,49.46Z" fill="#fefefe" stroke="#000" stroke-miterlimit="10" stroke-width="0.5"/><path d="M44.76,166.22c-.93,0-1.79.72-2-.52a4.47,4.47,0,0,1,.27-1.06Z" stroke="#000" stroke-miterlimit="10" stroke-width="0.5"/><path d="M54,141.22c-.42-1-2.55-.24-2-2.1C52.82,139.65,54,139.86,54,141.22Z" fill="#fefefe" stroke="#000" stroke-miterlimit="10" stroke-width="0.5"/><path d="M92.32,247.62c1.68-.21,2,.55,2,1.44,0,0-.35.35-.48.31C92.69,249.22,93.28,248.13,92.32,247.62Z" fill="#0d0d0d" stroke="#000" stroke-miterlimit="10" stroke-width="0.5"/><path d="M108.4,214.9h-.52c0-.58-1-.93-.65-1.65s.72-.35,1.1,0C109.22,213.66,108.78,214.28,108.4,214.9Z" stroke="#000" stroke-miterlimit="10" stroke-width="0.5"/><path d="M121.62,95.51c1.72-.28,2,.93,2.86,1.58C123,97.61,122.62,96.22,121.62,95.51Z" stroke="#000" stroke-miterlimit="10" stroke-width="0.5"/><path d="M143.59,97.43c-.75-.68-1.79-1.13-1.92-2.92,1.13,1,2.37,1.37,1.82,3Z" stroke="#000" stroke-miterlimit="10" stroke-width="0.5"/><path d="M79.85,89.1c0,1.83-1,2.17-1.72,2.89C77.61,90.44,79,90.22,79.85,89.1Z" stroke="#000" stroke-miterlimit="10" stroke-width="0.5"/><path d="M81,29.49a2.87,2.87,0,0,1,2-2.1C82.85,28.87,81.81,29.07,81,29.49Z" stroke="#000" stroke-miterlimit="10" stroke-width="0.5"/><path d="M34.7,82.87a4.76,4.76,0,0,1-2.13-3.45C33.77,80.87,34.8,81.22,34.7,82.87Z" stroke="#000" stroke-miterlimit="10" stroke-width="0.5"/><path d="M79.37,222.22c-1.52,0-2.07-.58-2-1.62C78.37,220.51,78.64,221.38,79.37,222.22Z" stroke="#000" stroke-miterlimit="10" stroke-width="0.5"/><path d="M119.69,84.14l-1.82-1.69c1.45,0,2.13.35,1.72,1.76Z" stroke="#000" stroke-miterlimit="10" stroke-width="0.5"/><path d="M85.81,241.28l-2-2.27C85.39,238.77,85.81,239.42,85.81,241.28Z" fill="#080808" stroke="#000" stroke-miterlimit="10" stroke-width="0.5"/><path d="M8.25,114.62c1.33,0,2,.63,1.9,1.89A3.1,3.1,0,0,1,8.25,114.62Z" stroke="#000" stroke-miterlimit="10" stroke-width="0.5"/><path d="M53.81,39.06c1.35-.48,1.93.17,1.73,1.86l-1.62-2Z" stroke="#000" stroke-miterlimit="10" stroke-width="0.5"/><path d="M64.73,169.75c.24-1,1.07-1.51,1.86-2.06A1.83,1.83,0,0,1,65,169.74,1.38,1.38,0,0,1,64.73,169.75Z" fill="#fefefe" stroke="#000" stroke-miterlimit="10" stroke-width="0.5"/><path d="M131.57,164.76l-2.2-2.2C131.13,162.52,131.71,163,131.57,164.76Z" stroke="#000" stroke-miterlimit="10" stroke-width="0.5"/><path d="M139.56,162.76l-2.1-2.06C139.12,160.52,139.7,161,139.56,162.76Z" stroke="#000" stroke-miterlimit="10" stroke-width="0.5"/><path d="M40.11,75.91c-1.45.28-1.79-.41-2.07-1.45C39.25,74.29,39.38,75.22,40.11,75.91Z" stroke="#000" stroke-miterlimit="10" stroke-width="0.5"/><path d="M151.76,133.15l1.82,1.68c-1.45,0-2.13-.34-1.72-1.75Z" stroke="#000" stroke-miterlimit="10" stroke-width="0.5"/><path d="M46,131.29c0,.48.24,1.1-.55,1.2l-1.31-1.69C45,130.05,45.38,131.15,46,131.29Z" stroke="#000" stroke-miterlimit="10" stroke-width="0.5"/><path d="M67.76,129c.62,1.45-.45,1.73-1.1,2.31l-.76-.62,2-1.62Z" stroke="#000" stroke-miterlimit="10" stroke-width="0.5"/><path d="M140.91,130.36a2.4,2.4,0,0,1-1.69-1.42c-.17-.34.38-.48.59-.34S141.15,129.36,140.91,130.36Z" stroke="#000" stroke-miterlimit="10" stroke-width="0.5"/><path d="M63,71.16c1.42-.9,1.86,0,2.59,1.82L63,71.12Z" stroke="#000" stroke-miterlimit="10" stroke-width="0.5"/><path d="M171.66,118.54c-.24-.62-1-1.06-.72-1.89.79.38,1.62.76,1.62,1.83Z" stroke="#000" stroke-miterlimit="10" stroke-width="0.5"/><path d="M46,80.83c1.51,0,1.93.49,2.06,1.45C46.89,82.56,46.72,81.49,46,80.83Z" stroke="#000" stroke-miterlimit="10" stroke-width="0.5"/><path d="M95.69,200.78a2.33,2.33,0,0,1-1.58-1.41c-.18-.34.38-.48.58-.34S96.14,199.71,95.69,200.78Z" stroke="#000" stroke-miterlimit="10" stroke-width="0.5"/><path d="M80.5,143.13H79.33c.17-.93,1-1.31,1.59-1.86C81.81,142.13,80.57,142.51,80.5,143.13Z" stroke="#000" stroke-miterlimit="10" stroke-width="0.5"/><path d="M51.37,120c1.51,0,1.93.48,2.07,1.44C52.2,121.75,52,120.75,51.37,120Z" stroke="#000" stroke-miterlimit="10" stroke-width="0.5"/><path d="M33.63,79.46,32.05,77.7c1.55-.65,1.62.48,2.13,1.07Z" stroke="#000" stroke-miterlimit="10" stroke-width="0.5"/><path d="M161.19,122.47l-1.62-1.72C161.16,120.4,161.36,121.3,161.19,122.47Z" stroke="#000" stroke-miterlimit="10" stroke-width="0.5"/><path d="M75.48,13.27c1.24-.35,1.65.27,1.79,1.24C76.06,14.89,76.1,13.54,75.48,13.27Z" stroke="#000" stroke-miterlimit="10" stroke-width="0.5"/><path d="M66.14,29.22c1.24-.34,1.66.28,1.79,1.24C66.76,30.83,66.8,29.49,66.14,29.22Z" stroke="#000" stroke-miterlimit="10" stroke-width="0.5"/><path d="M130.06,92.1l1.76,1.65C130.4,94.13,130,93.4,130.06,92.1Z" stroke="#000" stroke-miterlimit="10" stroke-width="0.5"/><path d="M57.22,98.22c1.31-.76,1.55.41,2,1.2a2.17,2.17,0,0,1-1.89-1.31Z" fill="#090909" stroke="#000" stroke-miterlimit="10" stroke-width="0.5"/><path d="M80,36.44c0-1.72.75-1.82,1.72-2Z" stroke="#000" stroke-miterlimit="10" stroke-width="0.5"/><path d="M157.75,93.22c.41.59,1.51.42,1.55,1.35,0,.17-.55.62-.66.55a1.4,1.4,0,0,1-.91-1.73,1.59,1.59,0,0,1,.12-.27Z" stroke="#000" stroke-miterlimit="10" stroke-width="0.5"/><path d="M56.57,155.81c1,.62.89,1.27,0,2h-.28a1,1,0,0,1-.37-.38v-1A2.74,2.74,0,0,0,56.57,155.81Z" fill="#fefefe" stroke="#000" stroke-miterlimit="10" stroke-width="0.5"/><path d="M65.87,173.75c.72,0,1.93,0,1.34,1.31l-.27.24h-.38l-.59-.48-.24-.31A.55.55,0,0,1,65.87,173.75Z" fill="#fefefe" stroke="#000" stroke-miterlimit="10" stroke-width="0.5"/><path d="M89.66,187.42l-.31.45a6.39,6.39,0,0,1-.68-.59c-.25-.27,0-.38.17-.24Z" fill="#fefefe" stroke="#000" stroke-miterlimit="10" stroke-width="0.5"/><path d="M62.91,162l.55-.41.24.38a8.31,8.31,0,0,1-.76.44C62.6,162.56,62.53,162.45,62.91,162Z" fill="#fefefe" stroke="#000" stroke-miterlimit="10" stroke-width="0.5"/><path d="M56.67,157.8c-.24.38-.58.66-1,.28s0-.72.27-1h0l.59.59Z" fill="#fefefe" stroke="#000" stroke-miterlimit="10" stroke-width="0.5"/><path d="M36,114.55c1.07-1,1.21,0,1.38.69v.31a2.49,2.49,0,0,1-.58-.31h0a5.14,5.14,0,0,0-.66-.66Z" fill="#fefefe" stroke="#000" stroke-miterlimit="10" stroke-width="0.5"/><path d="M64,171v1.19c-.18.34-.38.34-.59,0h0a2.26,2.26,0,0,1-.72-.69h0a.57.57,0,0,1,0-.79C63.22,170.75,63.63,170.65,64,171Z" fill="#1a1a1a" stroke="#000" stroke-miterlimit="10" stroke-width="0.5"/><path d="M112.91,208.67l-.31.45c-.24-.19-.47-.38-.69-.59s0-.38.17-.24Z" fill="#fefefe" stroke="#000" stroke-miterlimit="10" stroke-width="0.5"/><path d="M147,142.44c0,.52.31,1.17-.55,1.35l-.76-.42-.24-.34v-.41l.27-.31a1.44,1.44,0,0,1,.87,0Z" stroke="#000" stroke-miterlimit="10" stroke-width="0.5"/><path d="M80.3,9c0,.28.31.55.27.8a.34.34,0,0,1-.62.17,3,3,0,0,1-.34-.79Z" fill="#151515" stroke="#000" stroke-miterlimit="10" stroke-width="0.5"/><path d="M144.35,141.86c0-1,.79-.66,1.31-.66l.24.31a.84.84,0,0,1-.34,1h0l-.24.31H145a2,2,0,0,1-.55-.52Z" stroke="#000" stroke-miterlimit="10" stroke-width="0.5"/><path d="M67.69,197.37l.48.38a2.17,2.17,0,0,1-.37.31h-.25A3.38,3.38,0,0,1,67.69,197.37Z" fill="#fefefe" stroke="#000" stroke-miterlimit="10" stroke-width="0.5"/><path d="M64,171H62.63l-.25-.31.21-.35H64A5.17,5.17,0,0,1,64,171Z" fill="#fefefe" stroke="#000" stroke-miterlimit="10" stroke-width="0.5"/><path d="M99.82,201l-.69-.69.28-.28h.38l.27.28v.38Z" fill="#fefefe" stroke="#000" stroke-miterlimit="10" stroke-width="0.5"/><path d="M53.26,180.33h-.51a.41.41,0,0,1,0-.45v-.24h.75a.48.48,0,0,1-.17.66h0Z" stroke="#000" stroke-miterlimit="10" stroke-width="0.5"/><path d="M147,140.55c.48,0,.7.22.65.65h-.24a.53.53,0,0,1-.48-.27v-.28Z" stroke="#000" stroke-miterlimit="10" stroke-width="0.5"/><path d="M100.55,201c-.24.41-.49.48-.73,0h0l.35-.21Z" fill="#fefefe" stroke="#000" stroke-miterlimit="10" stroke-width="0.5"/><path d="M53.26,180.33v-.69a.45.45,0,0,1,.63-.06l.06.06v.72Z" fill="#fefefe" stroke="#000" stroke-miterlimit="10" stroke-width="0.5"/><path d="M98.55,199a.69.69,0,0,1,.56-.8h0v1h-.27Z" fill="#fefefe" stroke="#000" stroke-miterlimit="10" stroke-width="0.5"/><path d="M97.86,198.89h.69l.31.38-.28.38Z" fill="#fefefe" stroke="#000" stroke-miterlimit="10" stroke-width="0.5"/><path d="M111.12,207.6h.65v.62Z" fill="#fefefe" stroke="#000" stroke-miterlimit="10" stroke-width="0.5"/><path d="M149.07,142.44a1.43,1.43,0,0,1-.65,0c-.21-.11-.29-.25-.25-.41s.05-.25,0-.27a.62.62,0,0,1,.69.75Z" stroke="#000" stroke-miterlimit="10" stroke-width="0.5"/><path d="M148.28,141.79v.69h-.83a.62.62,0,0,1,0-.69.56.56,0,0,1,.69,0Z" fill="#fefefe" stroke="#000" stroke-miterlimit="10" stroke-width="0.5"/><path d="M147.8,141.79v.69a1.83,1.83,0,0,1-.66,0h0a.42.42,0,0,1-.24-.38v-.24l.31-.24Z" stroke="#000" stroke-miterlimit="10" stroke-width="0.5"/><path d="M52.61,179.67v.69l-.79-.62v-.24h.58Z" fill="#fefefe" stroke="#000" stroke-miterlimit="10" stroke-width="0.5"/><path d="M144.35,142.44c-.17,0-.52,0-.52-.17a.55.55,0,0,1,.56-.41h0l.24.31Z" stroke="#000" stroke-miterlimit="10" stroke-width="0.5"/><path d="M148.38,141.89h-.76q-.51-.37,0-.75h0a.72.72,0,0,1,.76.68S148.38,141.87,148.38,141.89Z" stroke="#000" stroke-miterlimit="10" stroke-width="0.5"/><path d="M146.38,140.55c0-.17,0-.52.18-.52a.54.54,0,0,1,.41.55h0l-.31.31Z" stroke="#000" stroke-miterlimit="10" stroke-width="0.5"/><path d="M141.46,140c.52-.24.83-.17.83.49h0l-.87-.45Z" stroke="#000" stroke-miterlimit="10" stroke-width="0.5"/><path d="M141.08,139.1h-.59l.42-.44v.56Z" stroke="#000" stroke-miterlimit="10" stroke-width="0.5"/><path d="M87.87,186.35l.66.66Z" fill="#fefefe" stroke="#000" stroke-miterlimit="10" stroke-width="0.5"/><path d="M110.46,207l.66.65Z" fill="#fefefe" stroke="#000" stroke-miterlimit="10" stroke-width="0.5"/><path d="M64,173.06l.66.65Z" fill="#fefefe" stroke="#000" stroke-miterlimit="10" stroke-width="0.5"/><path d="M114.56,140.22V140l.35.24-.24.21Z" stroke="#000" stroke-miterlimit="10" stroke-width="0.5"/><path d="M140.91,139.22c.62,0,.76.31.48.86h0l-.48-.9Z" stroke="#000" stroke-miterlimit="10" stroke-width="0.5"/><polygon points="87.87 186.35 87.6 186.18 87.74 186.08 87.87 186.35" fill="#fefefe" stroke="#000" stroke-miterlimit="10" stroke-width="0.5"/><path d="M63.35,172.3h.55v.76Z" fill="#fefefe" stroke="#000" stroke-miterlimit="10" stroke-width="0.5"/><path d="M145.73,141.22c0-.48.22-.7.65-.65h0a.47.47,0,0,1,.18.48v.24a.49.49,0,0,1-.69,0h0Z" stroke="#000" stroke-miterlimit="10" stroke-width="0.5"/><path d="M142.32,140.55l.62.31-.21.21-.34-.62Z" stroke="#000" stroke-miterlimit="10" stroke-width="0.5"/><path d="M65.87,173.75a2.36,2.36,0,0,1,0,.65c-.24.24-.45.24-.66,0h0c-.18-.14-.25-.27-.2-.41s0-.21.2-.21h.52Z" stroke="#000" stroke-miterlimit="10" stroke-width="0.5"/><path d="M60,165.1v-.65h.65Z" fill="#fefefe" stroke="#000" stroke-miterlimit="10" stroke-width="0.5"/><path d="M61.32,163.76l-.65.66Z" fill="#fefefe" stroke="#000" stroke-miterlimit="10" stroke-width="0.5"/><path d="M62,163.11l-.66.65Z" fill="#fefefe" stroke="#000" stroke-miterlimit="10" stroke-width="0.5"/><path d="M62.63,162.42l-.65.65Z" fill="#fefefe" stroke="#000" stroke-miterlimit="10" stroke-width="0.5"/><path d="M65.32,174.47H66l.28.35-.28.34Z" fill="#fefefe" stroke="#000" stroke-miterlimit="10" stroke-width="0.5"/><path d="M100.55,200.27c.41.24.44.48,0,.72h0l-.24-.38Z" fill="#fefefe" stroke="#000" stroke-miterlimit="10" stroke-width="0.5"/><path d="M56.57,155.81c0,.44,0,.62-.55.55S56.19,155.81,56.57,155.81Z" stroke="#000" stroke-miterlimit="10" stroke-width="0.5"/><path d="M65.39,173.75a.73.73,0,0,0,0,.58l-.73-.62Z" fill="#fefefe" stroke="#000" stroke-miterlimit="10" stroke-width="0.5"/><path d="M62.6,171v.69l-.76-.62.17-.28a1,1,0,0,1,.59.31Z" fill="#fefefe" stroke="#000" stroke-miterlimit="10" stroke-width="0.5"/><path d="M99.13,200.33l-.65-.65h0l.48-.17.35.34v.48Z" fill="#fefefe" stroke="#000" stroke-miterlimit="10" stroke-width="0.5"/><path d="M61.49,170.22l.73.17A.72.72,0,0,1,62,171h0Z" fill="#fefefe" stroke="#000" stroke-miterlimit="10" stroke-width="0.5"/><path d="M61.22,169.72l.31.48-.93-.45.38-.27.38.27Z" fill="#fefefe" stroke="#000" stroke-miterlimit="10" stroke-width="0.5"/><path d="M62.66,171.68l.73.69Z" fill="#fefefe" stroke="#000" stroke-miterlimit="10" stroke-width="0.5"/><path d="M60.6,169.75l-.66-.65v-.28a2.55,2.55,0,0,1,.59.31h0a.53.53,0,0,1,.21.42v.24Z" fill="#fefefe" stroke="#000" stroke-miterlimit="10" stroke-width="0.5"/><path d="M59.32,168.41h.73a.47.47,0,0,1,0,.59h0Z" fill="#fefefe" stroke="#000" stroke-miterlimit="10" stroke-width="0.5"/><path d="M57.26,167a.58.58,0,0,1,.65.69C57.88,168.22,57.33,167.58,57.26,167Z" stroke="#000" stroke-miterlimit="10" stroke-width="0.5"/><path d="M56.74,167.07l.17-.49.45.56Z" stroke="#000" stroke-miterlimit="10" stroke-width="0.5"/><path d="M151.24,143.79h-.83a.56.56,0,0,1,0-.69.59.59,0,0,1,.69,0h0a.49.49,0,0,1,.14.38Z" fill="#fefefe" stroke="#000" stroke-miterlimit="10" stroke-width="0.5"/><path d="M150.27,143.1v.69c-.44,0-.58-.31-.65-.69l.34-.21Z" stroke="#000" stroke-miterlimit="10" stroke-width="0.5"/><path d="M145.63,143.1l.79.69h-.83a.41.41,0,0,1,0-.45S145.59,143.1,145.63,143.1Z" fill="#fefefe" stroke="#000" stroke-miterlimit="10" stroke-width="0.5"/><path d="M52,179.74c-.44-.24-.41-.48,0-.76l.28.31v.38Z" fill="#fefefe" stroke="#000" stroke-miterlimit="10" stroke-width="0.5"/><path d="M145.63,143.1v.69c-.45,0-.62-.24-.56-.69l.38-.21.31.28Z" stroke="#000" stroke-miterlimit="10" stroke-width="0.5"/><path d="M99.24,199l.65.65v.31a1.1,1.1,0,0,1-.58-.31h0a.41.41,0,0,1-.21-.41V199Z" fill="#fefefe" stroke="#000" stroke-miterlimit="10" stroke-width="0.5"/><path d="M151,143.22h-.76q-.62-.37,0-.69C150.86,142.55,151,142.82,151,143.22Z" stroke="#000" stroke-miterlimit="10" stroke-width="0.5"/><path d="M150.41,142.51v.71h-.76a.51.51,0,0,1-.2-.45v-.24Z" fill="#fefefe" stroke="#000" stroke-miterlimit="10" stroke-width="0.5"/><path d="M149.59,142.51v.71a.61.61,0,0,1-.66-.76h.62Z" stroke="#000" stroke-miterlimit="10" stroke-width="0.5"/><path d="M145.07,143.13c-.48,0-.71-.23-.68-.69h0a.48.48,0,0,1,.67-.08l.08.08h0a.44.44,0,0,1,.21.52c-.1.28,0,.24-.21.24Z" stroke="#000" stroke-miterlimit="10" stroke-width="0.5"/><path d="M76,154.46h.66v.66H76Z" fill="#fefefe" stroke="#000" stroke-miterlimit="10" stroke-width="0.5"/><path d="M76.58,154.46l.65-.65Z" fill="#fefefe" stroke="#000" stroke-miterlimit="10" stroke-width="0.5"/><path d="M99.89,199.61l.66.66h0a.46.46,0,0,1-.64,0h0a.42.42,0,0,1-.2-.42v-.24Z" fill="#fefefe" stroke="#000" stroke-miterlimit="10" stroke-width="0.5"/><path d="M66.69,175.68l-.75-.62h0a.44.44,0,0,1,.62,0h0a.45.45,0,0,1,.21.41S66.73,175.68,66.69,175.68Z" fill="#fefefe" stroke="#000" stroke-miterlimit="10" stroke-width="0.5"/><path d="M66.69,175.68V175h.52Z" fill="#9f9f9f" stroke="#000" stroke-miterlimit="10" stroke-width="0.5"/><path d="M151.62,143.89h.58l-.23.33-.21-.55Z" stroke="#000" stroke-miterlimit="10" stroke-width="0.5"/><path d="M52.64,177.92v.61a.4.4,0,0,1-.55.13h0a.46.46,0,0,1-.12-.12C52,177.92,52.2,177.67,52.64,177.92Z" stroke="#000" stroke-miterlimit="10" stroke-width="0.5"/><path d="M52,178.29h.69l.31.45-.34.45h-.55Z" fill="#fefefe" stroke="#000" stroke-miterlimit="10" stroke-width="0.5"/><path d="M151.24,143.79v-.69a.6.6,0,0,1,.65.76h0A2,2,0,0,1,151.24,143.79Z" stroke="#000" stroke-miterlimit="10" stroke-width="0.5"/><path d="M53.57,87.79H53v-.38l.48.31Z" stroke="#000" stroke-miterlimit="10" stroke-width="0.5"/><path d="M85.39,2.49l-.86.45h0c0-.66.35-.73.86-.49Z" stroke="#000" stroke-miterlimit="10" stroke-width="0.5"/><path d="M54.06,88.65c-.66,0-.76-.31-.49-.86h0l.45.86Z" stroke="#000" stroke-miterlimit="10" stroke-width="0.5"/><path d="M85.46,2.56c-.31-.45,0-.76.24-1.07h0a.68.68,0,0,1-.09,1l-.06,0-.12.07Z" stroke="#000" stroke-miterlimit="10" stroke-width="0.5"/><path d="M54,88.72q.72,0,.69.66h0c-.52,0-.72,0-.65-.66Z" stroke="#000" stroke-miterlimit="10" stroke-width="0.5"/><path d="M86.5.94c0,.65-.31.72-.87.48h0L86.5,1Z" stroke="#000" stroke-miterlimit="10" stroke-width="0.5"/><path d="M55.57,89.79c-.52.27-.86,0-.86-.48h0Z" stroke="#000" stroke-miterlimit="10" stroke-width="0.5"/><path d="M86.6,1l.31-.62.21.21L86.5,1Z" stroke="#000" stroke-miterlimit="10" stroke-width="0.5"/><path d="M56.05,90.65c-.62,0-.75-.31-.48-.86h0l.48.89Z" stroke="#000" stroke-miterlimit="10" stroke-width="0.5"/><path d="M150.17,91.51l-.31-.48h0v.69Z" stroke="#000" stroke-miterlimit="10" stroke-width="0.5"/><path d="M150.1,91.58c.45-.31.76,0,1.07.24h0a.69.69,0,0,1-1-.11l0,0a.54.54,0,0,1-.07-.13Z" stroke="#000" stroke-miterlimit="10" stroke-width="0.5"/><path d="M151.69,92.61c-.66,0-.73-.31-.49-.86h0l.45.86Z" stroke="#000" stroke-miterlimit="10" stroke-width="0.5"/><path d="M151.62,92.72l.62.31-.21.2-.34-.62Z" stroke="#000" stroke-miterlimit="10" stroke-width="0.5"/><path d="M74.17,38c-.45.28-.76,0-1.07-.28h0a.71.71,0,0,1,1,.28Z" stroke="#000" stroke-miterlimit="10" stroke-width="0.5"/><path d="M72.55,36.93c.65,0,.76.31.48.86h0l-.45-.86Z" stroke="#000" stroke-miterlimit="10" stroke-width="0.5"/><path d="M72.65,36.72c-.48,0-.72,0-.65-.65h0C72.48,36.07,72.72,36.22,72.65,36.72Z" stroke="#000" stroke-miterlimit="10" stroke-width="0.5"/><path d="M72,36.22l-.62-.31.21-.21.34.62Z" stroke="#000" stroke-miterlimit="10" stroke-width="0.5"/><path d="M68.59,32.93l.55.35-.31.27L68.66,33Z" stroke="#000" stroke-miterlimit="10" stroke-width="0.5"/><path d="M68.59,32.83,68,32.52l.2-.21.42.62Z" stroke="#000" stroke-miterlimit="10" stroke-width="0.5"/><path d="M49.44,71.43H50a1.62,1.62,0,0,1,0,.62h0C49.61,72.09,49.37,71.92,49.44,71.43Z" stroke="#000" stroke-miterlimit="10" stroke-width="0.5"/><path d="M61.7,42.44h.55v.38l-.48-.31Z" stroke="#000" stroke-miterlimit="10" stroke-width="0.5"/><path d="M61.25,41.58c.66,0,.73.31.49.86h0l-.45-.86Z" stroke="#000" stroke-miterlimit="10" stroke-width="0.5"/><path d="M61.36,41.47l-.62-.31.2-.2.35.62Z" stroke="#000" stroke-miterlimit="10" stroke-width="0.5"/><path d="M74.58,38.3l-.55.56V38h0Z" stroke="#000" stroke-miterlimit="10" stroke-width="0.5"/><path d="M36.77,86.72l.2-.55.28.31-.59.17Z" stroke="#000" stroke-miterlimit="10" stroke-width="0.5"/><path d="M36.7,86.65l-.31.62-.21-.2.62-.35Z" stroke="#000" stroke-miterlimit="10" stroke-width="0.5"/><path d="M84.53,2.94l-.31.62L84,3.35,84.64,3Z" stroke="#000" stroke-miterlimit="10" stroke-width="0.5"/><path d="M50,72.12c.48,0,.72,0,.65.66h0C50.13,72.78,49.89,72.6,50,72.12Z" stroke="#000" stroke-miterlimit="10" stroke-width="0.5"/><path d="M50.61,72.78l.76.34-.21.21-.34-.62Z" stroke="#000" stroke-miterlimit="10" stroke-width="0.5"/><path d="M40.62,119.37c-.44,0-.62-.24-.55-.69h.35l.24.28h0c.21.14.27.27.21.41S40.73,119.37,40.62,119.37Z" stroke="#000" stroke-miterlimit="10" stroke-width="0.5"/><path d="M40.62,119.37a.73.73,0,0,0,0-.58l.76.58Z" fill="#fefefe" stroke="#000" stroke-miterlimit="10" stroke-width="0.5"/><path d="M105.75,118.61c0,.62-.42.62-.83.38h0l.79-.45Z" stroke="#000" stroke-miterlimit="10" stroke-width="0.5"/><path d="M42,119.92l-.66-.65Z" fill="#fefefe" stroke="#000" stroke-miterlimit="10" stroke-width="0.5"/><path d="M105,119c.31.44,0,.75-.24,1.06h0a.69.69,0,0,1,.11-1l0,0L105,119Z" stroke="#000" stroke-miterlimit="10" stroke-width="0.5"/><path d="M42.69,120.58l-.65-.66Z" fill="#fefefe" stroke="#000" stroke-miterlimit="10" stroke-width="0.5"/><path d="M103.89,120.61c0-.65.31-.76.86-.48h0l-.86.45Z" stroke="#000" stroke-miterlimit="10" stroke-width="0.5"/><path d="M43.38,121.22l-.65-.65Z" fill="#fefefe" stroke="#000" stroke-miterlimit="10" stroke-width="0.5"/><path d="M103.78,120.54c0,.48,0,.72-.65.66h0C103.13,120.71,103.3,120.47,103.78,120.54Z" stroke="#000" stroke-miterlimit="10" stroke-width="0.5"/><path d="M32,115.93l.55.44-.49.18A6.2,6.2,0,0,0,32,115.93Z" stroke="#000" stroke-miterlimit="10" stroke-width="0.5"/><path d="M38.08,115.93l.68.69v.27a2.32,2.32,0,0,1-.58-.31h0l-.31-.38Z" fill="#fefefe" stroke="#000" stroke-miterlimit="10" stroke-width="0.5"/><path d="M38.76,116.58l.59.76a.41.41,0,0,1-.58.07h0a.23.23,0,0,1-.07-.07h0a.46.46,0,0,1-.21-.41v-.25Z" fill="#fefefe" stroke="#000" stroke-miterlimit="10" stroke-width="0.5"/><path d="M38.66,117.22h.66a.42.42,0,0,1,.24.41v.25H39Z" stroke="#000" stroke-miterlimit="10" stroke-width="0.5"/><path d="M39.42,118v-.69l.69.69a.49.49,0,0,1-.66,0Z" fill="#fefefe" stroke="#000" stroke-miterlimit="10" stroke-width="0.5"/><path d="M39.35,117.86H40c.19.13.26.28.21.44s0,.24-.17.24h0C39.59,118.61,39.38,118.3,39.35,117.86Z" stroke="#000" stroke-miterlimit="10" stroke-width="0.5"/><path d="M40,118.61v-.69l.69.69Z" fill="#fefefe" stroke="#000" stroke-miterlimit="10" stroke-width="0.5"/><path d="M163.12,125.67v-.2h.21c.21,0,.31.31,0,.44S163.19,125.71,163.12,125.67Z" stroke="#000" stroke-miterlimit="10" stroke-width="0.5"/><path d="M132.44,128.6c0-.17,0-.52.17-.52a.49.49,0,0,1,.38.55v.21h-.28Z" stroke="#000" stroke-miterlimit="10" stroke-width="0.5"/><path d="M132.37,129.15l-.49-.21.56-.34h0q.59.35,0,.69Z" stroke="#000" stroke-miterlimit="10" stroke-width="0.5"/><path d="M133.64,128.57c0,.44,0,.62-.52.62s-.31-.28-.24-.45,0-.24.21-.24h.65Z" stroke="#000" stroke-miterlimit="10" stroke-width="0.5"/><path d="M44,121.92l-.65-.66Z" fill="#fefefe" stroke="#000" stroke-miterlimit="10" stroke-width="0.5"/><path d="M103,121.22c0,.48,0,.72-.66.65h0C102.37,121.37,102.54,121.13,103,121.22Z" stroke="#000" stroke-miterlimit="10" stroke-width="0.5"/><path d="M44,121.92l.66.65Z" fill="#fefefe" stroke="#000" stroke-miterlimit="10" stroke-width="0.5"/><path d="M102.44,121.85c0,.48,0,.72-.65.65h0C101.79,122,102,121.78,102.44,121.85Z" stroke="#000" stroke-miterlimit="10" stroke-width="0.5"/><path d="M45.38,123.22h-.66v-.66Z" fill="#fefefe" stroke="#000" stroke-miterlimit="10" stroke-width="0.5"/><path d="M101.79,122.5l-.31.62-.21-.2.62-.35Z" stroke="#000" stroke-miterlimit="10" stroke-width="0.5"/><path d="M54.06,112.48c-.49,0-.73,0-.66-.65h0C53.88,111.83,54.12,111.83,54.06,112.48Z" stroke="#000" stroke-miterlimit="10" stroke-width="0.5"/><path d="M54,112.48c.48,0,.73,0,.66.66h0C54.12,113.14,53.88,113,54,112.48Z" stroke="#000" stroke-miterlimit="10" stroke-width="0.5"/><path d="M54.61,113.31l.62.31-.21.21-.34-.62Z" stroke="#000" stroke-miterlimit="10" stroke-width="0.5"/><path d="M53.4,111.9l-.62-.31.21-.21.34.62Z" stroke="#000" stroke-miterlimit="10" stroke-width="0.5"/><path d="M31.33,114.62v.69l-.55-.42Z" stroke="#000" stroke-miterlimit="10" stroke-width="0.5"/><path d="M31.36,115.22a.76.76,0,0,1,.76.76h0A.76.76,0,0,1,31.36,115.22Z" stroke="#000" stroke-miterlimit="10" stroke-width="0.5"/><path d="M37.59,115.22l.49.69h0a.54.54,0,0,1-.66,0h0a.49.49,0,0,1-.2-.42v-.24Z" fill="#fefefe" stroke="#000" stroke-miterlimit="10" stroke-width="0.5"/><path d="M167,114v-.68h.62V114a.56.56,0,0,1-.76,0Z" fill="#fefefe" stroke="#000" stroke-miterlimit="10" stroke-width="0.5"/><path d="M166.87,113.9h.76c.19.16.24.31.17.44s0,.21-.2.21h0C167.08,114.58,167,114.27,166.87,113.9Z" stroke="#000" stroke-miterlimit="10" stroke-width="0.5"/><path d="M65.9,190.31c-.51-3.13-3.44-4.65-5.13-6.88,4,.48,4.75,1.23,9.68,8.67a3.64,3.64,0,0,1-2.48,0C67.28,191.69,66.11,191.45,65.9,190.31Z" stroke="#000" stroke-miterlimit="10" stroke-width="0.5"/><path d="M65.9,190.31c.83.48,2,.66,2.07,1.93A2.3,2.3,0,0,1,65,191v0C64.52,190,65.56,190.52,65.9,190.31Z" stroke="#000" stroke-miterlimit="10" stroke-width="0.5"/><path d="M54,179.64h-.69l-.35-.28.28-.38C53.71,179,54,179.22,54,179.64Z" stroke="#000" stroke-miterlimit="10" stroke-width="0.5"/><path d="M88.67,210.63v-.21l.34.25-.24.2Z" stroke="#000" stroke-miterlimit="10" stroke-width="0.5"/><path d="M52.61,179.09v-.76a.6.6,0,0,1,.65.76h0A.48.48,0,0,1,52.61,179.09Z" stroke="#000" stroke-miterlimit="10" stroke-width="0.5"/><path d="M16,114.1c2.58-.41,2.92,2.65,4.89,3.17h0v.24h0c-2.76,0-3.86-1.76-4.79-3.86Z" stroke="#000" stroke-miterlimit="10" stroke-width="0.5"/><path d="M24,122.54c-.9-.38-1.49-.9-1.14-2a.77.77,0,0,1,.55-.55c1.17-.42,1.38.34,1.45,1.2S24.58,122.22,24,122.54Z" stroke="#000" stroke-miterlimit="10" stroke-width="0.5"/><path d="M24,122.54l.86-1.31c1.27,0,1.44,1.21,1.86,2.07h-.31l-.28-.21Z" fill="#fefefe" stroke="#000" stroke-miterlimit="10" stroke-width="0.5"/><path d="M16,114l-1.83-1.68c1.45,0,2.14.34,1.76,1.79Z" stroke="#000" stroke-miterlimit="10" stroke-width="0.5"/><path d="M20.82,117.3c0-.41-.31-1.24.35-1.13a1.27,1.27,0,0,1,.94,1.53.75.75,0,0,1,0,.16l-.2.34h-.42c-.34-.24-.44-.65-.75-.93Z" stroke="#000" stroke-miterlimit="10" stroke-width="0.5"/><path d="M22.1,118.65l-.21.82h0l-.48-.86.34-.2Z" stroke="#000" stroke-miterlimit="10" stroke-width="0.5"/><path d="M21.89,119.37c.45-.27.76,0,1,.28h0a.69.69,0,0,1-1-.13l0,0a.54.54,0,0,1-.07-.13Z" stroke="#000" stroke-miterlimit="10" stroke-width="0.5"/><path d="M23.44,120l-.55.55v-.86h0Z" stroke="#000" stroke-miterlimit="10" stroke-width="0.5"/><path d="M21.51,118.54c-.48,0-.71-.23-.69-.68h0a.49.49,0,0,1,.68-.09l.08.09h0q.31.24.21.51c-.11.28,0,.24-.21.24Z" stroke="#000" stroke-miterlimit="10" stroke-width="0.5"/><path d="M21.41,118.65v-.76h.69v.83Z" fill="#fefefe" stroke="#000" stroke-miterlimit="10" stroke-width="0.5"/><path d="M26.16,123.22h.55l-.45.45Z" stroke="#000" stroke-miterlimit="10" stroke-width="0.5"/><path d="M60.7,169.68V169a.73.73,0,0,1,.76.69v.07Z" stroke="#000" stroke-miterlimit="10" stroke-width="0.5"/><path d="M60.05,169a.86.86,0,0,1,0-.59c.45,0,.58.31.65.69Z" stroke="#000" stroke-miterlimit="10" stroke-width="0.5"/><path d="M37.35,115.93H38v.65A.76.76,0,0,1,37.35,115.93Z" stroke="#000" stroke-miterlimit="10" stroke-width="0.5"/><path d="M38.66,116.65v.65a.75.75,0,0,1-.76-.74h0Z" stroke="#000" stroke-miterlimit="10" stroke-width="0.5"/><path d="M36.11,114.65c.49,0,.62.28.66.66S36.08,115.1,36.11,114.65Z" stroke="#000" stroke-miterlimit="10" stroke-width="0.5"/><path d="M37.35,115.31l.24.62a.76.76,0,0,1-.75-.76h0Z" stroke="#000" stroke-miterlimit="10" stroke-width="0.5"/><path d="M62,171l.21-.66h.34v.73Z" stroke="#000" stroke-miterlimit="10" stroke-width="0.5"/><path d="M133.09,128.5v.72h-.79v-.69Z" fill="#fefefe" stroke="#000" stroke-miterlimit="10" stroke-width="0.5"/><path d="M167.53,114.55v-.69h.69Z" fill="#fefefe" stroke="#000" stroke-miterlimit="10" stroke-width="0.5"/><path d="M56.6,157.73l-.58-.58Z" fill="#afafaf" stroke="#000" stroke-miterlimit="10" stroke-width="0.5"/><path d="M66.66,175.09H66a2.15,2.15,0,0,1,0-.62Z" fill="#9f9f9f" stroke="#000" stroke-miterlimit="10" stroke-width="0.5"/><path d="M145.63,141.14h1l.21.2v1h-1.42Z" fill="#fefefe" stroke="#000" stroke-miterlimit="10" stroke-width="0.5"/><path d="M145,143.22v-.76h.76v.76Z" fill="#fefefe" stroke="#000" stroke-miterlimit="10" stroke-width="0.5"/><path d="M145.07,142.55h-.72v-.76a.74.74,0,0,1,.72.76Z" fill="#fefefe" stroke="#000" stroke-miterlimit="10" stroke-width="0.5"/><path d="M99.79,200.27h.65a.86.86,0,0,1,0,.55,1,1,0,0,1-.55,0Z" stroke="#000" stroke-miterlimit="10" stroke-width="0.5"/><path d="M99.79,199.68v.65h-.66v-.65Z" stroke="#000" stroke-miterlimit="10" stroke-width="0.5"/><path d="M52.61,179.09h.76v.75h-.76q-.31-.24-.21-.51C52.51,179.05,52.4,179.09,52.61,179.09Z" fill="#fefefe" stroke="#000" stroke-miterlimit="10" stroke-width="0.5"/><path d="M147.8,141.14v.75H147l-.24-.31v-.36Z" fill="#fefefe" stroke="#000" stroke-miterlimit="10" stroke-width="0.5"/><path d="M146.38,141.22v-.75h.76v.75h0a.48.48,0,0,1-.67.09h0Z" fill="#fefefe" stroke="#000" stroke-miterlimit="10" stroke-width="0.5"/><path d="M99.13,199v.65h-.65V199Z" stroke="#000" stroke-miterlimit="10" stroke-width="0.5"/><path d="M52.71,179v.76h-.65a.86.86,0,0,1,0-.55Z" stroke="#000" stroke-miterlimit="10" stroke-width="0.5"/><path d="M21.51,118h-.76v-.74a.76.76,0,0,1,.76.76Z" fill="#fefefe" stroke="#000" stroke-miterlimit="10" stroke-width="0.5"/><path d="M146.28,141.14H147v.75A.76.76,0,0,1,146.28,141.14Z" stroke="#000" stroke-miterlimit="10" stroke-width="0.5"/></g></g></g></svg>