<svg xmlns="http://www.w3.org/2000/svg" viewBox="0 0 113.51 255.25"><title>s9</title><g id="Layer_2" data-name="Layer 2"><g id="Layer_1-2" data-name="Layer 1"><g id="Layer_1-2-2" data-name="Layer 1-2"><path d="M56.79,255.25c-.08-.46-3.74-36.44-4-36.85a18,18,0,0,1-3.38-9.61c-1-4.33-2.08-8.72-3.39-12.93-2.43-7.89-5.1-15.73-7.59-23.74a4.27,4.27,0,0,1,0-1l4.33,3.09-3-5.93,2-.54A2.5,2.5,0,0,0,41,166a25.59,25.59,0,0,1-3.92-2.79,93.17,93.17,0,0,1-7.77-11c-5-8.55-9.79-17.21-14.24-26-1.19-2.43-1.78-5.1-3.26-7.6a25.86,25.86,0,0,1-2.32-7.65,3.27,3.27,0,0,1,.71-2.37c1.31-1.61,2-3.39.6-5A16.8,16.8,0,0,1,8.12,91.69H6.86c0-3.33,0-3.5-3-4.75A22.55,22.55,0,0,1,0,84.33a17.11,17.11,0,0,1,1.72-2.08c1.07-.95,2.08-1.72,2.85.48A3.48,3.48,0,0,0,9,84.91H9a3.38,3.38,0,0,0,1.19-.69l3.39-2.61-.36-2.31c0-1.55-.59-2.85,1.25-3.92.59-.36.35-2.43,0-3.68S13.05,68,13.35,66.35c.59-3.2-.42-6.7,1.66-9.67a3,3,0,0,0,0-2.26,9.48,9.48,0,0,1,2.61-9A73,73,0,0,0,23.56,34c2-4.15,3.85-8.42,5.93-12.64A8.64,8.64,0,0,1,31,19.66a37.75,37.75,0,0,0,2.79-3.26c1.84-2.67,3.56-5.4,5.4-8.13,2.14,1.37,1,2.49.53,3.62s-1.66,2.49,1,2.26v3L48.94,0h0L42.29,21.66l1,.42,4.93-10.86h.47l-1.24,7.36c2.49-1.07,2.19-3.5,3.2-4.93s2-3.2,3.26-4.69L50.44,21.67h.66L57,6.84h.77a7.8,7.8,0,0,1,1.25,2.73c0,1.06-.71,2.07-.83,3.14s0,2.79,0,4.15a21.47,21.47,0,0,1-.83,3.8c-.6,1.9-2.2,4-1.84,5.58a19,19,0,0,1-1.69,9.3,17.7,17.7,0,0,0,0,5.34c0,.59,1,1.12,1.89,2.07-4.56,10.33-1.6,21.6-2.07,32.75h.71l1.25-16.43h.47l.42,16.49h.83a7,7,0,0,0,.29-1.36l.6-21.6c0-.83-.42-1.84,1.06-2.19.42,0,.6-1.78.66-2.73.47-5.94.89-11.87,1.84-17.8v9.79l.35,10.08v9.91h.7L65.12,48h.41V72.32h.72L67,32.57h.53c.36.83,1.07,1.66,1.07,2.49,0,3.15-.47,6.29-.53,9.49s0,6.29,0,9.38a47.1,47.1,0,0,0,.77,7.59l.77-28.24h.65a7.17,7.17,0,0,1,0,1.31V50.37c0,8.25.6,16.49.95,24.74A28.32,28.32,0,0,0,71.59,78h.65V57.43h.47A14.05,14.05,0,0,1,73.37,60L75.8,99.79c.36,5.94.59,11.57,1,17.33,0,3.62.77,7.18,1.07,10.8v4.86h1.36a14.26,14.26,0,0,0,.54-2.9c0-6.89-.48-13.77-.6-20.65s0-12.34,0-18.51c.3,3.44.71,6.88.89,10.38l1,19.22c.36,6.89.59,13.77,1.13,20.65A58.58,58.58,0,0,0,84,149.16h1a50.24,50.24,0,0,0,.77-6.23c0-5.93-.36-11.87-.3-18.1,0-4.62.42-9.25.65-13.82a8.51,8.51,0,0,1,0-1h.66l1,12.7h.59v-8.9c.41-5-1.54-9.85-1.25-14.9A23.69,23.69,0,0,1,88,95.12h.71c1.25,5.63,2.62,11.27,3.8,16.91q4.69,22.36,9.26,44.8c1.07,5.16,2.07,10.32,2.61,15.48a8.89,8.89,0,0,0,1.24,5.28l-1.24-.77.53,5.28h-.59a8.26,8.26,0,0,1-1-2.07l-1.78-11.87a56.54,56.54,0,0,0-.89-5.94l-8.78-38.68a81,81,0,0,0-2.73-10.39,10.58,10.58,0,0,0,0,1.78c1.42,8.85,2.67,17.81,4.27,26.53s3.86,17.38,5.34,26.16c.89,5.11.83,10.45,1.31,15.61.71,7.48,1.54,14.95,2.37,22.43a64.21,64.21,0,0,0,1.07,7.3c.59,2.55,1.48,5,2.31,7.59l-1.36-.65a4.66,4.66,0,0,0,0,1.18,48.65,48.65,0,0,0,4.15,11.28,44.32,44.32,0,0,1,3.8,9.14l-2.61-.54a17.79,17.79,0,0,0,3.74,14.12l-13-1.72v.89a7.19,7.19,0,0,0,2.26,1"/></g></g></g></svg>